SplineFontDB: 1.0
FontName: Garuda
FullName: Garuda
FamilyName: Garuda
Weight: Book
Copyright: Generated by NECTEC for Public Domain
Version: 1.0,  Dec 5, 1999 (Windows 95)
ItalicAngle: 0
UnderlinePosition: -55
UnderlineWidth: 20
Ascent: 1721
Descent: 327
FSType: 0
PfmFamily: 17
TTFWeight: 400
TTFWidth: 5
Panose: 2 11 6 4 2 2 2 2 2 4
LineGap: 0
VLineGap: 0

LangName: 1033 "" "" "Regular" "Windows 95 - Garuda" "" "1.0,  Dec 5, 1999 (Windows 95)" "" "" 
Encoding: compacted
DisplaySize: -72
AntiAlias: 1
BeginChars: 344 342
StartChar: .notdef
Encoding: 0 -1
OldEncoding: 0
Width: 1024
Flags: W
Fore
128 0 m 1
 128 1721 l 1
 896 1721 l 1
 896 0 l 1
 128 0 l 1
256 128 m 1
 768 128 l 1
 768 1593 l 1
 256 1593 l 1
 256 128 l 1
EndSplineSet
EndChar
StartChar: exclam
Encoding: 2 33
OldEncoding: 33
Width: 371
Flags: W
Fore
151 238 m 1
 115 745 l 1
 115 957 l 1
 260 957 l 1
 260 745 l 1
 227 238 l 1
 151 238 l 1
120 0 m 1
 120 134 l 1
 255 134 l 1
 255 0 l 1
 120 0 l 1
EndSplineSet
EndChar
StartChar: quotedbl
Encoding: 3 34
OldEncoding: 34
Width: 475
Flags: W
Fore
94 618 m 1
 61 800 l 1
 61 957 l 1
 195 957 l 1
 195 800 l 1
 166 618 l 1
 94 618 l 1
310 618 m 1
 278 800 l 1
 278 957 l 1
 412 957 l 1
 412 800 l 1
 381 618 l 1
 310 618 l 1
EndSplineSet
EndChar
StartChar: numbersign
Encoding: 4 35
OldEncoding: 35
Width: 744
Flags: W
Fore
67 -16 m 1
 124 262 l 1
 14 262 l 1
 14 359 l 1
 144 359 l 1
 192 596 l 1
 14 596 l 1
 14 693 l 1
 212 693 l 1
 268 973 l 1
 366 973 l 1
 309 693 l 1
 515 693 l 1
 572 973 l 1
 670 973 l 1
 614 693 l 1
 727 693 l 1
 727 596 l 1
 594 596 l 1
 545 359 l 1
 727 359 l 1
 727 262 l 1
 526 262 l 1
 469 -16 l 1
 371 -16 l 1
 427 262 l 1
 222 262 l 1
 165 -16 l 1
 67 -16 l 1
242 359 m 1
 447 359 l 1
 495 596 l 1
 290 596 l 1
 242 359 l 1
EndSplineSet
EndChar
StartChar: dollar
Encoding: 5 36
OldEncoding: 36
Width: 744
Flags: W
Fore
333 -138 m 1
 333 -20 l 1
 153.667 2 58.6667 97.3333 48 266 c 1
 166 288 l 1
 182.667 161.333 238.333 91.6667 333 79 c 1
 333 453 l 1
 156.333 492.333 68 582 68 722 c 0
 68 801.333 92.6667 864.333 142 911 c 0
 188.667 955 252.333 981 333 989 c 1
 333 1045 l 1
 402 1045 l 1
 402 989 l 1
 552 974.333 637 895.667 657 753 c 1
 536 735 l 1
 522.667 822.333 478 874 402 890 c 1
 402 551 l 1
 588 512.333 681 419.333 681 272 c 0
 681 189.333 655.167 121.167 603.5 67.5 c 0
 551.833 13.8333 484.667 -15 402 -19 c 1
 402 -138 l 1
 333 -138 l 1
333 891 m 1
 273 882.333 229.667 853.667 203 805 c 0
 191 783 185 758.333 185 731 c 0
 185 650.333 234.333 595.333 333 566 c 1
 333 891 l 1
402 79 m 1
 450 85 488.333 105.167 517 139.5 c 0
 545.667 173.833 560 215.333 560 264 c 0
 560 346.667 507.333 404.333 402 437 c 1
 402 79 l 1
EndSplineSet
EndChar
StartChar: percent
Encoding: 6 37
OldEncoding: 37
Width: 1189
Flags: W
Fore
78 727 m 0
 78 825.667 108.667 897 170 941 c 0
 200 962.333 236.333 973 279 973 c 0
 358.333 973 417.333 937.667 456 867 c 0
 476.667 829 487 780 487 720 c 0
 487 649.333 470.333 591 437 545 c 0
 400.333 493 348 467 280 467 c 0
 210.667 467 158.333 494 123 548 c 0
 93 594.667 78 654.333 78 727 c 0
282 892 m 0
 214 892 180 833 180 715 c 0
 180 603.667 214 548 282 548 c 0
 350.667 548 385 607 385 725 c 0
 385 836.333 350.667 892 282 892 c 0
283 -35 m 1
 806 973 l 1
 902 973 l 1
 380 -35 l 1
 283 -35 l 1
697 225 m 0
 697 326.333 728.667 398.333 792 441 c 0
 821.333 461 856.667 471 898 471 c 0
 967.333 471 1020.33 445.333 1057 394 c 0
 1089.67 348.667 1106 289.667 1106 217 c 0
 1106 146.333 1089.33 88.3333 1056 43 c 0
 1019.33 -9 967 -35 899 -35 c 0
 821 -35 763.667 1 727 73 c 0
 707 111.667 697 162.333 697 225 c 0
902 390 m 0
 833.333 390 799 331 799 213 c 0
 799 101.667 833 46 901 46 c 0
 969.667 46 1004 104.667 1004 222 c 0
 1004 334 970 390 902 390 c 0
EndSplineSet
EndChar
StartChar: ampersand
Encoding: 7 38
OldEncoding: 38
Width: 892
Flags: W
Fore
635 113 m 1
 557.667 27 466 -16 360 -16 c 0
 245.333 -16 158.667 29.3333 100 120 c 0
 71.3333 164 57 212 57 264 c 0
 57 382 133 477.333 285 550 c 1
 213.667 632.667 178 702.667 178 760 c 0
 178 823.333 202 875 250 915 c 0
 296 953.667 351 973 415 973 c 0
 502.333 973 567 940 609 874 c 0
 628.333 843.333 638 808.333 638 769 c 0
 638 678.333 577.667 600.667 457 536 c 1
 629 317 l 1
 648.333 355.667 663.333 400 674 450 c 1
 796 424 l 1
 775.333 340.667 747.333 272 712 218 c 1
 755.333 160 805 111 861 71 c 1
 782 -22 l 1
 734.667 8.66667 685.667 53.6667 635 113 c 1
396 612 m 1
 477.333 659.333 518 710.667 518 766 c 0
 518 798.667 507.833 825.333 487.5 846 c 0
 467.167 866.667 441 877 409 877 c 0
 377.667 877 351.333 867 330 847 c 0
 308.667 827 298 801.667 298 771 c 0
 298 740.333 313.333 707.333 344 672 c 2
 396 612 l 1
561 206 m 1
 346 473 l 1
 238 408.333 184 341 184 271 c 0
 184 221.667 201.333 178.667 236 142 c 0
 270.667 105.333 312.667 87 362 87 c 0
 444 87 510.333 126.667 561 206 c 1
EndSplineSet
EndChar
StartChar: quotesingle
Encoding: 8 39
OldEncoding: 39
Width: 255
Flags: W
Fore
89 618 m 1
 59 797 l 1
 59 957 l 1
 193 957 l 1
 193 797 l 1
 161 618 l 1
 89 618 l 1
EndSplineSet
EndChar
StartChar: parenleft
Encoding: 9 40
OldEncoding: 40
Width: 445
Flags: W
Fore
313 -281 m 1
 158.333 -86.3333 81 123 81 347 c 0
 81 558.333 158.333 767 313 973 c 1
 397 973 l 1
 267 759.667 202 550.667 202 346 c 0
 202 136.667 267 -72.3333 397 -281 c 1
 313 -281 l 1
EndSplineSet
EndChar
StartChar: parenright
Encoding: 10 41
OldEncoding: 41
Width: 445
Flags: W
Fore
165 -281 m 1
 81 -281 l 1
 211 -72.3333 276 136.667 276 346 c 0
 276 495.333 249.333 631.333 196 754 c 0
 172 809.333 133.667 882.333 81 973 c 1
 165 973 l 1
 319.667 767 397 558.333 397 347 c 0
 397 124.333 319.667 -85 165 -281 c 1
EndSplineSet
EndChar
StartChar: asterisk
Encoding: 11 42
OldEncoding: 42
Width: 520
Flags: W
Fore
42 781 m 1
 72 874 l 1
 141.333 850 191.667 829 223 811 c 1
 214.333 889.667 210 943.667 210 973 c 1
 304 973 l 1
 302.667 930.333 297.667 876.333 289 811 c 1
 333.667 833.667 385 854.667 443 874 c 1
 473 781 l 1
 417.667 763 363.667 751 311 745 c 1
 337.667 721.667 375 680.333 423 621 c 1
 345 566 l 1
 319.667 600.667 289.667 647.333 255 706 c 1
 223 644.667 194.667 598 170 566 c 1
 93 621 l 1
 143.667 683.667 180 725 202 745 c 1
 146 755.667 92.6667 767.667 42 781 c 1
EndSplineSet
EndChar
StartChar: plus
Encoding: 12 43
OldEncoding: 43
Width: 781
Flags: W
Fore
335 155 m 1
 335 417 l 1
 74 417 l 1
 74 527 l 1
 335 527 l 1
 335 787 l 1
 446 787 l 1
 446 527 l 1
 706 527 l 1
 706 417 l 1
 446 417 l 1
 446 155 l 1
 335 155 l 1
EndSplineSet
EndChar
StartChar: comma
Encoding: 13 44
OldEncoding: 44
Width: 371
Flags: W
Fore
119 0 m 1
 119 134 l 1
 253 134 l 1
 253 0 l 2
 253 -94.6667 216.667 -157.667 144 -189 c 1
 111 -139 l 1
 158.333 -118.333 183 -72 185 0 c 1
 119 0 l 1
EndSplineSet
EndChar
StartChar: hyphen
Encoding: 14 45
OldEncoding: 45
Width: 445
Flags: W
Fore
42 287 m 1
 42 405 l 1
 403 405 l 1
 403 287 l 1
 42 287 l 1
EndSplineSet
EndChar
StartChar: period
Encoding: 15 46
OldEncoding: 46
Width: 371
Flags: W
Fore
121 0 m 1
 121 134 l 1
 255 134 l 1
 255 0 l 1
 121 0 l 1
EndSplineSet
EndChar
StartChar: slash
Encoding: 16 47
OldEncoding: 47
Width: 371
Flags: W
Fore
0 -16 m 1
 277 973 l 1
 371 973 l 1
 95 -16 l 1
 0 -16 l 1
EndSplineSet
EndChar
StartChar: zero
Encoding: 17 48
OldEncoding: 48
Width: 744
Flags: W
Fore
55 472 m 0
 55 798 159.333 961 368 961 c 0
 576 961 680 798 680 472 c 0
 680 146.667 576 -16 368 -16 c 0
 159.333 -16 55 146.667 55 472 c 0
176 472 m 0
 176 210.667 240 80 368 80 c 0
 495.333 80 559 210.667 559 472 c 0
 559 733.333 494.667 864 366 864 c 0
 239.333 864 176 733.333 176 472 c 0
EndSplineSet
EndChar
StartChar: one
Encoding: 18 49
OldEncoding: 49
Width: 744
Flags: W
Fore
498 0 m 1
 381 0 l 1
 381 749 l 1
 318.333 689 240 641.667 146 607 c 1
 146 721 l 1
 282.667 785 374.667 865 422 961 c 1
 498 961 l 1
 498 0 l 1
EndSplineSet
EndChar
StartChar: two
Encoding: 19 50
OldEncoding: 50
Width: 744
Flags: W
Fore
670 113 m 1
 670 0 l 1
 37 0 l 1
 37 101.333 118.667 219.333 282 354 c 0
 344 404.667 386.667 441.333 410 464 c 0
 457.333 509.333 492.667 552.333 516 593 c 0
 537.333 630.333 548 665.333 548 698 c 0
 548 748.667 530.667 789 496 819 c 0
 461.333 849 418.667 864 368 864 c 0
 309.333 864 263.5 846.833 230.5 812.5 c 0
 197.5 778.167 180.667 731.333 180 672 c 1
 60 684 l 1
 76.6667 868.667 180 961 370 961 c 0
 455.333 961 525.667 938.333 581 893 c 0
 639.667 844.333 669 778.333 669 695 c 0
 669 621.667 636.333 546.333 571 469 c 0
 537.667 430.333 476 373 386 297 c 0
 324 245 290.667 216.667 286 212 c 0
 248 177.333 219.667 144.333 201 113 c 1
 670 113 l 1
EndSplineSet
EndChar
StartChar: three
Encoding: 20 51
OldEncoding: 51
Width: 744
Flags: W
Fore
56 253 m 1
 174 268 l 1
 199.333 142.667 261.667 80 361 80 c 0
 417.667 80 464.667 99.1667 502 137.5 c 0
 539.333 175.833 558 223.333 558 280 c 0
 558 334.667 540.5 379.333 505.5 414 c 0
 470.5 448.667 425.667 466 371 466 c 0
 348.333 466 320.667 461.667 288 453 c 1
 301 556 l 1
 329 555 l 2
 345 554.333 365 557 389 563 c 0
 473 583.667 515 634.333 515 715 c 0
 515 760.333 500.333 796.5 471 823.5 c 0
 441.667 850.5 404 864 358 864 c 0
 260.667 864 203 806.667 185 692 c 1
 68 713 l 1
 98 878.333 194 961 356 961 c 0
 434 961 499.333 939.333 552 896 c 0
 608 850 636 788.667 636 712 c 0
 636 623.333 592 558.667 504 518 c 1
 623.333 490.667 683 412.333 683 283 c 0
 683 193 651.833 120.5 589.5 65.5 c 0
 527.167 10.5 450.667 -17 360 -17 c 0
 246.667 -17 161.667 25.3333 105 110 c 0
 77.6667 150 61.3333 197.667 56 253 c 1
EndSplineSet
EndChar
StartChar: four
Encoding: 21 52
OldEncoding: 52
Width: 744
Flags: W
Fore
432 0 m 1
 432 229 l 1
 17 229 l 1
 17 337 l 1
 454 957 l 1
 550 957 l 1
 550 337 l 1
 679 337 l 1
 679 229 l 1
 550 229 l 1
 550 0 l 1
 432 0 l 1
432 337 m 1
 432 768 l 1
 133 337 l 1
 432 337 l 1
EndSplineSet
EndChar
StartChar: five
Encoding: 22 53
OldEncoding: 53
Width: 744
Flags: W
Fore
55 251 m 1
 179 261 l 1
 197 140.333 258.333 80 363 80 c 0
 436.333 80 493.333 114.333 534 183 c 0
 554.667 219 565 262.667 565 314 c 0
 565 378.667 547 431 511 471 c 0
 475 511 425 531 361 531 c 0
 284.333 531 226.333 500 187 438 c 1
 76 452 l 1
 169 944 l 1
 645 944 l 1
 645 832 l 1
 263 832 l 1
 212 574 l 1
 269.333 614.667 329.333 635 392 635 c 0
 509.333 635 596 585 652 485 c 0
 677.333 438.333 690 384.667 690 324 c 0
 690 188 636.333 88.6667 529 26 c 0
 481.667 -2 426.333 -16 363 -16 c 0
 277.667 -16 207.667 7.33333 153 54 c 0
 96.3333 101.333 63.6667 167 55 251 c 1
EndSplineSet
EndChar
StartChar: six
Encoding: 23 54
OldEncoding: 54
Width: 744
Flags: W
Fore
665 723 m 1
 548 714 l 1
 527.333 814 473.333 864 386 864 c 0
 304 864 244.333 819.667 207 731 c 0
 181 667.667 167.667 588.667 167 494 c 1
 223 578.667 300.667 621 400 621 c 0
 484.667 621 553.667 589.667 607 527 c 0
 657 468.333 682 396.333 682 311 c 0
 682 217 656 140 604 80 c 0
 548.667 16 475 -16 383 -16 c 0
 161 -16 50 138.667 50 448 c 0
 50 790 164.667 961 394 961 c 0
 496 961 571.333 924.667 620 852 c 0
 643.333 816.667 658.333 773.667 665 723 c 1
185 310 m 0
 185 247.333 201.667 194.333 235 151 c 0
 271.667 103.667 320.333 80 381 80 c 0
 439 80 484.667 103.667 518 151 c 0
 547.333 192.333 562 243.333 562 304 c 0
 562 391.333 532.333 453.667 473 491 c 0
 445.667 508.333 413.333 517 376 517 c 0
 301.333 517 246.333 484.333 211 419 c 0
 193.667 387.667 185 351.333 185 310 c 0
EndSplineSet
EndChar
StartChar: seven
Encoding: 24 55
OldEncoding: 55
Width: 744
Flags: W
Fore
63 832 m 1
 63 945 l 1
 683 945 l 1
 683 853 l 1
 581 745 497 613.333 431 458 c 0
 365 302.667 327.333 150 318 0 c 1
 197 0 l 1
 200.333 140.667 233.667 288.333 297 443 c 0
 358.333 592.333 436.667 722 532 832 c 1
 63 832 l 1
EndSplineSet
EndChar
StartChar: eight
Encoding: 25 56
OldEncoding: 56
Width: 744
Flags: W
Fore
236 519 m 1
 140.667 554.333 93 619.333 93 714 c 0
 93 805.333 133.333 875.333 214 924 c 0
 256 948.667 307.333 961 368 961 c 0
 474.667 961 554.333 922.667 607 846 c 0
 633 808 646 763 646 711 c 0
 646 618.333 599 554.333 505 519 c 1
 625 479.667 685 398 685 274 c 0
 685 186 654 115 592 61 c 0
 532.667 9.66667 458.333 -16 369 -16 c 0
 279 -16 204.667 10 146 62 c 0
 84.6667 116 54 187.667 54 277 c 0
 54 406.333 114.667 487 236 519 c 1
213 718 m 0
 213 672 227.667 634.833 257 606.5 c 0
 286.333 578.167 324 564 370 564 c 0
 414 564 450.833 577.667 480.5 605 c 0
 510.167 632.333 525 668 525 712 c 0
 525 756 510 792.333 480 821 c 0
 450 849.667 413 864 369 864 c 0
 325.667 864 288.833 850.333 258.5 823 c 0
 228.167 795.667 213 760.667 213 718 c 0
175 276 m 0
 175 218 193.167 170.833 229.5 134.5 c 0
 265.833 98.1667 313 80 371 80 c 0
 427.667 80 474.167 98 510.5 134 c 0
 546.833 170 565 216 565 272 c 0
 565 329.333 546.167 376.333 508.5 413 c 0
 470.833 449.667 423.667 468 367 468 c 0
 295.667 468 241.333 439 204 381 c 0
 184.667 351.667 175 316.667 175 276 c 0
EndSplineSet
EndChar
StartChar: nine
Encoding: 26 57
OldEncoding: 57
Width: 744
Flags: W
Fore
73 221 m 1
 186 232 l 1
 204 130.667 257 80 345 80 c 0
 441 80 507.667 138 545 254 c 0
 559.667 300 567 344.667 567 388 c 2
 567 450 l 1
 514.333 366 438.333 324 339 324 c 0
 253 324 183.333 355.333 130 418 c 0
 80 476.667 55 550 55 638 c 0
 55 768 103.667 862.333 201 921 c 0
 245 947.667 296.667 961 356 961 c 0
 484 961 578 901.667 638 783 c 0
 669.333 721 685 626 685 498 c 0
 685 155.333 570.667 -16 342 -16 c 0
 245.333 -16 172 18 122 86 c 0
 96 121.333 79.6667 166.333 73 221 c 1
554 644 m 0
 554 704 538.667 754.333 508 795 c 0
 474.667 841 429 864 371 864 c 0
 311.667 864 263.333 840 226 792 c 0
 192.667 748 176 695.333 176 634 c 0
 176 576 193.333 527.667 228 489 c 0
 264 448.333 310.667 428 368 428 c 0
 428 428 474.667 449.667 508 493 c 0
 538.667 532.333 554 582.667 554 644 c 0
EndSplineSet
EndChar
StartChar: colon
Encoding: 27 58
OldEncoding: 58
Width: 371
Flags: W
Fore
121 559 m 1
 121 693 l 1
 255 693 l 1
 255 559 l 1
 121 559 l 1
121 0 m 1
 121 134 l 1
 255 134 l 1
 255 0 l 1
 121 0 l 1
EndSplineSet
EndChar
StartChar: semicolon
Encoding: 28 59
OldEncoding: 59
Width: 371
Flags: W
Fore
119 559 m 1
 119 693 l 1
 253 693 l 1
 253 559 l 1
 119 559 l 1
119 0 m 1
 119 134 l 1
 253 134 l 1
 253 0 l 2
 253 -94.6667 216.667 -157.667 144 -189 c 1
 111 -139 l 1
 158.333 -118.333 183 -72 185 0 c 1
 119 0 l 1
EndSplineSet
EndChar
StartChar: less
Encoding: 29 60
OldEncoding: 60
Width: 781
Flags: W
Fore
73 418 m 1
 73 528 l 1
 707 796 l 1
 707 679 l 1
 204 473 l 1
 707 264 l 1
 707 148 l 1
 73 418 l 1
EndSplineSet
EndChar
StartChar: equal
Encoding: 30 61
OldEncoding: 61
Width: 781
Flags: W
Fore
706 563 m 1
 74 563 l 1
 74 672 l 1
 706 672 l 1
 706 563 l 1
706 272 m 1
 74 272 l 1
 74 382 l 1
 706 382 l 1
 706 272 l 1
EndSplineSet
EndChar
StartChar: greater
Encoding: 31 62
OldEncoding: 62
Width: 781
Flags: W
Fore
707 418 m 1
 73 148 l 1
 73 264 l 1
 575 473 l 1
 73 679 l 1
 73 796 l 1
 707 528 l 1
 707 418 l 1
EndSplineSet
EndChar
StartChar: question
Encoding: 32 63
OldEncoding: 63
Width: 744
Flags: W
Fore
308 236 m 1
 307 276 l 1
 305.667 324 315.667 369.333 337 412 c 0
 346.333 431.333 358.333 449.667 373 467 c 1
 417 503.667 471.667 559.667 537 635 c 1
 549.667 656.333 556 679.333 556 704 c 0
 556 768 526 817.667 466 853 c 0
 437.333 869 405.667 877 371 877 c 0
 263.667 877 200 812.333 180 683 c 1
 59 697 l 1
 81 881 184.333 973 369 973 c 0
 491 973 580.333 931 637 847 c 0
 663 808.333 676 763.333 676 712 c 0
 676 655.333 651.5 602.5 602.5 553.5 c 0
 553.5 504.5 510 457 472 411 c 0
 440 373 423 314.667 421 236 c 1
 308 236 l 1
301 0 m 1
 301 134 l 1
 435 134 l 1
 435 0 l 1
 301 0 l 1
EndSplineSet
EndChar
StartChar: at
Encoding: 33 64
OldEncoding: 64
Width: 1357
Flags: W
Fore
758 106 m 1
 695.333 34 628.333 -2 557 -2 c 0
 483 -2 424 29.3333 380 92 c 0
 340.667 148 321 214.333 321 291 c 0
 321 359.667 338 428 372 496 c 0
 407.333 567.333 453 621 509 657 c 0
 561.667 691 612 708 660 708 c 0
 742.667 708 808.333 668 857 588 c 1
 879 689 l 1
 996 689 l 1
 902 251 l 2
 889.333 191.667 883 157.667 883 149 c 0
 883 120.333 898 106 928 106 c 0
 974 106 1027.5 139.833 1088.5 207.5 c 0
 1149.5 275.167 1180 361.667 1180 467 c 0
 1180 593.667 1133.33 695.333 1040 772 c 0
 952.667 843.333 844 879 714 879 c 0
 598.667 879 497.333 850.333 410 793 c 0
 322.667 735.667 257.333 654.667 214 550 c 0
 184 476.667 169 399 169 317 c 0
 169 97 258 -51.3333 436 -128 c 0
 524 -166 622.333 -185 731 -185 c 0
 945.667 -185 1099 -119.333 1191 12 c 1
 1309 12 l 1
 1263.67 -86.6667 1182.33 -162 1065 -214 c 0
 965 -258.667 854.333 -281 733 -281 c 0
 463.667 -281 272.333 -194.333 159 -21 c 0
 101 67.6667 72 176.667 72 306 c 0
 72 498 134.333 661 259 795 c 0
 369.667 915 523 975 719 975 c 0
 877 975 1008 930 1112 840 c 0
 1222 745.333 1277 620.333 1277 465 c 0
 1277 353 1240 249 1166 153 c 0
 1086.67 49 992.667 -3 884 -3 c 0
 802.667 -3 760.667 33.3333 758 106 c 1
442 283 m 0
 442 234.333 453 192.333 475 157 c 0
 501 115.667 536.667 95 582 95 c 0
 652.667 95 711.667 133.667 759 211 c 0
 799.667 277.667 820 348.667 820 424 c 0
 820 475.333 807.667 518 783 552 c 0
 755.667 590.667 717.333 610 668 610 c 0
 599.333 610 543 571 499 493 c 0
 461 427 442 357 442 283 c 0
EndSplineSet
EndChar
StartChar: A
Encoding: 34 65
OldEncoding: 65
Width: 892
Flags: W
Fore
-2 0 m 1
 366 957 l 1
 502 957 l 1
 894 0 l 1
 749 0 l 1
 638 290 l 1
 238 290 l 1
 133 0 l 1
 -2 0 l 1
274 393 m 1
 599 393 l 1
 499 658 l 2
 466.333 745.333 443.667 811.333 431 856 c 1
 419 796 401.667 735.333 379 674 c 2
 274 393 l 1
EndSplineSet
EndChar
StartChar: B
Encoding: 35 66
OldEncoding: 66
Width: 892
Flags: W
Fore
98 0 m 1
 98 957 l 1
 457 957 l 2
 545.667 957 618 939 674 903 c 0
 740.667 859.667 774 796 774 712 c 0
 774 620.667 729.333 553 640 509 c 1
 760.667 473.667 821 396.333 821 277 c 0
 821 92.3333 701.667 -6.93889e-18 463 0 c 2
 98 0 l 1
225 555 m 1
 432 555 l 2
 526.667 555 589.667 572.667 621 608 c 0
 640.333 630 650 659.667 650 697 c 0
 650 774.333 616.667 820 550 834 c 0
 518.667 840.667 474 844 416 844 c 2
 225 844 l 1
 225 555 l 1
225 113 m 1
 463 113 l 2
 531 113 582.333 122.333 617 141 c 0
 665 167 689 212.333 689 277 c 0
 689 343.667 663.667 389.667 613 415 c 0
 576.333 433 520.667 442 446 442 c 2
 225 442 l 1
 225 113 l 1
EndSplineSet
EndChar
StartChar: C
Encoding: 36 67
OldEncoding: 67
Width: 965
Flags: W
Fore
786 336 m 1
 913 304 l 1
 858.333 90.6667 726 -16 516 -16 c 0
 368.667 -16 255.667 31.6667 177 127 c 0
 103.667 215.667 67 335.333 67 486 c 0
 67 631.333 105.333 747.667 182 835 c 0
 262.667 927 374.667 973 518 973 c 0
 716 973 842 880.333 896 695 c 1
 772 665 l 1
 729.333 798.333 644 865 516 865 c 0
 407.333 865 325.333 828 270 754 c 0
 221.333 688.667 197 599.333 197 486 c 0
 197 372 219.667 281 265 213 c 0
 317.667 132.333 398 92 506 92 c 0
 657.333 92 750.667 173.333 786 336 c 1
EndSplineSet
EndChar
StartChar: D
Encoding: 37 68
OldEncoding: 68
Width: 965
Flags: W
Fore
103 0 m 1
 103 957 l 1
 433 957 l 2
 571.667 957 674.667 930.667 742 878 c 0
 843.333 797.333 894 666 894 484 c 0
 894 161.333 745.333 1.38778e-17 448 0 c 2
 103 0 l 1
230 113 m 1
 434 113 l 2
 510 113 569.333 123 612 143 c 0
 664.667 167 703.667 210.667 729 274 c 0
 752.333 331.333 764 402 764 486 c 0
 764 602.667 740.333 691.5 693 752.5 c 0
 645.667 813.5 558.333 844 431 844 c 2
 230 844 l 1
 230 113 l 1
EndSplineSet
EndChar
StartChar: E
Encoding: 38 69
OldEncoding: 69
Width: 892
Flags: W
Fore
106 0 m 1
 106 957 l 1
 798 957 l 1
 798 844 l 1
 232 844 l 1
 232 551 l 1
 762 551 l 1
 762 439 l 1
 232 439 l 1
 232 113 l 1
 820 113 l 1
 820 0 l 1
 106 0 l 1
EndSplineSet
EndChar
StartChar: F
Encoding: 39 70
OldEncoding: 70
Width: 817
Flags: W
Fore
110 0 m 1
 110 957 l 1
 755 957 l 1
 755 844 l 1
 236 844 l 1
 236 548 l 1
 685 548 l 1
 685 435 l 1
 236 435 l 1
 236 0 l 1
 110 0 l 1
EndSplineSet
EndChar
StartChar: G
Encoding: 40 71
OldEncoding: 71
Width: 1040
Flags: W
Fore
551 375 m 1
 551 488 l 1
 956 488 l 1
 956 133 l 1
 831.333 33.6667 699.333 -16 560 -16 c 0
 405.333 -16 286.667 27.3333 204 114 c 0
 115.333 206.667 71 326.667 71 474 c 0
 71 625.333 112.667 745.667 196 835 c 0
 282 927 400 973 550 973 c 0
 766 973 896.667 878.333 942 689 c 1
 828 658 l 1
 788 796 695.667 865 551 865 c 0
 436.333 865 348.333 829.333 287 758 c 0
 230.333 691.333 202 599.333 202 482 c 0
 202 364.667 230.667 272.333 288 205 c 0
 349.333 133.667 437.667 98 553 98 c 0
 664.333 98 757.333 131 832 197 c 1
 832 375 l 1
 551 375 l 1
EndSplineSet
EndChar
StartChar: H
Encoding: 41 72
OldEncoding: 72
Width: 965
Flags: W
Fore
107 0 m 1
 107 957 l 1
 234 957 l 1
 234 564 l 1
 731 564 l 1
 731 957 l 1
 858 957 l 1
 858 0 l 1
 731 0 l 1
 731 451 l 1
 234 451 l 1
 234 0 l 1
 107 0 l 1
EndSplineSet
EndChar
StartChar: I
Encoding: 42 73
OldEncoding: 73
Width: 371
Flags: W
Fore
125 0 m 1
 125 957 l 1
 251 957 l 1
 251 0 l 1
 125 0 l 1
EndSplineSet
EndChar
StartChar: J
Encoding: 43 74
OldEncoding: 74
Width: 668
Flags: W
Fore
36 272 m 1
 150 287 l 1
 155.333 160.333 202.667 97 292 97 c 0
 366 97 410.333 127.333 425 188 c 0
 431.667 215.333 435 252 435 298 c 2
 435 957 l 1
 562 957 l 1
 562 305 l 2
 562 91 472.333 -16 293 -16 c 0
 117.667 -16 32 80 36 272 c 1
EndSplineSet
EndChar
StartChar: K
Encoding: 44 75
OldEncoding: 75
Width: 892
Flags: W
Fore
98 0 m 1
 98 957 l 1
 225 957 l 1
 225 482 l 1
 700 957 l 1
 871 957 l 1
 470 569 l 1
 889 0 l 1
 722 0 l 1
 381 484 l 1
 225 332 l 1
 225 0 l 1
 98 0 l 1
EndSplineSet
EndChar
StartChar: L
Encoding: 45 76
OldEncoding: 76
Width: 744
Flags: W
Fore
98 0 m 1
 98 957 l 1
 225 957 l 1
 225 113 l 1
 696 113 l 1
 696 0 l 1
 98 0 l 1
EndSplineSet
EndChar
StartChar: M
Encoding: 46 77
OldEncoding: 77
Width: 1114
Flags: W
Fore
99 0 m 1
 99 957 l 1
 290 957 l 1
 562 138 l 1
 613 291 l 1
 842 957 l 1
 1012 957 l 1
 1012 0 l 1
 890 0 l 1
 890 801 l 1
 612 0 l 1
 498 0 l 1
 221 815 l 1
 221 0 l 1
 99 0 l 1
EndSplineSet
EndChar
StartChar: N
Encoding: 47 78
OldEncoding: 78
Width: 965
Flags: W
Fore
102 0 m 1
 102 957 l 1
 232 957 l 1
 734 206 l 1
 734 957 l 1
 856 957 l 1
 856 0 l 1
 726 0 l 1
 223 752 l 1
 223 0 l 1
 102 0 l 1
EndSplineSet
EndChar
StartChar: O
Encoding: 48 79
OldEncoding: 79
Width: 1040
Flags: W
Fore
65 466 m 0
 65 667.333 133.333 813.667 270 905 c 0
 338.667 951 423 974 523 974 c 0
 657 974 766.667 928.667 852 838 c 0
 937.333 747.333 980 627 980 477 c 0
 980 271.667 906.667 128 760 46 c 0
 686.667 4.66667 607.333 -16 522 -16 c 0
 435.333 -16 356.667 4.66667 286 46 c 0
 213.333 88 158.333 147.333 121 224 c 0
 83.6667 298.667 65 379.333 65 466 c 0
195 464 m 0
 195 311.333 247.333 202.333 352 137 c 0
 399.333 107 456 92 522 92 c 0
 629.333 92 712 130.667 770 208 c 0
 822.667 277.333 849 367.333 849 478 c 0
 849 638.667 798 752.333 696 819 c 0
 648 849.667 590.667 865 524 865 c 0
 417.333 865 335.833 829.833 279.5 759.5 c 0
 223.167 689.167 195 590.667 195 464 c 0
EndSplineSet
EndChar
StartChar: P
Encoding: 49 80
OldEncoding: 80
Width: 892
Flags: W
Fore
103 0 m 1
 103 957 l 1
 464 957 l 2
 580.667 957 665.333 941 718 909 c 0
 795.333 861.667 834 785.333 834 680 c 0
 834 486 714.333 389 475 389 c 2
 230 389 l 1
 230 0 l 1
 103 0 l 1
230 502 m 1
 477 502 l 2
 627.667 502 703 560 703 676 c 0
 703 730.667 688 772.333 658 801 c 0
 628 829.667 567 844 475 844 c 2
 230 844 l 1
 230 502 l 1
EndSplineSet
EndChar
StartChar: Q
Encoding: 50 81
OldEncoding: 81
Width: 1040
Flags: W
Fore
828 102 m 1
 887.333 62 941.667 32.6667 991 14 c 1
 954 -74 l 1
 885.333 -49.3333 816.667 -10.3333 748 43 c 1
 677.333 3.66667 599 -16 513 -16 c 0
 372.333 -16 260.333 32 177 128 c 0
 97 219.333 57 336.333 57 479 c 0
 57 625 96.6667 743 176 833 c 0
 258.667 927 372 974 516 974 c 0
 695.333 974 826 904 908 764 c 0
 951.333 690 973 595 973 479 c 0
 973 321 924.667 195.333 828 102 c 1
550 264 m 1
 622.667 244 682.667 213.667 730 173 c 1
 804.667 241 842 343 842 479 c 0
 842 589 815.667 679 763 749 c 0
 705 826.333 622.667 865 516 865 c 0
 379.333 865 283.333 805.667 228 687 c 0
 201.333 629 188 559.667 188 479 c 0
 188 367.667 214.333 277.333 267 208 c 0
 325 130.667 408 92 516 92 c 0
 561.333 92 604 100.667 644 118 c 1
 604.667 143.333 563 161.333 519 172 c 1
 550 264 l 1
EndSplineSet
EndChar
StartChar: R
Encoding: 51 82
OldEncoding: 82
Width: 965
Flags: W
Fore
105 0 m 1
 105 957 l 1
 529 957 l 2
 611.667 957 673.333 949.667 714 935 c 0
 770.667 915 814.333 874.667 845 814 c 0
 861.667 780 870 740.667 870 696 c 0
 870 546.667 780.333 459.667 601 435 c 1
 665 407 725.333 348.667 782 260 c 2
 949 0 l 1
 789 0 l 1
 663 199 l 2
 635 243 613 276 597 298 c 0
 568.333 336.667 541.667 366 517 386 c 0
 483 412 437 425 379 425 c 2
 232 425 l 1
 232 0 l 1
 105 0 l 1
232 535 m 1
 504 535 l 2
 661.333 535 740 588.667 740 696 c 0
 740 799.333 671.667 851 535 851 c 2
 232 851 l 1
 232 535 l 1
EndSplineSet
EndChar
StartChar: S
Encoding: 52 83
OldEncoding: 83
Width: 892
Flags: W
Fore
60 307 m 1
 180 318 l 1
 198 170.667 292 97 462 97 c 0
 524 97 576.333 108.333 619 131 c 0
 673 159.667 700 202.667 700 260 c 0
 700 323.333 663.333 368.333 590 395 c 0
 555.333 407 494.667 423 408 443 c 0
 272 474.333 182 519.333 138 578 c 0
 110.667 614.667 97 658.667 97 710 c 0
 97 818.667 149.667 895.333 255 940 c 0
 307.667 962 367 973 433 973 c 0
 534.333 973 616.333 951 679 907 c 0
 750.333 857.667 788.333 784.333 793 687 c 1
 672 678 l 1
 658.667 800.667 581 862 439 862 c 0
 292.333 862 219 814 219 718 c 0
 219 662 251.333 622.667 316 600 c 0
 343.333 590 387 578.333 447 565 c 0
 525 547 578.667 533 608 523 c 0
 670.667 502.333 718.667 475.667 752 443 c 0
 798.667 397 822 339.333 822 270 c 0
 822 178 785 105.667 711 53 c 0
 645 7 564 -16 468 -16 c 0
 352 -16 258.667 8.33333 188 57 c 0
 107.333 113 64.6667 196.333 60 307 c 1
EndSplineSet
EndChar
StartChar: T
Encoding: 53 84
OldEncoding: 84
Width: 817
Flags: W
Fore
347 0 m 1
 347 844 l 1
 31 844 l 1
 31 957 l 1
 790 957 l 1
 790 844 l 1
 473 844 l 1
 473 0 l 1
 347 0 l 1
EndSplineSet
EndChar
StartChar: U
Encoding: 54 85
OldEncoding: 85
Width: 965
Flags: W
Fore
731 957 m 1
 858 957 l 1
 858 404 l 2
 858 248 825 138 759 74 c 0
 697 14 605.333 -16 484 -16 c 0
 344.667 -16 245.333 19.6667 186 91 c 0
 132 156.333 105 260.667 105 404 c 2
 105 957 l 1
 232 957 l 1
 232 405 l 2
 232 284.333 253 202.667 295 160 c 0
 335 118.667 394.333 98 473 98 c 0
 587 98 662.667 134 700 206 c 0
 720.667 246 731 312.333 731 405 c 2
 731 957 l 1
EndSplineSet
EndChar
StartChar: V
Encoding: 55 86
OldEncoding: 86
Width: 892
Flags: W
Fore
377 0 m 1
 6 957 l 1
 143 957 l 1
 392 262 l 1
 410 210.667 426.667 158.333 442 105 c 1
 453.333 147.667 470.667 200 494 262 c 2
 752 957 l 1
 881 957 l 1
 507 0 l 1
 377 0 l 1
EndSplineSet
EndChar
StartChar: W
Encoding: 56 87
OldEncoding: 87
Width: 1262
Flags: W
Fore
270 0 m 1
 16 957 l 1
 146 957 l 1
 292 330 l 1
 308 262.667 321.333 197.333 332 134 c 1
 375 311 l 1
 557 957 l 1
 710 957 l 1
 847 473 l 2
 883 346.333 908 233.333 922 134 c 1
 934.667 196.667 950.333 266 969 342 c 2
 1120 957 l 1
 1247 957 l 1
 984 0 l 1
 862 0 l 1
 631 841 l 1
 626.333 819.667 617 782.333 603 729 c 1
 400 0 l 1
 270 0 l 1
EndSplineSet
EndChar
StartChar: X
Encoding: 57 88
OldEncoding: 88
Width: 892
Flags: W
Fore
6 0 m 1
 376 499 l 1
 50 957 l 1
 200 957 l 1
 374 712 l 2
 410 661.333 435.667 622 451 594 c 1
 467 620.667 492.333 657 527 703 c 2
 719 957 l 1
 857 957 l 1
 521 506 l 1
 883 0 l 1
 727 0 l 1
 486 341 l 2
 474.667 357 460.667 378.333 444 405 c 1
 427.333 377 412 353.333 398 334 c 2
 158 0 l 1
 6 0 l 1
EndSplineSet
EndChar
StartChar: Y
Encoding: 58 89
OldEncoding: 89
Width: 892
Flags: W
Fore
373 0 m 1
 373 405 l 1
 4 957 l 1
 158 957 l 1
 347 668 l 2
 379 618.667 411.333 565 444 507 c 1
 482.667 573.667 517.333 630 548 676 c 2
 734 957 l 1
 881 957 l 1
 499 405 l 1
 499 0 l 1
 373 0 l 1
EndSplineSet
EndChar
StartChar: Z
Encoding: 59 90
OldEncoding: 90
Width: 817
Flags: W
Fore
27 0 m 1
 27 118 l 1
 517 730 l 2
 554.333 776.667 587.333 814.667 616 844 c 1
 82 844 l 1
 82 957 l 1
 768 957 l 1
 768 844 l 1
 172 113 l 1
 783 113 l 1
 783 0 l 1
 27 0 l 1
EndSplineSet
EndChar
StartChar: bracketleft
Encoding: 60 91
OldEncoding: 91
Width: 371
Flags: W
Fore
91 -266 m 1
 91 957 l 1
 350 957 l 1
 350 860 l 1
 208 860 l 1
 208 -168 l 1
 350 -168 l 1
 350 -266 l 1
 91 -266 l 1
EndSplineSet
EndChar
StartChar: backslash
Encoding: 61 92
OldEncoding: 92
Width: 371
Flags: W
Fore
277 -16 m 1
 0 973 l 1
 95 973 l 1
 371 -16 l 1
 277 -16 l 1
EndSplineSet
EndChar
StartChar: bracketright
Encoding: 62 93
OldEncoding: 93
Width: 371
Flags: W
Fore
285 -266 m 1
 25 -266 l 1
 25 -168 l 1
 167 -168 l 1
 167 860 l 1
 25 860 l 1
 25 957 l 1
 285 957 l 1
 285 -266 l 1
EndSplineSet
EndChar
StartChar: asciicircum
Encoding: 63 94
OldEncoding: 94
Width: 627
Flags: W
Fore
156 450 m 1
 35 450 l 1
 266 973 l 1
 360 973 l 1
 592 450 l 1
 474 450 l 1
 313 840 l 1
 156 450 l 1
EndSplineSet
EndChar
StartChar: underscore
Encoding: 64 95
OldEncoding: 95
Width: 744
Flags: W
Fore
-20 -266 m 1
 -20 -181 l 1
 759 -181 l 1
 759 -266 l 1
 -20 -266 l 1
EndSplineSet
EndChar
StartChar: grave
Encoding: 65 96
OldEncoding: 96
Width: 445
Flags: W
Fore
304 779 m 1
 209 779 l 1
 58 962 l 1
 215 962 l 1
 304 779 l 1
EndSplineSet
EndChar
StartChar: a
Encoding: 66 97
OldEncoding: 97
Width: 744
Flags: W
Fore
541 86 m 1
 461 18 375.667 -16 285 -16 c 0
 217.667 -16 162.667 0 120 32 c 0
 72 67.3333 48 117.667 48 183 c 0
 48 255.667 81 312.333 147 353 c 0
 182.333 374.333 240.333 390 321 400 c 0
 417.667 412 487.667 425.333 531 440 c 1
 531 471 l 2
 531 565 475.333 612 364 612 c 0
 311.333 612 271.333 602.5 244 583.5 c 0
 216.667 564.5 196.333 530 183 480 c 1
 69 495 l 1
 99 637.667 203 709 381 709 c 0
 480.333 709 552.333 687.667 597 645 c 0
 632.333 611 650 545 650 447 c 2
 650 142 l 2
 650 92 662.333 44.6667 687 0 c 1
 564 0 l 1
 552 24.6667 544.333 53.3333 541 86 c 1
531 348 m 1
 489 331.333 425 316.667 339 304 c 0
 229 288 174 248.667 174 186 c 0
 174 112.667 220.333 76 313 76 c 0
 379.667 76 431.667 93 469 127 c 0
 510.333 165 531 224.333 531 305 c 2
 531 348 l 1
EndSplineSet
EndChar
StartChar: b
Encoding: 67 98
OldEncoding: 98
Width: 744
Flags: W
Fore
196 0 m 1
 87 0 l 1
 87 957 l 1
 205 957 l 1
 205 616 l 1
 254.333 678 317.667 709 395 709 c 0
 513.667 709 599.333 654 652 544 c 0
 676.667 491.333 689 429 689 357 c 0
 689 255.667 665 170.333 617 101 c 0
 562.333 23 486.333 -16 389 -16 c 0
 307 -16 242.667 18.3333 196 87 c 1
 196 0 l 1
195 352 m 0
 195 232 224.333 151.667 283 111 c 0
 311.667 91 343.667 81 379 81 c 0
 443.667 81 493 110.667 527 170 c 0
 555 218.667 569 277.667 569 347 c 0
 569 457.667 540.333 535.667 483 581 c 0
 455.667 601.667 423 612 385 612 c 0
 321 612 272 583.333 238 526 c 0
 209.333 478.667 195 420.667 195 352 c 0
EndSplineSet
EndChar
StartChar: c
Encoding: 68 99
OldEncoding: 99
Width: 668
Flags: W
Fore
541 254 m 1
 656 239 l 1
 644 161 612.5 99 561.5 53 c 0
 510.5 7 446 -16 368 -16 c 0
 264 -16 184.333 18.6667 129 88 c 0
 77.6667 152 52 237.333 52 344 c 0
 52 504 102 611.667 202 667 c 0
 252.667 695 308 709 368 709 c 0
 524.667 709 617 636 645 490 c 1
 531 472 l 1
 509 565.333 456.333 612 373 612 c 0
 239.667 612 173 523.667 173 347 c 0
 173 169.667 237.333 81 366 81 c 0
 466 81 524.333 138.667 541 254 c 1
EndSplineSet
EndChar
StartChar: d
Encoding: 69 100
OldEncoding: 100
Width: 744
Flags: W
Fore
538 0 m 1
 538 87 l 1
 494 18.3333 429.333 -16 344 -16 c 0
 248.667 -16 173.667 21.6667 119 97 c 0
 70.3333 163.667 46 246.667 46 346 c 0
 46 497.333 92 604 184 666 c 0
 226.667 694.667 278.333 709 339 709 c 0
 420.333 709 484 677.333 530 614 c 1
 530 957 l 1
 647 957 l 1
 647 0 l 1
 538 0 l 1
166 346 m 0
 166 237.333 195.333 160.333 254 115 c 0
 282 92.3333 315.667 81 355 81 c 0
 419 81 467.333 109 500 165 c 0
 526.667 210.333 540 267.333 540 336 c 0
 540 410.667 527 472 501 520 c 0
 468.333 581.333 418 612 350 612 c 0
 227.333 612 166 523.333 166 346 c 0
EndSplineSet
EndChar
StartChar: e
Encoding: 70 101
OldEncoding: 101
Width: 744
Flags: W
Fore
563 223 m 1
 684 208 l 1
 644 58.6667 542.333 -16 379 -16 c 0
 239.667 -16 143 39 89 149 c 0
 62.3333 201.667 49 265.667 49 341 c 0
 49 448.333 75.6667 535.333 129 602 c 0
 187 673.333 268.333 709 373 709 c 0
 461 709 532 682.667 586 630 c 0
 615.333 601.333 638.333 567.833 655 529.5 c 0
 671.667 491.167 682 446.667 686 396 c 0
 686.667 388 687 361.667 687 317 c 1
 170 317 l 1
 174 249 192.667 194 226 152 c 0
 263.333 104.667 314.667 81 380 81 c 0
 468 81 529 128.333 563 223 c 1
177 413 m 1
 564 413 l 1
 553.333 545.667 490 612 374 612 c 0
 316.667 612 270 592.667 234 554 c 0
 200 518 181 471 177 413 c 1
EndSplineSet
EndChar
StartChar: f
Encoding: 71 102
OldEncoding: 102
Width: 371
Flags: W
Fore
116 0 m 1
 116 602 l 1
 12 602 l 1
 12 693 l 1
 116 693 l 1
 116 767 l 2
 116 841 131.833 893.833 163.5 925.5 c 0
 195.167 957.167 243.333 973 308 973 c 0
 341.333 973 378 969.333 418 962 c 1
 400 859 l 1
 376 863.667 353 866 331 866 c 0
 293 866 267.167 857.667 253.5 841 c 0
 239.833 824.333 233 796.333 233 757 c 2
 233 693 l 1
 368 693 l 1
 368 602 l 1
 233 602 l 1
 233 0 l 1
 116 0 l 1
EndSplineSet
EndChar
StartChar: g
Encoding: 72 103
OldEncoding: 103
Width: 744
Flags: W
Fore
67 -57 m 1
 181 -74 l 1
 191 -147.333 244 -184 340 -184 c 0
 411.333 -184 463 -164.333 495 -125 c 0
 521.667 -91 535 -19 535 91 c 1
 483.667 30.3333 419.667 -1.73472e-18 343 0 c 0
 247 0 171.667 36 117 108 c 0
 67.6667 172 43 253 43 351 c 0
 43 452.333 67 535.333 115 600 c 0
 169 672.667 245 709 343 709 c 0
 425 709 492.667 676 546 610 c 1
 546 693 l 1
 654 693 l 1
 654 94 l 2
 654 -48.6667 628.167 -146.833 576.5 -200.5 c 0
 524.833 -254.167 446.333 -281 341 -281 c 0
 260.333 -281 196 -264.333 148 -231 c 0
 92 -192.333 65 -134.333 67 -57 c 1
164 359 m 0
 164 184.333 227.333 97 354 97 c 0
 420.667 97 470.333 124.667 503 180 c 0
 530.333 225.333 544 283.667 544 355 c 0
 544 424.333 529.667 482.333 501 529 c 0
 467 584.333 417.333 612 352 612 c 0
 288 612 239.333 584.667 206 530 c 0
 178 484 164 427 164 359 c 0
EndSplineSet
EndChar
StartChar: h
Encoding: 73 104
OldEncoding: 104
Width: 744
Flags: W
Fore
88 0 m 1
 88 957 l 1
 206 957 l 1
 206 614 l 1
 260.667 677.333 329.667 709 413 709 c 0
 533.667 709 607.667 666 635 580 c 0
 647 540.667 653 493.667 653 439 c 2
 653 0 l 1
 535 0 l 1
 535 439 l 2
 535 551.667 486.333 608 389 608 c 0
 299.667 608 243.667 571 221 497 c 0
 211 464.333 206 425 206 379 c 2
 206 0 l 1
 88 0 l 1
EndSplineSet
EndChar
StartChar: i
Encoding: 74 105
OldEncoding: 105
Width: 297
Flags: W
Fore
89 822 m 1
 89 957 l 1
 206 957 l 1
 206 822 l 1
 89 822 l 1
89 0 m 1
 89 693 l 1
 206 693 l 1
 206 0 l 1
 89 0 l 1
EndSplineSet
EndChar
StartChar: j
Encoding: 75 106
OldEncoding: 106
Width: 297
Flags: W
Fore
87 821 m 1
 87 957 l 1
 205 957 l 1
 205 821 l 1
 87 821 l 1
-61 -269 m 1
 -39 -169 l 1
 -15.6667 -175 2.66667 -178 16 -178 c 0
 54.6667 -178 77 -157.667 83 -117 c 0
 85.6667 -99 87 -71.6667 87 -35 c 2
 87 693 l 1
 205 693 l 1
 205 -38 l 2
 205 -150 182 -222 136 -254 c 0
 108.667 -272 73.6667 -281 31 -281 c 0
 -1 -281 -31.6667 -277 -61 -269 c 1
EndSplineSet
EndChar
StartChar: k
Encoding: 76 107
OldEncoding: 107
Width: 668
Flags: W
Fore
89 0 m 1
 89 957 l 1
 206 957 l 1
 206 411 l 1
 484 693 l 1
 636 693 l 1
 371 436 l 1
 663 0 l 1
 518 0 l 1
 289 354 l 1
 206 275 l 1
 206 0 l 1
 89 0 l 1
EndSplineSet
EndChar
StartChar: l
Encoding: 77 108
OldEncoding: 108
Width: 297
Flags: W
Fore
86 0 m 1
 86 957 l 1
 203 957 l 1
 203 0 l 1
 86 0 l 1
EndSplineSet
EndChar
StartChar: m
Encoding: 78 109
OldEncoding: 109
Width: 1114
Flags: W
Fore
88 0 m 1
 88 693 l 1
 193 693 l 1
 193 596 l 1
 241.667 671.333 311.667 709 403 709 c 0
 505 709 570.333 668.667 599 588 c 1
 654.333 668.667 725.667 709 813 709 c 0
 956.333 709 1028 631.333 1028 476 c 2
 1028 0 l 1
 911 0 l 1
 911 437 l 2
 911 550.333 869.667 607 787 607 c 0
 674.333 607 618 539 618 403 c 2
 618 0 l 1
 500 0 l 1
 500 450 l 2
 500 554.667 459 607 377 607 c 0
 301 607 250.333 573 225 505 c 0
 212.333 471 206 422.667 206 360 c 2
 206 0 l 1
 88 0 l 1
EndSplineSet
EndChar
StartChar: n
Encoding: 79 110
OldEncoding: 110
Width: 744
Flags: W
Fore
88 0 m 1
 88 693 l 1
 194 693 l 1
 194 595 l 1
 244.667 671 318.333 709 415 709 c 0
 572.333 709 651 625 651 457 c 2
 651 0 l 1
 534 0 l 1
 534 422 l 2
 534 545.333 486 607 390 607 c 0
 267.333 607 206 531 206 379 c 2
 206 0 l 1
 88 0 l 1
EndSplineSet
EndChar
StartChar: o
Encoding: 80 111
OldEncoding: 111
Width: 744
Flags: W
Fore
44 347 m 0
 44 455 70.6667 541 124 605 c 0
 182 674.333 263.667 709 369 709 c 0
 494.333 709 587 658 647 556 c 0
 678.333 502.667 694 436 694 356 c 0
 694 246 667.667 158 615 92 c 0
 557.667 20 475.667 -16 369 -16 c 0
 233 -16 138 40 84 152 c 0
 57.3333 206 44 271 44 347 c 0
165 347 m 0
 165 233.667 197 155.333 261 112 c 0
 290.333 91.3333 326.333 81 369 81 c 0
 440.333 81 493.667 109.333 529 166 c 0
 558.333 213.333 573 275 573 351 c 0
 573 423.667 557.667 483.333 527 530 c 0
 491 584.667 438.333 612 369 612 c 0
 299 612 246 584.333 210 529 c 0
 180 482.333 165 421.667 165 347 c 0
EndSplineSet
EndChar
StartChar: p
Encoding: 81 112
OldEncoding: 112
Width: 744
Flags: W
Fore
88 -266 m 1
 88 693 l 1
 195 693 l 1
 195 603 l 1
 245.667 673.667 312.667 709 396 709 c 0
 492.667 709 567.333 672.667 620 600 c 0
 666.667 535.333 690 452.667 690 352 c 0
 690 251.333 665.333 167 616 99 c 0
 561.333 22.3333 485.333 -16 388 -16 c 0
 312.667 -16 252 13.3333 206 72 c 1
 206 -266 l 1
 88 -266 l 1
195 343 m 0
 195 233 223.333 156.333 280 113 c 0
 307.333 91.6667 340.667 81 380 81 c 0
 446.667 81 496.667 111.333 530 172 c 0
 556.667 220 570 280.333 570 353 c 0
 570 421.667 556.667 480 530 528 c 0
 496.667 587.333 448.333 617 385 617 c 0
 321 617 271.667 586 237 524 c 0
 209 473.333 195 413 195 343 c 0
EndSplineSet
EndChar
StartChar: q
Encoding: 82 113
OldEncoding: 113
Width: 744
Flags: W
Fore
530 -266 m 1
 530 74 l 1
 487.333 14 427 -16 349 -16 c 0
 258.333 -16 185.333 19.6667 130 91 c 0
 74.6667 162.333 47 249.667 47 353 c 0
 47 453 70 535.333 116 600 c 0
 168 672.667 242.333 709 339 709 c 0
 425 709 492.667 673 542 601 c 1
 542 693 l 1
 648 693 l 1
 648 -266 l 1
 530 -266 l 1
168 349 m 0
 168 238.333 197.333 160.333 256 115 c 0
 284.667 92.3333 318.667 81 358 81 c 0
 421.333 81 469.333 109.333 502 166 c 0
 528.667 212 542 269.333 542 338 c 0
 542 410 528.333 471 501 521 c 0
 467 584.333 417 616 351 616 c 0
 285.667 616 237.333 586.333 206 527 c 0
 180.667 479.667 168 420.333 168 349 c 0
EndSplineSet
EndChar
StartChar: r
Encoding: 83 114
OldEncoding: 114
Width: 445
Flags: W
Fore
87 0 m 1
 87 693 l 1
 193 693 l 1
 193 588 l 1
 237 668.667 287 709 343 709 c 0
 382.333 709 422.333 696.333 463 671 c 1
 423 562 l 1
 394.333 579.333 365.667 588 337 588 c 0
 276.333 588 237 552.333 219 481 c 0
 209 443 204 403.667 204 363 c 2
 204 0 l 1
 87 0 l 1
EndSplineSet
EndChar
StartChar: s
Encoding: 84 115
OldEncoding: 115
Width: 668
Flags: W
Fore
41 207 m 1
 157 225 l 1
 171 129 231 81 337 81 c 0
 443 81 496 117.667 496 191 c 0
 496 223.667 477.333 248.667 440 266 c 0
 428.667 270.667 395.667 280 341 294 c 0
 280.333 309.333 245.333 318.333 236 321 c 0
 194.667 333.667 162 348.667 138 366 c 0
 86.6667 402 61 449.667 61 509 c 0
 61 583.667 97 640.333 169 679 c 0
 207 699 256 709 316 709 c 0
 427.333 709 504.333 681.333 547 626 c 0
 568.333 598 583 560.667 591 514 c 1
 476 499 l 1
 464.667 574.333 414 612 324 612 c 0
 224 612 174 582.333 174 523 c 0
 174 489.667 190.667 466.667 224 454 c 0
 240.667 447.333 278.333 436 337 420 c 0
 379 408.667 421 397.333 463 386 c 1
 511.667 369.333 548.667 347.667 574 321 c 0
 602.667 289 617 250 617 204 c 0
 617 132 587.333 76 528 36 c 0
 476 1.33333 412.333 -16 337 -16 c 0
 166.333 -16 67.6667 58.3333 41 207 c 1
EndSplineSet
EndChar
StartChar: t
Encoding: 85 116
OldEncoding: 116
Width: 371
Flags: W
Fore
345 105 m 1
 362 1 l 1
 328.667 -5.66667 299 -9 273 -9 c 0
 199 -9 150.667 13 128 57 c 0
 116 79 110 127.667 110 203 c 2
 110 602 l 1
 24 602 l 1
 24 693 l 1
 110 693 l 1
 110 865 l 1
 227 935 l 1
 227 693 l 1
 345 693 l 1
 345 602 l 1
 227 602 l 1
 227 196 l 2
 227 146.667 236 117.667 254 109 c 0
 264 103.667 277 101 293 101 c 0
 306.333 101 323.667 102.333 345 105 c 1
EndSplineSet
EndChar
StartChar: u
Encoding: 86 117
OldEncoding: 117
Width: 744
Flags: W
Fore
542 0 m 1
 542 102 l 1
 488.667 23.3333 415.333 -16 322 -16 c 0
 236.667 -16 174.667 8 136 56 c 0
 102.667 97.3333 86 166.667 86 264 c 2
 86 693 l 1
 203 693 l 1
 203 309 l 2
 203 218.333 213.333 159.667 234 133 c 0
 257.333 101.667 294.667 86 346 86 c 0
 438 86 494.667 123.667 516 199 c 0
 525.333 232.333 530 273.333 530 322 c 2
 530 693 l 1
 648 693 l 1
 648 0 l 1
 542 0 l 1
EndSplineSet
EndChar
StartChar: v
Encoding: 87 118
OldEncoding: 118
Width: 668
Flags: W
Fore
281 0 m 1
 17 693 l 1
 141 693 l 1
 290 278 l 2
 306 234 320.667 187.333 334 138 c 1
 344.667 174.667 359.333 218.667 378 270 c 2
 532 693 l 1
 653 693 l 1
 390 0 l 1
 281 0 l 1
EndSplineSet
EndChar
StartChar: w
Encoding: 88 119
OldEncoding: 119
Width: 965
Flags: W
Fore
216 0 m 1
 4 693 l 1
 125 693 l 1
 277 144 l 1
 283 173.333 295 221 313 287 c 2
 423 693 l 1
 544 693 l 1
 682 159 l 1
 841 693 l 1
 955 693 l 1
 738 0 l 1
 616 0 l 1
 479 533 l 1
 339 0 l 1
 216 0 l 1
EndSplineSet
EndChar
StartChar: x
Encoding: 89 120
OldEncoding: 120
Width: 668
Flags: W
Fore
10 0 m 1
 263 360 l 1
 29 693 l 1
 176 693 l 1
 282 531 l 2
 300 503.667 316 477.667 330 453 c 1
 341.333 470.333 359 495.667 383 529 c 2
 500 693 l 1
 640 693 l 1
 401 367 l 1
 659 0 l 1
 514 0 l 1
 334 274 l 1
 152 0 l 1
 10 0 l 1
EndSplineSet
EndChar
StartChar: y
Encoding: 90 121
OldEncoding: 121
Width: 668
Flags: W
Fore
83 -267 m 1
 70 -157 l 1
 95.3333 -163.667 117.667 -167 137 -167 c 0
 189.667 -167 225 -148 243 -110 c 0
 250.333 -93.3333 263.333 -59 282 -7 c 1
 285 -1 l 1
 22 693 l 1
 148 693 l 1
 292 292 l 2
 312.667 234 329.667 180.333 343 131 c 1
 355.667 183.667 371.667 236.333 391 289 c 2
 539 693 l 1
 657 693 l 1
 393 -12 l 2
 367.667 -80 350.667 -123 342 -141 c 0
 318 -191 291.167 -226.833 261.5 -248.5 c 0
 231.833 -270.167 197.667 -281 159 -281 c 0
 136.333 -281 111 -276.333 83 -267 c 1
EndSplineSet
EndChar
StartChar: z
Encoding: 91 122
OldEncoding: 122
Width: 668
Flags: W
Fore
26 0 m 1
 26 95 l 1
 467 602 l 1
 417 599.333 373 598 335 598 c 2
 52 598 l 1
 52 693 l 1
 619 693 l 1
 619 616 l 1
 171 95 l 1
 223.667 99 273 101 319 101 c 2
 640 101 l 1
 640 0 l 1
 26 0 l 1
EndSplineSet
EndChar
StartChar: braceleft
Encoding: 92 123
OldEncoding: 123
Width: 447
Flags: W
Fore
37 400 m 1
 104.333 401.333 145.667 433 161 495 c 0
 169 528.333 172.667 595.667 172 697 c 0
 171.333 785 180 847.333 198 884 c 0
 220 930 253 957.667 297 967 c 0
 315.667 971 343 973 379 973 c 2
 415 973 l 1
 415 871 l 1
 395 871 l 2
 346.333 871 314.667 860.667 300 840 c 0
 288.667 823.333 283 789 283 737 c 0
 283 641.667 282.667 588.667 282 578 c 0
 277.333 514 263.333 463.667 240 427 c 0
 218 393 186.667 366 146 346 c 1
 237.333 310 283 212 283 52 c 0
 283 -60 287.667 -125 297 -143 c 0
 310.333 -167 343 -179 395 -179 c 2
 415 -179 l 1
 415 -281 l 1
 379 -281 l 2
 316.333 -281 270 -269.333 240 -246 c 0
 206 -219.333 186.333 -183 181 -137 c 1
 175 78 l 1
 171 218.667 125 290.333 37 293 c 1
 37 400 l 1
EndSplineSet
EndChar
StartChar: bar
Encoding: 93 124
OldEncoding: 124
Width: 347
Flags: W
Fore
123 -281 m 1
 123 973 l 1
 225 973 l 1
 225 -281 l 1
 123 -281 l 1
EndSplineSet
EndChar
StartChar: braceright
Encoding: 94 125
OldEncoding: 125
Width: 447
Flags: W
Fore
409 400 m 1
 409 293 l 1
 348.333 291.667 308.333 263.667 289 209 c 0
 278.333 178.333 273 124.667 273 48 c 0
 273 -73.3333 265.333 -151.333 250 -186 c 0
 228 -234 194 -263.333 148 -274 c 0
 128 -278.667 101 -281 67 -281 c 2
 31 -281 l 1
 31 -179 l 1
 51 -179 l 2
 99.6667 -179 131.333 -168.333 146 -147 c 0
 157.333 -130.333 163 -96 163 -44 c 0
 163 56.6667 163.333 110.333 164 117 c 0
 168 181.667 182 232.333 206 269 c 0
 228 303 259.333 328.667 300 346 c 1
 224 382 181 441 171 523 c 0
 165.667 565.667 162 655.667 160 793 c 1
 156 825 144.667 846.667 126 858 c 0
 112 866.667 87 871 51 871 c 2
 31 871 l 1
 31 973 l 1
 67 973 l 2
 141.667 973 194.5 955.5 225.5 920.5 c 0
 256.5 885.5 272 808.333 272 689 c 0
 272 551 288 465.667 320 433 c 0
 340 411.667 369.667 400.667 409 400 c 1
EndSplineSet
EndChar
StartChar: asciitilde
Encoding: 95 126
OldEncoding: 126
Width: 781
Flags: W
Fore
57 364 m 1
 57 497 l 1
 103 549.667 163.333 576 238 576 c 0
 285.333 576 353.667 557 443 519 c 0
 491.667 498.333 529.333 488 556 488 c 0
 614 488 670.333 518 725 578 c 1
 725 439 l 1
 671.667 389.667 611.333 365 544 365 c 0
 498 365 435.333 382.667 356 418 c 0
 305.333 440.667 262.333 452 227 452 c 0
 175 452 118.333 422.667 57 364 c 1
EndSplineSet
EndChar
StartChar: exclamdown
Encoding: 96 161
OldEncoding: 161
Width: 445
Flags: W
Fore
290 693 m 1
 290 559 l 1
 155 559 l 1
 155 693 l 1
 290 693 l 1
260 455 m 1
 296 -52 l 1
 296 -264 l 1
 150 -264 l 1
 150 -52 l 1
 184 455 l 1
 260 455 l 1
EndSplineSet
EndChar
StartChar: cent
Encoding: 97 162
OldEncoding: 162
Width: 743
Flags: W
Fore
486 584 m 1
 341 84 l 1
 355 80 368.333 78 381 78 c 0
 481 78 540 136.667 558 254 c 1
 675 241 l 1
 661.667 163.667 629.333 101.667 578 55 c 0
 524.667 6.33333 459.333 -18 382 -18 c 0
 357.333 -18 335 -15 315 -9 c 1
 238 -267 l 1
 165 -246 l 1
 240 14 l 1
 126.667 72 70 181.667 70 343 c 0
 70 447.667 94.3333 533 143 599 c 0
 197.667 672.333 275.667 709 377 709 c 0
 396.333 709 418.333 707.333 443 704 c 1
 516 957 l 1
 588 936 l 1
 515 683 l 1
 595 651 644 586.667 662 490 c 1
 548 472 l 1
 537.333 519.333 516.667 556.667 486 584 c 1
416 614 m 1
 384 615 l 2
 255.333 619 191 530.333 191 349 c 0
 191 233.667 217.667 156 271 116 c 1
 416 614 l 1
EndSplineSet
EndChar
StartChar: sterling
Encoding: 98 163
OldEncoding: 163
Width: 743
Flags: W
Fore
258 528 m 1
 464 528 l 1
 464 431 l 1
 279 431 l 1
 287 413 291 394 291 374 c 0
 291 290 252.333 207 175 125 c 1
 210.333 134.333 241.667 139 269 139 c 0
 306.333 139 347 133.667 391 123 c 0
 465.667 105 516.333 96 543 96 c 0
 575 96 616.667 108 668 132 c 1
 706 25 l 1
 640.667 -2.33333 588 -16 548 -16 c 0
 522.667 -16 504 -14.3333 492 -11 c 2
 407 12 l 1
 321 37 l 1
 297.667 40.3333 277.333 42 260 42 c 0
 190.667 42 125 22 63 -18 c 1
 18 95 l 1
 118 152.333 168 237.333 168 350 c 0
 168 373.333 164.333 400.333 157 431 c 1
 29 431 l 1
 29 528 l 1
 129 528 l 1
 107 600 96 657.333 96 700 c 0
 96 784 124.667 851 182 901 c 0
 236.667 949 306.667 973 392 973 c 0
 559.333 973 655.667 890.667 681 726 c 1
 565 708 l 1
 547.667 820.667 489.333 877 390 877 c 0
 344 877 304.333 861.833 271 831.5 c 0
 237.667 801.167 221 763 221 717 c 0
 221 671 233.333 608 258 528 c 1
EndSplineSet
EndChar
StartChar: currency
Encoding: 99 164
OldEncoding: 164
Width: 743
Flags: W
Fore
139 627 m 1
 48 716 l 1
 123 794 l 1
 214 703 l 1
 260.667 734.333 312.333 750 369 750 c 0
 426.333 750 477.667 734.333 523 703 c 1
 614 794 l 1
 690 716 l 1
 599 627 l 1
 630.333 579.667 646 528.667 646 474 c 0
 646 418.667 630.333 367.333 599 320 c 1
 690 231 l 1
 614 153 l 1
 523 245 l 1
 477.667 213 426.333 197 369 197 c 0
 311.667 197 260 213 214 245 c 1
 123 153 l 1
 48 231 l 1
 139 320 l 1
 108.333 366.667 93 418 93 474 c 0
 93 528.667 108.333 579.667 139 627 c 1
199 474 m 0
 199 426 215.167 385.667 247.5 353 c 0
 279.833 320.333 320 304 368 304 c 0
 416 304 456.167 320.333 488.5 353 c 0
 520.833 385.667 537 426 537 474 c 0
 537 521.333 520.5 561.333 487.5 594 c 0
 454.5 626.667 414.667 643 368 643 c 0
 320.667 643 280.667 626.667 248 594 c 0
 215.333 561.333 199 521.333 199 474 c 0
EndSplineSet
EndChar
StartChar: yen
Encoding: 100 165
OldEncoding: 165
Width: 743
Flags: W
Fore
311 0 m 1
 311 212 l 1
 40 212 l 1
 40 303 l 1
 311 303 l 1
 311 396 l 1
 40 396 l 1
 40 493 l 1
 263 493 l 1
 -2 957 l 1
 129 957 l 1
 318 620 l 2
 334.667 590 351 556.667 367 520 c 1
 379.667 548 397.667 583.333 421 626 c 2
 600 957 l 1
 740 957 l 1
 475 493 l 1
 698 493 l 1
 698 396 l 1
 429 396 l 1
 429 303 l 1
 698 303 l 1
 698 212 l 1
 429 212 l 1
 429 0 l 1
 311 0 l 1
EndSplineSet
EndChar
StartChar: brokenbar
Encoding: 101 166
OldEncoding: 166
Width: 347
Flags: W
Fore
225 973 m 1
 225 458 l 1
 123 458 l 1
 123 973 l 1
 225 973 l 1
225 235 m 1
 225 -281 l 1
 123 -281 l 1
 123 235 l 1
 225 235 l 1
EndSplineSet
EndChar
StartChar: section
Encoding: 102 167
OldEncoding: 167
Width: 743
Flags: W
Fore
93 -46 m 1
 211 -29 l 1
 231 -131 286.667 -182 378 -182 c 0
 415.333 -182 447.333 -172.667 474 -154 c 0
 504.667 -132.667 520 -104.333 520 -69 c 0
 520 -31 486.333 12.6667 419 62 c 0
 407 70.6667 358.667 101 274 153 c 0
 204.667 195.667 155.333 231.333 126 260 c 0
 77.3333 308.667 53 362 53 420 c 0
 53 514 102 575.667 200 605 c 1
 144 657 116 711 116 767 c 0
 116 829.667 140.667 880.333 190 919 c 0
 234.667 955 289.333 973 354 973 c 0
 515.333 973 606.333 897.667 627 747 c 1
 505 734 l 1
 489.667 829.333 442.667 877 364 877 c 0
 331.333 877 301.667 868.333 275 851 c 0
 245 830.333 230 804.333 230 773 c 0
 230 736.333 260 695.667 320 651 c 0
 330 643 374.667 615 454 567 c 0
 529.333 521 580 486 606 462 c 0
 656.667 414 682 361 682 303 c 0
 682 220.333 632.667 158 534 116 c 1
 603.333 64 638 3 638 -67 c 0
 638 -134.333 611 -188 557 -228 c 0
 508.333 -263.333 449 -281 379 -281 c 0
 213.667 -281 118.333 -202.667 93 -46 c 1
475 159 m 1
 539 193 571 233.667 571 281 c 0
 571 333.667 510.667 396.667 390 470 c 0
 336 502.667 291.667 532.667 257 560 c 1
 191.667 523.333 159 481 159 433 c 0
 159 380.333 214 321.333 324 256 c 0
 394 214.667 444.333 182.333 475 159 c 1
EndSplineSet
EndChar
StartChar: dieresis
Encoding: 103 168
OldEncoding: 168
Width: 445
Flags: W
Fore
40 829 m 1
 40 963 l 1
 163 963 l 1
 163 829 l 1
 40 829 l 1
283 829 m 1
 283 963 l 1
 406 963 l 1
 406 829 l 1
 283 829 l 1
EndSplineSet
EndChar
StartChar: copyright
Encoding: 104 169
OldEncoding: 169
Width: 985
Flags: W
Fore
495 973 m 0
 633.667 973 750.333 925.5 845 830.5 c 0
 939.667 735.5 987 618.667 987 480 c 0
 987 343.333 939.167 227.167 843.5 131.5 c 0
 747.833 35.8333 631.667 -12 495 -12 c 0
 357.667 -12 241.167 35.6667 145.5 131 c 0
 49.8333 226.333 2 342.667 2 480 c 0
 2 619.333 49.3333 736.333 144 831 c 0
 238.667 925.667 355.667 973 495 973 c 0
495 892 m 0
 380.333 892 283.167 852 203.5 772 c 0
 123.833 692 84 594.667 84 480 c 0
 84 364.667 123.667 267.5 203 188.5 c 0
 282.333 109.5 379.667 70 495 70 c 0
 610.333 70 707.5 109.5 786.5 188.5 c 0
 865.5 267.5 905 364.667 905 480 c 0
 905 593.333 865 690.333 785 771 c 0
 705 851.667 608.333 892 495 892 c 0
653 401 m 1
 733 377 l 1
 701 257.667 621.667 198 495 198 c 0
 413 198 349 224.667 303 278 c 0
 259 328.667 237 395.667 237 479 c 0
 237 563.667 260.167 631.167 306.5 681.5 c 0
 352.833 731.833 417.667 757 501 757 c 0
 616.333 757 690.333 705.667 723 603 c 1
 646 584 l 1
 617.333 650.667 568 684 498 684 c 0
 441.333 684 397.667 663 367 621 c 0
 339.667 583.667 326 535.667 326 477 c 0
 326 342.333 381 275 491 275 c 0
 576.333 275 630.333 317 653 401 c 1
EndSplineSet
EndChar
StartChar: ordfeminine
Encoding: 105 170
OldEncoding: 170
Width: 495
Flags: W
Fore
358 557 m 1
 305.333 510.333 249.667 487 191 487 c 0
 84.3333 487 31 534.667 31 630 c 0
 31 692 62.3333 734 125 756 c 1
 190 770 l 1
 286 784 l 1
 349 797 l 1
 349 863.667 314.667 897 246 897 c 0
 181.333 897 145.333 869.667 138 815 c 1
 48 837 l 1
 64 927.667 130.333 973 247 973 c 0
 377.667 973 443 920.333 443 815 c 1
 442 619 l 1
 440.667 561 449.667 521 469 499 c 1
 372 499 l 1
 362.667 517.667 358 537 358 557 c 1
348 721 m 1
 304.667 713.667 261.333 706 218 698 c 1
 158 683.333 128 660.667 128 630 c 0
 128 586.667 156.333 565 213 565 c 0
 303 565 348 617 348 721 c 1
EndSplineSet
EndChar
StartChar: guillemotleft
Encoding: 106 171
OldEncoding: 171
Width: 743
Flags: W
Fore
222 345 m 1
 391 47 l 1
 296 47 l 1
 87 345 l 1
 296 642 l 1
 392 642 l 1
 222 345 l 1
475 345 m 1
 647 47 l 1
 548 47 l 1
 343 345 l 1
 548 642 l 1
 647 642 l 1
 475 345 l 1
EndSplineSet
EndChar
StartChar: logicalnot
Encoding: 107 172
OldEncoding: 172
Width: 781
Flags: W
Fore
706 277 m 1
 595 277 l 1
 595 563 l 1
 74 563 l 1
 74 672 l 1
 706 672 l 1
 706 277 l 1
EndSplineSet
EndChar
StartChar: minus
Encoding: 108 173
OldEncoding: 173
Width: 445
Flags: W
Fore
42 287 m 1
 42 405 l 1
 403 405 l 1
 403 287 l 1
 42 287 l 1
EndSplineSet
EndChar
StartChar: registered
Encoding: 109 174
OldEncoding: 174
Width: 985
Flags: W
Fore
495 973 m 0
 633.667 973 750.333 925.5 845 830.5 c 0
 939.667 735.5 987 618.667 987 480 c 0
 987 343.333 939.167 227.167 843.5 131.5 c 0
 747.833 35.8333 631.667 -12 495 -12 c 0
 357.667 -12 241.167 35.6667 145.5 131 c 0
 49.8333 226.333 2 342.667 2 480 c 0
 2 619.333 49.3333 736.333 144 831 c 0
 238.667 925.667 355.667 973 495 973 c 0
495 892 m 0
 380.333 892 283.167 852 203.5 772 c 0
 123.833 692 84 594.667 84 480 c 0
 84 364.667 123.667 267.5 203 188.5 c 0
 282.333 109.5 379.667 70 495 70 c 0
 610.333 70 707.5 109.5 786.5 188.5 c 0
 865.5 267.5 905 364.667 905 480 c 0
 905 593.333 865 690.333 785 771 c 0
 705 851.667 608.333 892 495 892 c 0
279 208 m 1
 279 738 l 1
 461 738 l 2
 611.667 738 687 690.333 687 595 c 0
 687 553.667 672 518.667 642 490 c 0
 614 464 578.667 449 536 445 c 1
 568.667 435 609.667 390.667 659 312 c 2
 724 208 l 1
 619 208 l 1
 572 292 l 2
 544 342.667 524 374.667 512 388 c 0
 485.333 418 452.667 433 414 433 c 2
 364 433 l 1
 364 208 l 1
 279 208 l 1
364 506 m 1
 468 506 l 2
 554 506 597 533 597 587 c 0
 597 639.667 551.667 666 461 666 c 2
 364 666 l 1
 364 506 l 1
EndSplineSet
EndChar
StartChar: macron
Encoding: 110 175
OldEncoding: 175
Width: 738
Flags: W
Fore
-20 1022 m 1
 -20 1106 l 1
 758 1106 l 1
 758 1022 l 1
 -20 1022 l 1
EndSplineSet
EndChar
StartChar: degree
Encoding: 111 176
OldEncoding: 176
Width: 535
Flags: W
Fore
84 792 m 0
 84 842.667 101.5 885.5 136.5 920.5 c 0
 171.5 955.5 214 973 264 973 c 0
 314.667 973 357.667 955.5 393 920.5 c 0
 428.333 885.5 446 842.667 446 792 c 0
 446 742 428.167 699.333 392.5 664 c 0
 356.833 628.667 314 611 264 611 c 0
 214 611 171.5 628.667 136.5 664 c 0
 101.5 699.333 84 742 84 792 c 0
155 792 m 0
 155 761.333 165.667 735.333 187 714 c 0
 208.333 692.667 234.333 682 265 682 c 0
 295 682 320.833 693 342.5 715 c 0
 364.167 737 375 762.667 375 792 c 0
 375 822 364.167 848 342.5 870 c 0
 320.833 892 295 903 265 903 c 0
 234.333 903 208.333 892.167 187 870.5 c 0
 165.667 848.833 155 822.667 155 792 c 0
EndSplineSet
EndChar
StartChar: plusminus
Encoding: 112 177
OldEncoding: 177
Width: 734
Flags: W
Fore
311 170 m 1
 311 433 l 1
 51 433 l 1
 51 542 l 1
 311 542 l 1
 311 802 l 1
 422 802 l 1
 422 542 l 1
 683 542 l 1
 683 433 l 1
 422 433 l 1
 422 170 l 1
 311 170 l 1
683 0 m 1
 51 0 l 1
 51 110 l 1
 683 110 l 1
 683 0 l 1
EndSplineSet
EndChar
StartChar: twosuperior
Encoding: 113 178
OldEncoding: 178
Width: 445
Flags: W
Fore
16 478 m 1
 20.6667 532.667 75.6667 598.667 181 676 c 0
 234.333 715.333 262 735.667 264 737 c 0
 300 768.333 318 796 318 820 c 0
 318 868 288 892 228 892 c 0
 174.667 892 141.667 867 129 817 c 1
 30 828 l 1
 53.3333 922 120 969 230 969 c 0
 356.667 969 420 924.667 420 836 c 0
 420 792 400.333 750 361 710 c 0
 344.333 692.667 306.667 663 248 621 c 0
 214.667 597 189 575.667 171 557 c 1
 423 557 l 1
 423 478 l 1
 16 478 l 1
EndSplineSet
EndChar
StartChar: threesuperior
Encoding: 114 179
OldEncoding: 179
Width: 445
Flags: W
Fore
22 606 m 1
 117 616 l 1
 131.667 567.333 165 543 217 543 c 0
 285.667 543 320 572 320 630 c 0
 320 678 285.333 702 216 702 c 1
 195 700 l 1
 180 700 l 1
 195 771 l 1
 262.333 771 296 793.333 296 838 c 0
 296 876.667 270.333 896 219 896 c 0
 173 896 142 874 126 830 c 1
 33 845 l 1
 62.3333 927.667 124.333 969 219 969 c 0
 339 969 399 928.333 399 847 c 0
 399 795.667 369 760.667 309 742 c 1
 384.333 723.333 422 681.667 422 617 c 0
 422 567.667 400.333 529.333 357 502 c 0
 319.667 478.667 275 467 223 467 c 0
 107 467 40 513.333 22 606 c 1
EndSplineSet
EndChar
StartChar: acute
Encoding: 115 180
OldEncoding: 180
Width: 445
Flags: W
Fore
145 779 m 1
 232 962 l 1
 386 962 l 1
 242 779 l 1
 145 779 l 1
EndSplineSet
EndChar
StartChar: mu
Encoding: 116 181
OldEncoding: 181
Width: 770
Flags: W
Fore
664 693 m 1
 664 0 l 1
 559 0 l 1
 559 82 l 1
 520.333 16.6667 462.667 -16 386 -16 c 0
 318.667 -16 263.667 12.6667 221 70 c 1
 221 -266 l 1
 104 -266 l 1
 104 693 l 1
 221 693 l 1
 221 399 l 2
 221 302.333 226.667 235.333 238 198 c 0
 260 126 307.667 90 381 90 c 0
 455.667 90 505 125.333 529 196 c 0
 542.333 235.333 549 302.333 549 397 c 2
 549 693 l 1
 664 693 l 1
EndSplineSet
EndChar
StartChar: paragraph
Encoding: 117 182
OldEncoding: 182
Width: 718
Flags: W
Fore
264 -266 m 1
 264 416 l 1
 187.333 416 124.333 440.833 75 490.5 c 0
 25.6667 540.167 1 603.667 1 681 c 0
 1 771.667 30 841.333 88 890 c 0
 142 934.667 215.667 957 309 957 c 2
 723 957 l 1
 723 844 l 1
 629 844 l 1
 629 -266 l 1
 518 -266 l 1
 518 844 l 1
 372 844 l 1
 372 -266 l 1
 264 -266 l 1
EndSplineSet
EndChar
StartChar: periodcentered
Encoding: 118 183
OldEncoding: 183
Width: 371
Flags: W
Fore
121 404 m 1
 121 538 l 1
 255 538 l 1
 255 404 l 1
 121 404 l 1
EndSplineSet
EndChar
StartChar: cedilla
Encoding: 119 184
OldEncoding: 184
Width: 445
Flags: W
Fore
141 -101 m 1
 175 15 l 1
 262 15 l 1
 241 -55 l 1
 315 -63 352 -95 352 -151 c 0
 352 -194.333 330 -227 286 -249 c 0
 252 -266.333 211.333 -275 164 -275 c 0
 130 -275 98.6667 -272.333 70 -267 c 1
 77 -191 l 1
 138 -193 l 2
 208 -195 243 -178.667 243 -144 c 0
 243 -115.333 209 -101 141 -101 c 1
EndSplineSet
EndChar
StartChar: onesuperior
Encoding: 120 185
OldEncoding: 185
Width: 445
Flags: W
Fore
216 478 m 1
 216 840 l 1
 173.333 806 124.667 781.333 70 766 c 1
 70 847 l 1
 136 869.667 192.667 910.333 240 969 c 1
 311 969 l 1
 311 478 l 1
 216 478 l 1
EndSplineSet
EndChar
StartChar: ordmasculine
Encoding: 121 186
OldEncoding: 186
Width: 488
Flags: W
Fore
243 973 m 0
 312.333 973 366.333 949 405 901 c 0
 440.333 857 458 799.333 458 728 c 0
 458 658 440.333 600.667 405 556 c 0
 366.333 507.333 312.667 483 244 483 c 0
 176 483 122.333 506.667 83 554 c 0
 47 598 29 655 29 725 c 0
 29 796.333 46.6667 854.333 82 899 c 0
 120 948.333 173.667 973 243 973 c 0
243 886 m 0
 165 886 126 833.333 126 728 c 0
 126 622 165 569 243 569 c 0
 321.667 569 361 623 361 731 c 0
 361 834.333 321.667 886 243 886 c 0
EndSplineSet
EndChar
StartChar: guillemotright
Encoding: 122 187
OldEncoding: 187
Width: 743
Flags: W
Fore
516 345 m 1
 346 642 l 1
 443 642 l 1
 651 345 l 1
 443 47 l 1
 347 47 l 1
 516 345 l 1
264 345 m 1
 91 642 l 1
 190 642 l 1
 395 345 l 1
 190 47 l 1
 91 47 l 1
 264 345 l 1
EndSplineSet
EndChar
StartChar: onequarter
Encoding: 123 188
OldEncoding: 188
Width: 1115
Flags: W
Fore
164 -37 m 1
 884 973 l 1
 986 973 l 1
 267 -37 l 1
 164 -37 l 1
216 478 m 1
 216 840 l 1
 173.333 806 124.667 781.333 70 766 c 1
 70 847 l 1
 136 869.667 192.667 910.333 240 969 c 1
 311 969 l 1
 311 478 l 1
 216 478 l 1
933 -20 m 1
 933 80 l 1
 683 80 l 1
 683 161 l 1
 948 470 l 1
 1027 470 l 1
 1027 151 l 1
 1095 151 l 1
 1095 80 l 1
 1027 80 l 1
 1027 -20 l 1
 933 -20 l 1
933 151 m 1
 933 322 l 1
 783 151 l 1
 933 151 l 1
EndSplineSet
EndChar
StartChar: onehalf
Encoding: 124 189
OldEncoding: 189
Width: 1115
Flags: W
Fore
149 -37 m 1
 867 973 l 1
 970 973 l 1
 251 -37 l 1
 149 -37 l 1
216 478 m 1
 216 840 l 1
 173.333 806 124.667 781.333 70 766 c 1
 70 847 l 1
 136 869.667 192.667 910.333 240 969 c 1
 311 969 l 1
 311 478 l 1
 216 478 l 1
685 -20 m 1
 685 32 740 98 850 178 c 0
 940.667 243.333 986 291 986 321 c 0
 986 368.333 956 392 896 392 c 0
 846.667 392 813.667 367.667 797 319 c 1
 698 328 l 1
 722 422.667 788.667 470 898 470 c 0
 1025.33 470 1089 425.667 1089 337 c 0
 1089 294.333 1069.33 252.333 1030 211 c 0
 1011.33 192.333 973.667 162.333 917 121 c 0
 881.667 95 855.667 74.3333 839 59 c 1
 1091 59 l 1
 1091 -20 l 1
 685 -20 l 1
EndSplineSet
EndChar
StartChar: threequarters
Encoding: 125 190
OldEncoding: 190
Width: 1115
Flags: W
Fore
164 -37 m 1
 883 973 l 1
 986 973 l 1
 267 -37 l 1
 164 -37 l 1
22 606 m 1
 117 616 l 1
 131.667 567.333 165 543 217 543 c 0
 285.667 543 320 572 320 630 c 0
 320 681.333 286 705.333 218 702 c 2
 180 700 l 1
 195 771 l 1
 262.333 771 296 793.333 296 838 c 0
 296 876.667 270.333 896 219 896 c 0
 173 896 142 874 126 830 c 1
 33 845 l 1
 62.3333 927.667 124.333 969 219 969 c 0
 339 969 399 928.333 399 847 c 0
 399 795.667 369 760.667 309 742 c 1
 384.333 723.333 422 681.667 422 617 c 0
 422 567.667 400.333 529.333 357 502 c 0
 319.667 478.667 275 467 223 467 c 0
 107 467 40 513.333 22 606 c 1
933 -20 m 1
 933 80 l 1
 683 80 l 1
 683 161 l 1
 947 470 l 1
 1027 470 l 1
 1027 151 l 1
 1095 151 l 1
 1095 80 l 1
 1027 80 l 1
 1027 -20 l 1
 933 -20 l 1
933 151 m 1
 933 322 l 1
 783 151 l 1
 933 151 l 1
EndSplineSet
EndChar
StartChar: questiondown
Encoding: 126 191
OldEncoding: 191
Width: 817
Flags: W
Fore
478 693 m 1
 478 559 l 1
 345 559 l 1
 345 693 l 1
 478 693 l 1
471 458 m 1
 471 424 l 2
 471 359.333 458.667 306.333 434 265 c 0
 415.333 233.667 377.667 193.667 321 145 c 0
 256.333 89 224 37 224 -11 c 0
 224 -59.6667 242.5 -100.5 279.5 -133.5 c 0
 316.5 -166.5 359.667 -183 409 -183 c 0
 515.667 -183 579.333 -118.667 600 10 c 1
 720 -4 l 1
 694.667 -188 591.667 -280 411 -280 c 0
 327 -280 256 -258 198 -214 c 0
 134.667 -165.333 103 -100.333 103 -19 c 0
 103 59 151 140.333 247 225 c 0
 294.333 267 324.333 300.667 337 326 c 0
 351 354 358 398 358 458 c 1
 471 458 l 1
EndSplineSet
EndChar
StartChar: AE
Encoding: 133 198
OldEncoding: 198
Width: 1337
Flags: W
Fore
1 0 m 1
 461 957 l 1
 1246 957 l 1
 1246 844 l 1
 765 844 l 1
 765 550 l 1
 1212 550 l 1
 1212 437 l 1
 765 437 l 1
 765 113 l 1
 1264 113 l 1
 1264 0 l 1
 638 0 l 1
 638 276 l 1
 268 276 l 1
 138 0 l 1
 1 0 l 1
322 388 m 1
 638 388 l 1
 638 844 l 1
 543 844 l 1
 322 388 l 1
EndSplineSet
EndChar
StartChar: Eth
Encoding: 143 208
OldEncoding: 208
Width: 965
Flags: W
Fore
103 0 m 1
 103 435 l 1
 -2 435 l 1
 -2 522 l 1
 103 522 l 1
 103 957 l 1
 433 957 l 2
 531.667 957 608.333 945.667 663 923 c 0
 731.667 895 787.333 843.667 830 769 c 0
 872.667 694.333 894 599.333 894 484 c 0
 894 161.333 745.333 1.38778e-17 448 0 c 2
 103 0 l 1
230 113 m 1
 434 113 l 2
 508.667 113 566 122 606 140 c 0
 656 162 694.833 202.667 722.5 262 c 0
 750.167 321.333 764 395.667 764 485 c 0
 764 655 717 763.667 623 811 c 0
 579 833 515 844 431 844 c 2
 230 844 l 1
 230 522 l 1
 493 522 l 1
 493 435 l 1
 230 435 l 1
 230 113 l 1
EndSplineSet
EndChar
StartChar: multiply
Encoding: 150 215
OldEncoding: 215
Width: 781
Flags: W
Fore
105 267 m 1
 311 473 l 1
 106 677 l 1
 185 757 l 1
 390 552 l 1
 595 756 l 1
 673 677 l 1
 469 473 l 1
 674 268 l 1
 595 189 l 1
 390 394 l 1
 184 188 l 1
 105 267 l 1
EndSplineSet
EndChar
StartChar: Oslash
Encoding: 151 216
OldEncoding: 216
Width: 1040
Flags: W
Fore
816 869 m 1
 926 992 l 1
 990 937 l 1
 875 808 l 1
 943 711.333 977 601.333 977 478 c 0
 977 334.667 937.667 217.667 859 127 c 0
 775.667 31.6667 663.667 -16 523 -16 c 0
 419 -16 320.667 17.3333 228 84 c 1
 119 -39 l 1
 54 16 l 1
 169 145 l 1
 97.6667 251 62 361.333 62 476 c 0
 62 620 102 737.667 182 829 c 0
 266.667 925 380 973 522 973 c 0
 630 973 728 938.333 816 869 c 1
738 781 m 1
 669.333 837 597.333 865 522 865 c 0
 412.667 865 329 826.667 271 750 c 0
 219 681.333 193 590.667 193 478 c 0
 193 389.333 212.333 308.667 251 236 c 1
 738 781 l 1
791 714 m 1
 306 171 l 1
 370 118.333 441 92 519 92 c 0
 624.333 92 706.667 130.333 766 207 c 0
 820 277 847 366.333 847 475 c 0
 847 563.667 828.333 643.333 791 714 c 1
EndSplineSet
EndChar
StartChar: Thorn
Encoding: 157 222
OldEncoding: 222
Width: 892
Flags: W
Fore
103 0 m 1
 103 957 l 1
 230 957 l 1
 230 762 l 1
 464 762 l 2
 579.333 762 665.667 744.667 723 710 c 0
 796.333 666.667 833 591.667 833 485 c 0
 833 291.667 713.667 195 475 195 c 2
 230 195 l 1
 230 0 l 1
 103 0 l 1
230 307 m 1
 477 307 l 2
 627.667 307 703 365 703 481 c 0
 703 547 680.333 593 635 619 c 0
 600.333 639 547 649 475 649 c 2
 230 649 l 1
 230 307 l 1
EndSplineSet
EndChar
StartChar: germandbls
Encoding: 158 223
OldEncoding: 223
Width: 817
Flags: W
Fore
100 0 m 1
 100 652 l 2
 100 866 193 973 379 973 c 0
 441 973 495 957.667 541 927 c 0
 594.333 892.333 621 845.333 621 786 c 0
 621 750.667 603 698.333 567 629 c 2
 529 556 l 2
 524.333 547.333 522 535.333 522 520 c 0
 522 496 552.333 461 613 415 c 0
 688.333 358.333 730.667 324.667 740 314 c 0
 763.333 284.667 775 248 775 204 c 0
 775 139.333 751 86 703 44 c 0
 657.667 4 602.333 -16 537 -16 c 0
 428.333 -16 349.333 36.3333 300 141 c 1
 401 188 l 1
 437 116 481.667 80 535 80 c 0
 567.667 80 595.833 91 619.5 113 c 0
 643.167 135 655 162 655 194 c 0
 655 230.667 623.667 270.667 561 314 c 0
 508.333 350 474 375.667 458 391 c 0
 420 427.667 401 464.667 401 502 c 0
 401 532.667 418.5 578.5 453.5 639.5 c 0
 488.5 700.5 506 745.333 506 774 c 0
 506 806 491.667 831.667 463 851 c 0
 437.667 868.333 408.667 877 376 877 c 0
 312 877 268 853.333 244 806 c 0
 226 771.333 217 718.333 217 647 c 2
 217 0 l 1
 100 0 l 1
EndSplineSet
EndChar
StartChar: ae
Encoding: 165 230
OldEncoding: 230
Width: 1189
Flags: W
Fore
1132 212 m 1
 1084 60 982 -16 826 -16 c 0
 719.333 -16 633.333 27.3333 568 114 c 1
 482 27.3333 386.333 -16 281 -16 c 0
 215 -16 160.333 0.333333 117 33 c 0
 68.3333 69 44 119 44 183 c 0
 44 305 146.333 379 351 405 c 0
 413.667 413 468.667 423.667 516 437 c 1
 516 463 l 2
 516 518.333 504.333 557 481 579 c 0
 457.667 601 418 612 362 612 c 0
 252.667 612 191.333 567.333 178 478 c 1
 63 492 l 1
 92.3333 636.667 192.667 709 364 709 c 0
 488 709 568 677.667 604 615 c 1
 658.667 677.667 732.667 709 826 709 c 0
 923.333 709 999 675.333 1053 608 c 0
 1109.67 537.333 1136.67 453.333 1134 356 c 1
 1133 317 l 1
 632 317 l 1
 632 159.667 698.333 81 831 81 c 0
 925 81 984.333 130 1009 228 c 1
 1132 212 l 1
632 413 m 1
 1014 413 l 1
 1002 545.667 939.333 612 826 612 c 0
 769.333 612 722.833 593.167 686.5 555.5 c 0
 650.167 517.833 632 470.333 632 413 c 1
518 348 m 1
 445.333 332.667 372.333 317 299 301 c 1
 212.333 279 169 241 169 187 c 0
 169 113.667 214 77 304 77 c 0
 346 77 385.667 87 423 107 c 0
 464.333 129 491.333 158.333 504 195 c 0
 513.333 222.333 518 273.333 518 348 c 1
EndSplineSet
EndChar
StartChar: eth
Encoding: 175 240
OldEncoding: 240
Width: 743
Flags: W
Fore
201 957 m 1
 343 957 l 1
 376.333 931 403.333 908.667 424 890 c 1
 564 957 l 1
 593 890 l 1
 481 836 l 1
 620.333 675.333 690 510 690 340 c 0
 690 236.667 662.667 152.667 608 88 c 0
 549.333 18.6667 469.333 -16 368 -16 c 0
 264.667 -16 184.667 17.3333 128 84 c 0
 74.6667 147.333 48 231.667 48 337 c 0
 48 437 71.6667 519.333 119 584 c 0
 172.333 656.667 247 693 343 693 c 0
 387.667 693 433.667 680.333 481 655 c 1
 455.667 706.333 424.667 752.667 388 794 c 1
 209 711 l 1
 180 778 l 1
 336 849 l 1
 294 888.333 249 924.333 201 957 c 1
568 345 m 0
 568 415 552 473.667 520 521 c 0
 482.667 575.667 430.667 603 364 603 c 0
 295.333 603 244 574 210 516 c 0
 182 468 168 407.333 168 334 c 0
 168 262.667 183 204.333 213 159 c 0
 247.667 106.333 299 80 367 80 c 0
 435 80 487 108.333 523 165 c 0
 553 213 568 273 568 345 c 0
EndSplineSet
EndChar
StartChar: divide
Encoding: 182 247
OldEncoding: 247
Width: 734
Flags: W
Fore
300 602 m 1
 300 736 l 1
 433 736 l 1
 433 602 l 1
 300 602 l 1
683 417 m 1
 51 417 l 1
 51 527 l 1
 683 527 l 1
 683 417 l 1
300 208 m 1
 300 342 l 1
 433 342 l 1
 433 208 l 1
 300 208 l 1
EndSplineSet
EndChar
StartChar: oslash
Encoding: 183 248
OldEncoding: 248
Width: 817
Flags: W
Fore
603 652 m 1
 668 736 l 1
 730 690 l 1
 661 600 l 1
 711.667 534.667 737 450 737 346 c 0
 737 237.333 710.333 151 657 87 c 0
 599 18.3333 517 -16 411 -16 c 0
 341 -16 280 1.66667 228 37 c 1
 159 -52 l 1
 98 -5 l 1
 168 87 l 1
 114 147 87 230.333 87 337 c 0
 87 446.333 113 534 165 600 c 0
 221.667 672.667 303 709 409 709 c 0
 474.333 709 539 690 603 652 c 1
537 566 m 1
 497 596.667 455.667 612 413 612 c 0
 344.333 612 291.667 584 255 528 c 0
 223.667 480 208 419.667 208 347 c 0
 208 281 219.333 226.333 242 183 c 1
 537 566 l 1
586 503 m 1
 293 122 l 1
 327.667 94.6667 366 81 408 81 c 0
 479.333 81 533.333 108.667 570 164 c 0
 601.333 210.667 617 271.667 617 347 c 0
 617 410.333 606.667 462.333 586 503 c 1
EndSplineSet
EndChar
StartChar: thorn
Encoding: 189 254
OldEncoding: 254
Width: 743
Flags: W
Fore
88 -266 m 1
 88 957 l 1
 206 957 l 1
 206 620 l 1
 258 679.333 321.333 709 396 709 c 0
 492.667 709 567.333 672.333 620 599 c 0
 666.667 534.333 690 452 690 352 c 0
 690 251.333 665.333 167 616 99 c 0
 560.667 22.3333 484.667 -16 388 -16 c 0
 318.667 -16 258 13.3333 206 72 c 1
 206 -266 l 1
 88 -266 l 1
195 343 m 0
 195 272.333 208 214 234 168 c 0
 266 110 314.667 81 380 81 c 0
 446.667 81 496.667 111.333 530 172 c 0
 556.667 220 570 280 570 352 c 0
 570 421.333 556.667 480 530 528 c 0
 497.333 587.333 449 617 385 617 c 0
 321 617 271.667 585.667 237 523 c 0
 209 471.667 195 411.667 195 343 c 0
EndSplineSet
EndChar
StartChar: dotlessi
Encoding: 191 305
OldEncoding: 305
Width: 371
Flags: W
Fore
129 0 m 1
 129 693 l 1
 247 693 l 1
 247 0 l 1
 129 0 l 1
EndSplineSet
EndChar
StartChar: OE
Encoding: 192 338
OldEncoding: 338
Width: 1337
Flags: W
Fore
1294 113 m 1
 1294 0 l 1
 732 0 l 1
 732 138 l 1
 673.333 35.3333 586.333 -16 471 -16 c 0
 338.333 -16 238 35.3333 170 138 c 0
 112.667 226 84 340 84 480 c 0
 84 621.333 112.333 735 169 821 c 0
 236.333 922.333 337 973 471 973 c 0
 585 973 672 924.667 732 828 c 1
 732 957 l 1
 1274 957 l 1
 1274 844 l 1
 850 844 l 1
 850 552 l 1
 1241 552 l 1
 1241 439 l 1
 850 439 l 1
 850 113 l 1
 1294 113 l 1
470 871 m 0
 300 871 215 737.333 215 470 c 0
 215 369.333 232 285.333 266 218 c 0
 310.667 130 378.667 86 470 86 c 0
 564.667 86 633.333 132.333 676 225 c 0
 708 293 724 380 724 486 c 0
 724 586.667 707 671 673 739 c 0
 629 827 561.333 871 470 871 c 0
EndSplineSet
EndChar
StartChar: oe
Encoding: 193 339
OldEncoding: 339
Width: 1262
Flags: W
Fore
638 114 m 1
 574 27.3333 488 -16 380 -16 c 0
 276 -16 195 17.3333 137 84 c 0
 81.6667 147.333 54 232 54 338 c 0
 54 448.667 80.3333 536.667 133 602 c 0
 190.333 673.333 273 709 381 709 c 0
 495.667 709 581.333 664.667 638 576 c 1
 700 664.667 784.667 709 892 709 c 0
 1002 709 1084.67 669.333 1140 590 c 0
 1188 521.333 1212 429.667 1212 315 c 1
 700 315 l 1
 700 249.667 718 195.333 754 152 c 0
 792 104.667 843 81 907 81 c 0
 997.667 81 1057 129.333 1085 226 c 1
 1203 209 l 1
 1163 59 1063.67 -16 905 -16 c 0
 788.333 -16 699.333 27.3333 638 114 c 1
174 348 m 0
 174 273.333 189 212.667 219 166 c 0
 254.333 109.333 307 81 377 81 c 0
 444.333 81 496.333 110 533 168 c 0
 565 218 581 278.333 581 349 c 0
 581 420.333 565.333 480 534 528 c 0
 497.333 584 445 612 377 612 c 0
 309 612 257 583.667 221 527 c 0
 189.667 479 174 419.333 174 348 c 0
705 412 m 1
 1088 412 l 1
 1088 468 1070.33 515.333 1035 554 c 0
 999.667 592.667 954.333 612 899 612 c 0
 843.667 612 797.5 592.5 760.5 553.5 c 0
 723.5 514.5 705 467.333 705 412 c 1
EndSplineSet
EndChar
StartChar: florin
Encoding: 197 402
OldEncoding: 402
Width: 743
Flags: W
Fore
30 -264 m 1
 53 -163 l 1
 101.667 -173 134.667 -178 152 -178 c 0
 196.667 -178 224.667 -144.667 236 -78 c 2
 351 602 l 1
 220 602 l 1
 236 693 l 1
 367 693 l 1
 382 780 l 2
 393.333 845.333 410.667 892.333 434 921 c 0
 462.667 956.333 507.333 974 568 974 c 0
 603.333 974 650 965.667 708 949 c 1
 685 849 l 1
 642.333 859.667 609 865 585 865 c 0
 555 865 533.667 854.667 521 834 c 0
 513 821.333 505.667 796.667 499 760 c 2
 487 693 l 1
 620 693 l 1
 604 602 l 1
 471 602 l 1
 346 -111 l 2
 326 -224.333 269.333 -281 176 -281 c 0
 131.333 -281 82.6667 -275.333 30 -264 c 1
EndSplineSet
EndChar
StartChar: circumflex
Encoding: 198 710
OldEncoding: 710
Width: 445
Flags: W
Fore
225 890 m 1
 151 779 l 1
 16 779 l 1
 157 962 l 1
 283 962 l 1
 429 779 l 1
 296 779 l 1
 225 890 l 1
EndSplineSet
EndChar
StartChar: caron
Encoding: 199 711
OldEncoding: 711
Width: 445
Flags: W
Fore
234 851 m 1
 306 962 l 1
 439 962 l 1
 292 779 l 1
 167 779 l 1
 26 962 l 1
 161 962 l 1
 234 851 l 1
EndSplineSet
EndChar
StartChar: ring
Encoding: 201 730
OldEncoding: 730
Width: 445
Flags: W
Fore
106 873 m 0
 106 905.667 117.333 933.333 140 956 c 0
 162.667 978.667 190.333 990 223 990 c 0
 256.333 990 284.333 978.333 307 955 c 0
 329.667 931.667 341 903.667 341 871 c 0
 341 838.333 329.667 810.167 307 786.5 c 0
 284.333 762.833 256.667 751 224 751 c 0
 189.333 751 161 762.667 139 786 c 0
 117 809.333 106 838.333 106 873 c 0
155 873 m 0
 155 824.333 178.333 800 225 800 c 0
 243 800 259 807.333 273 822 c 0
 287 836.667 294 853 294 871 c 0
 294 918.333 271 942 225 942 c 0
 178.333 942 155 919 155 873 c 0
EndSplineSet
EndChar
StartChar: tilde
Encoding: 202 732
OldEncoding: 732
Width: 445
Flags: W
Fore
5 796 m 1
 5 894.667 49 944 137 944 c 0
 164.333 944 201 932.333 247 909 c 0
 272.333 896.333 293 890 309 890 c 0
 335.667 890 351.333 908.667 356 946 c 1
 441 946 l 1
 441 847.333 398.333 798 313 798 c 0
 284.333 798 248.333 810 205 834 c 0
 175.667 850 154.333 858 141 858 c 0
 107.667 858 91 837.333 91 796 c 1
 5 796 l 1
EndSplineSet
EndChar
StartChar: uni0E01
Encoding: 205 3585
OldEncoding: 3585
Width: 838
Flags: W
Fore
694 0 m 1
 602 0 l 1
 602 559 l 2
 602 660.333 532.333 711 393 711 c 0
 337 711 285.333 700.667 238 680 c 1
 211 666 l 1
 225 659 l 1
 289 623 l 1
 348 580 l 1
 362 565 l 1
 328 557 l 2
 302.667 551 282 537.333 266 516 c 1
 238.667 488.667 225 454 225 412 c 2
 225 0 l 1
 133 0 l 1
 133 430 l 2
 133 448.667 135.667 464.333 141 477 c 2
 160 520 l 1
 169.333 534 180.333 546.333 193 557 c 1
 211 569 l 1
 199 580 l 1
 173 597.333 151 609.333 133 616 c 2
 80 637 l 1
 31 651 l 1
 62.3333 689.667 119 724.667 201 756 c 0
 265 780.667 327.667 793 389 793 c 0
 471.667 793 540.667 775.667 596 741 c 0
 661.333 700.333 694 641 694 563 c 2
 694 0 l 1
EndSplineSet
EndChar
StartChar: uni0E02
Encoding: 206 3586
OldEncoding: 3586
Width: 866
Flags: W
Fore
709 158 m 2
 709 133.333 707.667 115.333 705 104 c 1
 705 88 699.333 73.6667 688 61 c 1
 660.667 20.3333 620.333 -1.73472e-18 567 0 c 2
 244 0 l 1
 244 88 l 1
 342 88 l 1
 342 426 l 1
 350 455 l 1
 383 524 l 1
 396.333 553.333 403 580 403 604 c 1
 397 645 l 2
 393.667 667 377.333 685 348 699 c 0
 323.333 711 298 717 272 717 c 1
 240 713 l 1
 260 704.333 275 693.333 285 680 c 0
 289 676 296.333 657.667 307 625 c 1
 309 600 l 1
 312.333 563.333 302.333 533 279 509 c 0
 255.667 485 225.333 473 188 473 c 1
 146 469 111 479.167 83 503.5 c 0
 55 527.833 41 561.333 41 604 c 0
 41 658.667 58.6667 703.5 94 738.5 c 0
 129.333 773.5 174.333 791 229 791 c 0
 367 791 452.333 748.667 485 664 c 1
 494 627 l 1
 496 604 l 1
 496 578.667 493 559.667 487 547 c 1
 463 489 l 1
 445 447.667 436 417 436 397 c 2
 436 88 l 1
 547 88 l 2
 593 88 616 112 616 160 c 2
 616 788 l 1
 709 788 l 1
 709 158 l 2
176 668 m 0
 160 668 145 661 131 647 c 1
 123 636.333 117.667 622 115 604 c 1
 115 563.333 135.333 543 176 543 c 0
 217.333 543 238 564 238 606 c 0
 238 647.333 217.333 668 176 668 c 0
EndSplineSet
EndChar
StartChar: uni0E03
Encoding: 207 3587
OldEncoding: 3587
Width: 905
Flags: W
Fore
752 92 m 1
 746.667 76 741 63 735 53 c 0
 709.667 12.3333 669.333 -8 614 -8 c 2
 319 -8 l 1
 319 80 l 1
 414 80 l 1
 414 559 l 1
 430 573 l 2
 455.333 595 468.333 614.333 469 631 c 0
 469.667 642.333 457.333 660 432 684 c 1
 412 698 l 1
 313 649 l 1
 223 698 l 1
 197.667 687.333 180.667 673.667 172 657 c 2
 150 614 l 1
 141 584 l 1
 162.333 593.333 181 597.333 197 596 c 2
 225 594 l 1
 252 588 l 2
 301.333 576.667 326 537 326 469 c 0
 326 387 285 346 203 346 c 0
 103 346 53 406 53 526 c 0
 53 646.667 104.333 732.667 207 784 c 1
 313 723 l 1
 422 784 l 1
 455 764 l 2
 474.333 751.333 491.333 736.333 506 719 c 2
 551 664 l 1
 559 651 l 1
 559 606 l 1
 537 578 l 1
 506 549 l 1
 506 80 l 1
 596 80 l 2
 619.333 80 637 86.6667 649 100 c 1
 655.667 111.333 660.667 128.667 664 152 c 1
 664 780 l 1
 758 780 l 1
 752 92 l 1
203 406 m 0
 246.333 406 268 427 268 469 c 0
 268 511 246.333 533 203 535 c 0
 160.333 536.333 139 514.333 139 469 c 0
 139 449.667 147.333 432.667 164 418 c 0
 174.667 410 187.667 406 203 406 c 0
EndSplineSet
EndChar
StartChar: uni0E04
Encoding: 208 3588
OldEncoding: 3588
Width: 819
Flags: W
Fore
670 0 m 1
 578 0 l 1
 578 526 l 2
 578 649.333 502.667 711 352 711 c 0
 214 711 137 644 121 510 c 1
 121 426.667 136.667 369.333 168 338 c 1
 168 424 l 2
 168 462 180.5 494.333 205.5 521 c 0
 230.5 547.667 261.667 561 299 561 c 0
 381 561 424.667 526.333 430 457 c 2
 432 430 l 2
 436 378 411.333 339.667 358 315 c 1
 332 307 l 1
 305 305 l 1
 270 309 l 1
 256 313 l 1
 256 0 l 1
 164 0 l 1
 164 131 l 2
 164 153.667 159.333 175 150 195 c 1
 82 332 l 2
 50.6667 395.333 35 455.333 35 512 c 0
 35 599.333 68.3333 669 135 721 c 0
 195.667 769 270.667 793 360 793 c 0
 450.667 793 523.333 772.333 578 731 c 0
 639.333 685 670 618 670 530 c 2
 670 0 l 1
301 371 m 0
 341.667 371 362 391.333 362 432 c 0
 362 474.667 341.667 496 301 496 c 0
 266.333 496 246 474.667 240 432 c 1
 240 391.333 260.333 371 301 371 c 0
EndSplineSet
EndChar
StartChar: uni0E05
Encoding: 209 3589
OldEncoding: 3589
Width: 791
Flags: W
Fore
635 0 m 1
 543 0 l 1
 543 578 l 2
 543 590 541.667 600 539 608 c 1
 539 624.667 529.333 644.333 510 667 c 0
 492.667 687.667 475.667 701.667 459 709 c 1
 352 631 l 1
 242 715 l 1
 196.667 689.667 164.333 667 145 647 c 0
 111 612.333 94 569.333 94 518 c 0
 94 476.667 105 423.333 127 358 c 0
 143.667 308.667 156 278 164 266 c 1
 162 301 l 1
 159.333 342.333 164 386 176 432 c 0
 194 502 232.333 545.667 291 563 c 0
 304.333 567 318 569 332 569 c 0
 358 569 383.333 561.333 408 546 c 0
 435.333 528.667 451 507.667 455 483 c 1
 463 430 l 1
 463 349.333 417.333 309 326 309 c 0
 300 309 277.333 314 258 324 c 1
 246 332 l 1
 233 260 l 1
 229 160 l 1
 229 78 l 1
 231 0 l 1
 135 0 l 1
 127 63 l 2
 123 93.6667 117 120.333 109 143 c 2
 49 307 l 2
 25.6667 371 14 440 14 514 c 0
 14 638 96 731 260 793 c 1
 350 723 l 1
 451 793 l 1
 505.667 785 550.333 756.333 585 707 c 0
 618.333 661 635 609.667 635 553 c 2
 635 0 l 1
334 369 m 0
 378.667 369 401 391.333 401 436 c 0
 401 451.333 395 467 383 483 c 1
 372.333 494.333 356 501.333 334 504 c 1
 287.333 504 264 481.333 264 436 c 0
 264 391.333 287.333 369 334 369 c 0
EndSplineSet
EndChar
StartChar: uni0E06
Encoding: 210 3590
OldEncoding: 3590
Width: 1030
Flags: W
Fore
879 182 m 2
 879 96.6667 863 43.6667 831 23 c 0
 809 7.66667 783.333 4.33681e-19 754 0 c 0
 715.333 0 679.667 15.6667 647 47 c 2
 479 209 l 1
 479 111 l 2
 479 79 467.5 51.8333 444.5 29.5 c 0
 421.5 7.16667 394 -4 362 -4 c 0
 317.333 -4 281.667 12 255 44 c 0
 229.667 74 217 112 217 158 c 0
 217 210.667 231.833 253.5 261.5 286.5 c 0
 291.167 319.5 332.333 336 385 336 c 1
 385 567 l 1
 414 592 l 2
 432 607.333 441.333 623 442 639 c 0
 442.667 651 430.667 668.667 406 692 c 1
 385 707 l 1
 287 657 l 1
 197 707 l 1
 150.333 687.667 123 649.333 115 592 c 1
 133.667 600 153.333 604 174 604 c 1
 225 596 l 1
 274.333 580.667 299 541 299 477 c 0
 299 395 258 354 176 354 c 0
 76.6667 354 27 414.333 27 535 c 0
 27 652.333 78 738.333 180 793 c 1
 287 731 l 1
 395 793 l 1
 428 772 l 2
 468.667 746.667 500.667 713.333 524 672 c 2
 532 657 l 1
 532 614 l 1
 510 586 l 1
 479 555 l 1
 479 317 l 1
 688 125 l 2
 709.333 105.667 730 94 750 90 c 1
 763.333 90 772.667 97 778 111 c 1
 786 166 l 1
 786 788 l 1
 879 788 l 1
 879 182 l 2
176 414 m 0
 220 414 242 435 242 477 c 0
 242 519.667 220 541.667 176 543 c 0
 134 544.333 113 522.333 113 477 c 0
 113 458.333 121 441.333 137 426 c 1
 148.333 418 161.333 414 176 414 c 0
385 127 m 1
 385 252 l 1
 340 246 l 2
 312.667 242 299 212.667 299 158 c 0
 299 99.3333 316 71.3333 350 74 c 1
 365.333 76.6667 375 82 379 90 c 0
 380.333 94 382.333 106.333 385 127 c 1
EndSplineSet
EndChar
StartChar: uni0E07
Encoding: 211 3591
OldEncoding: 3591
Width: 664
Flags: W
Fore
516 160 m 2
 516 120.667 513.333 92.6667 508 76 c 0
 490 20 447.667 -8 381 -8 c 0
 344.333 -8 309.333 9 276 43 c 1
 205 190 l 2
 183 235.333 166 262.667 154 272 c 0
 125.333 294 90.3333 305 49 305 c 1
 49 389 l 1
 104 387 l 2
 176 384.333 233.333 333 276 233 c 0
 320.667 129.667 355 78 379 78 c 0
 403.667 78 418.667 101 424 147 c 1
 424 545 l 1
 412 541 l 1
 375 537 l 1
 354.333 537 336.667 540.333 322 547 c 0
 272.667 569 248 608 248 664 c 1
 252 707 l 1
 257.333 732.333 273.667 753.333 301 770 c 0
 326.333 785.333 353 793 381 793 c 0
 471 793 516 747 516 655 c 2
 516 160 l 2
381 602 m 0
 421.667 602 442 622.667 442 664 c 0
 442 704.667 421.667 725 381 725 c 0
 345 725 323.667 704.667 317 664 c 1
 317 622.667 338.333 602 381 602 c 0
EndSplineSet
EndChar
StartChar: uni0E08
Encoding: 212 3592
OldEncoding: 3592
Width: 737
Flags: W
Fore
594 127 m 2
 594 86.3333 578.667 53.6667 548 29 c 0
 519.333 7 484 -4 442 -4 c 0
 404 -4 371.667 6.66667 345 28 c 0
 315.667 51.3333 301 81.6667 301 119 c 2
 301 293 l 1
 289 289 l 1
 252 285 l 1
 232 285 214.333 288.333 199 295 c 0
 149.667 317 125 356.667 125 414 c 1
 129 457 l 1
 134.333 483 150.333 504 177 520 c 0
 201.667 535.333 228 543 256 543 c 0
 347.333 543 393 496.333 393 403 c 2
 393 143 l 2
 393 99.6667 412.333 78 451 78 c 0
 469.667 78 483.333 84 492 96 c 1
 496 106 499.333 122.333 502 145 c 1
 502 559 l 2
 502 659 436.333 709 305 709 c 0
 201.667 709 131.333 665.333 94 578 c 1
 16 614 l 1
 69.3333 733.333 169 793 315 793 c 0
 394.333 793 458.667 776 508 742 c 0
 565.333 702.667 594 645 594 569 c 2
 594 127 l 2
256 350 m 0
 298 350 319 370.667 319 412 c 0
 319 454 298 475 256 475 c 0
 221.333 475 201 454 195 412 c 1
 195 370.667 215.333 350 256 350 c 0
EndSplineSet
EndChar
StartChar: uni0E09
Encoding: 213 3593
OldEncoding: 3593
Width: 797
Flags: W
Fore
791 109 m 1
 783.667 33.6667 741.333 -4 664 -4 c 0
 629.333 -4 600.833 5.83333 578.5 25.5 c 0
 556.167 45.1667 545 72 545 106 c 2
 545 203 l 1
 535 198.333 526 190.667 518 180 c 2
 469 113 l 2
 412.333 35 354.333 -4 295 -4 c 0
 265 -4 241.667 9.66667 225 37 c 0
 210.333 59.6667 203 87 203 119 c 2
 203 274 l 1
 190 270 l 1
 154 266 l 1
 133.333 266 115.333 269.333 100 276 c 0
 51.3333 298 27 337 27 393 c 1
 31 436 l 1
 36.3333 462 52.6667 483.333 80 500 c 0
 105.333 514.667 132 522 160 522 c 0
 250 522 295 476.333 295 385 c 2
 295 156 l 2
 295 106.667 304.667 82 324 82 c 0
 340 82 359.667 95.6667 383 123 c 1
 440 211 l 2
 467.333 252.333 494 280.333 520 295 c 2
 539 305 l 1
 539 559 l 2
 539 609.667 518 648.667 476 676 c 0
 440 699.333 395.333 711 342 711 c 0
 230 711 154.333 668.667 115 584 c 1
 45 623 l 1
 107.667 736.333 203.333 793 332 793 c 0
 412.667 793 480 776.667 534 744 c 0
 600 704.667 633 647 633 571 c 2
 633 317 l 1
 652.333 317 670 314.333 686 309 c 1
 758.667 294.333 795 242 795 152 c 1
 791 109 l 1
662 240 m 1
 631 242 l 1
 631 127 l 2
 631 93 643.333 76 668 76 c 0
 698 76 713 99.6667 713 147 c 0
 713 201.667 696 232.667 662 240 c 1
160 332 m 0
 200.667 332 221 352.333 221 393 c 0
 221 434.333 200.667 455 160 455 c 0
 124 455 102.667 434.333 96 393 c 1
 96 352.333 117.333 332 160 332 c 0
EndSplineSet
EndChar
StartChar: uni0E0A
Encoding: 214 3594
OldEncoding: 3594
Width: 805
Flags: W
Fore
741 760 m 1
 719 739 l 1
 694.333 721.667 671 708.667 649 700 c 2
 530 655 l 1
 561 643 l 2
 581.667 635 600.667 620.667 618 600 c 1
 641.333 579.333 656 544.667 662 496 c 1
 662 158 l 2
 662 133.333 660.333 115.333 657 104 c 1
 657 88 651.667 73.6667 641 61 c 1
 613.667 20.3333 573.333 -1.73472e-18 520 0 c 2
 197 0 l 1
 197 88 l 1
 295 88 l 1
 295 426 l 1
 303 455 l 1
 336 524 l 1
 349.333 553.333 356 580 356 604 c 1
 350 645 l 2
 346.667 667 330.333 685 301 699 c 0
 276.333 711 251 717 225 717 c 1
 193 713 l 1
 213 704.333 228 693.333 238 680 c 0
 242 676 249.333 657.667 260 625 c 1
 262 600 l 1
 265.333 563.333 255.333 533 232 509 c 0
 208.667 485 178.333 473 141 473 c 1
 99 469 64 479.167 36 503.5 c 0
 8 527.833 -6 561.333 -6 604 c 0
 -6 658.667 11.6667 703.5 47 738.5 c 0
 82.3333 773.5 127.333 791 182 791 c 0
 320 791 405.333 748.667 438 664 c 1
 446 627 l 1
 449 604 l 1
 449 578.667 446 559.667 440 547 c 1
 416 489 l 1
 398 447.667 389 417 389 397 c 2
 389 88 l 1
 500 88 l 2
 546 88 569 112 569 160 c 2
 569 471 l 2
 569 521 556.333 556.333 531 577 c 0
 511.667 592.333 493.667 602.667 477 608 c 2
 446 618 l 1
 428 688 l 1
 489 707 l 2
 561.667 728.333 628 769 688 829 c 1
 707 852 l 1
 741 760 l 1
129 668 m 0
 112.333 668 97.3333 661 84 647 c 1
 76 636.333 70.6667 622 68 604 c 1
 68 563.333 88.3333 543 129 543 c 0
 169.667 543 190 564 190 606 c 0
 190 647.333 169.667 668 129 668 c 0
EndSplineSet
EndChar
StartChar: uni0E0B
Encoding: 215 3595
OldEncoding: 3595
Width: 866
Flags: W
Fore
815 760 m 1
 793 739 l 1
 768.333 721.667 745 708.667 723 700 c 2
 604 655 l 1
 635 643 l 2
 655.667 635 674.667 620.667 692 600 c 1
 715.333 579.333 729.667 544.667 735 496 c 1
 735 158 l 2
 735 133.333 733.667 115.333 731 104 c 1
 731 88 725.667 73.6667 715 61 c 1
 690.333 20.3333 650 -1.73472e-18 594 0 c 2
 270 0 l 1
 270 88 l 1
 369 88 l 1
 369 571 l 1
 430 635 l 1
 424 649 l 2
 412.667 675 395.667 695 373 709 c 1
 367 711 l 1
 279 666 l 1
 190 711 l 1
 182 711 175.333 708 170 702 c 2
 147 680 l 1
 123 637 l 1
 119 625 l 1
 156 629 l 1
 225.333 629 267.667 592 283 518 c 0
 284.333 511.333 285 503.333 285 494 c 0
 285 468.667 278.667 445.333 266 424 c 0
 244.667 386 210.667 367 164 367 c 0
 69.3333 367 20 410.667 16 498 c 2
 14 543 l 1
 10.6667 614.333 36 679 90 737 c 0
 104 752.333 130 771.667 168 795 c 1
 276 750 l 1
 383 793 l 1
 414 778 l 2
 433.333 769.333 449 757 461 741 c 2
 489 705 l 1
 506 678 l 1
 522 618 l 1
 463 551 l 1
 463 88 l 1
 575 88 l 2
 598.333 88 616.333 95 629 109 c 1
 635.667 119.667 640.333 136.667 643 160 c 1
 643 471 l 2
 643 516.333 631.333 550.333 608 573 c 0
 592 589.667 569.667 602.667 541 612 c 2
 522 618 l 1
 504 682 l 1
 559 702 l 1
 666 754 l 2
 703.333 772 735.333 797 762 829 c 2
 780 852 l 1
 815 760 l 1
154 561 m 0
 136 561 120 554.333 106 541 c 1
 98 529.667 92.6667 515.333 90 498 c 1
 90 456.667 110.667 436 152 436 c 0
 194 436 215 457.333 215 500 c 0
 215 540.667 194.667 561 154 561 c 0
EndSplineSet
EndChar
StartChar: uni0E0C
Encoding: 216 3596
OldEncoding: 3596
Width: 1059
Flags: W
Fore
606 600 m 1
 608 305 l 1
 635 293 l 1
 658.333 276.333 678.667 253 696 223 c 2
 745 139 l 2
 760.333 113 775.667 100 791 100 c 0
 797.667 100 803 106.333 807 119 c 1
 809 152 l 1
 809 788 l 1
 901 788 l 1
 901 127 l 2
 901 41.6667 870.667 -1 810 -1 c 0
 769.333 -1 732.667 22.6667 700 70 c 2
 637 162 l 1
 606 199 l 1
 606 92 l 2
 606 65.3333 594.667 42.6667 572 24 c 0
 549.333 5.33333 524.667 -4 498 -4 c 0
 463.333 -4 434 11 410 41 c 1
 388 76.3333 377 114 377 154 c 2
 377 174 l 2
 377 254.667 422.667 303 514 319 c 1
 514 596 l 2
 514 672.667 450.667 711 324 711 c 0
 270.667 711 226 700.667 190 680 c 1
 172 666 l 1
 186 659 l 1
 250 623 l 1
 309 580 l 1
 324 565 l 1
 289 557 l 2
 263.667 551 243 537.333 227 516 c 1
 199.667 488.667 186 454 186 412 c 2
 186 246 l 1
 199 250 l 1
 236 254 l 1
 255.333 254 273 250.667 289 244 c 0
 342.333 220.667 366.667 181.667 362 127 c 1
 360 102 l 2
 357.333 70.6667 343.167 45.5 317.5 26.5 c 0
 291.833 7.5 262.333 -2 229 -2 c 0
 139 -2 94 43.6667 94 135 c 2
 94 430 l 2
 94 448.667 96.6667 464.333 102 477 c 2
 121 520 l 1
 130.333 534 141.333 546.333 154 557 c 1
 172 569 l 1
 160 580 l 1
 134 597.333 112 609.333 94 616 c 2
 41 637 l 1
 -8 651 l 1
 14 680.333 49.3333 708.333 98 735 c 0
 167.333 773.667 244 793 328 793 c 0
 401.333 793 463 779.333 513 752 c 0
 575 718.667 606 668 606 600 c 1
512 104 m 2
 512 246 l 1
 496 246 l 1
 471.333 242 457 228.333 453 205 c 1
 449 147 l 1
 445.667 101 458.333 78 487 78 c 0
 503.667 78 512 86.6667 512 104 c 2
229 66 m 0
 271.667 66 293 86.3333 293 127 c 0
 293 167.667 271.667 188 229 188 c 0
 188.333 188 168 167.667 168 127 c 0
 168 86.3333 188.333 66 229 66 c 0
EndSplineSet
EndChar
StartChar: uni0E0D
Encoding: 217 3597
OldEncoding: 3597
Width: 1114
Flags: W
Fore
958 123 m 2
 958 98.3333 953.333 76.3333 944 57 c 0
 924.667 19 892.667 0 848 0 c 2
 518 0 l 1
 518 88 l 1
 575 88 l 1
 575 594 l 2
 575 672 515 711 395 711 c 0
 341.667 711 295.333 700.667 256 680 c 1
 236 666 l 1
 250 659 l 1
 313 623 l 1
 373 580 l 1
 387 565 l 1
 352 557 l 2
 327.333 551 307 537.333 291 516 c 1
 263.667 488.667 250 454 250 412 c 2
 250 246 l 1
 262 250 l 1
 299 254 l 1
 319 254 336.667 250.667 352 244 c 0
 406 220.667 430.667 181.667 426 127 c 1
 424 102 l 2
 421.333 70.6667 407 45.5 381 26.5 c 0
 355 7.5 325.667 -2 293 -2 c 0
 203 -2 158 43.6667 158 135 c 2
 158 430 l 2
 158 448.667 160.667 464.333 166 477 c 2
 184 520 l 1
 194 534 205 546.333 217 557 c 1
 236 569 l 1
 223 580 l 1
 197 597.333 175.333 609.333 158 616 c 2
 104 637 l 1
 55 651 l 1
 77 680.333 112.667 708.333 162 735 c 0
 231.333 773.667 307.667 793 391 793 c 0
 465 793 526.667 779.333 576 752 c 0
 637.333 718 668 666.667 668 598 c 2
 668 88 l 1
 817 88 l 2
 845 88 861.333 109.333 866 152 c 1
 866 788 l 1
 958 788 l 1
 958 123 l 2
950 -82 m 1
 944 -166 l 2
 942 -195.333 929.667 -228 907 -264 c 0
 859.667 -340.667 795.667 -379 715 -379 c 0
 611.667 -379 540 -351.667 500 -297 c 0
 484.667 -277 477 -253 477 -225 c 1
 475.667 -215.667 475 -209 475 -205 c 0
 475 -124.333 515.333 -84 596 -84 c 0
 633.333 -84 663.5 -94.8333 686.5 -116.5 c 0
 709.5 -138.167 721 -167.667 721 -205 c 1
 715 -240 l 1
 711 -261.333 699.333 -276.333 680 -285 c 2
 666 -291 l 1
 676 -295 l 1
 705 -299 l 1
 767.667 -299 814 -267 844 -203 c 1
 858 -127 l 1
 862 -82 l 1
 950 -82 l 1
293 66 m 0
 335 66 356 86.3333 356 127 c 0
 356 167.667 335 188 293 188 c 0
 251.667 188 231 167.667 231 127 c 0
 231 86.3333 251.667 66 293 66 c 0
600 -147 m 0
 568 -147 549 -167 543 -207 c 1
 543 -243.667 561.333 -262 598 -262 c 0
 634.667 -262 653.667 -242.333 655 -203 c 0
 656.333 -165.667 638 -147 600 -147 c 0
EndSplineSet
EndChar
StartChar: uni0E0E
Encoding: 218 3598
OldEncoding: 3598
Width: 893
Flags: W
Fore
743 -217 m 1
 541 -424 l 1
 471 -342 l 1
 434 -309 l 1
 410 -291 l 1
 379 -324 l 2
 347 -358 315 -379.667 283 -389 c 0
 264.333 -394.333 241 -398.333 213 -401 c 1
 142.333 -401 99.3333 -374.667 84 -322 c 0
 81.3333 -312 80 -299.667 80 -285 c 0
 80 -223 103.333 -183.333 150 -166 c 2
 193 -150 l 1
 254 -143 l 1
 316.667 -143 359 -154 381 -176 c 1
 391 -154 l 1
 414 -92 l 1
 424 -43 l 1
 424 -26.3333 425.333 -15.3333 428 -10 c 1
 520 -10 l 1
 520 -38 512 -73.6667 496 -117 c 0
 488.667 -135.667 478.333 -160 465 -190 c 1
 449 -219 l 1
 545 -301 l 1
 651 -205 l 1
 651 555 l 2
 651 659 590.333 711 469 711 c 0
 405.667 711 356.667 700.667 322 680 c 2
 297 666 l 1
 311 659 l 1
 375 623 l 2
 401 607.667 420.667 593.333 434 580 c 2
 449 565 l 1
 416 557 l 2
 385.333 549.667 360.5 531.667 341.5 503 c 0
 322.5 474.333 313 444 313 412 c 2
 313 135 l 2
 313 43.6667 268 -2 178 -2 c 0
 150.667 -2 124.333 5.66667 99 21 c 0
 71.6667 37.6667 55 58.6667 49 84 c 1
 45 129 l 1
 45 182.333 69.6667 220.667 119 244 c 1
 145 252 l 1
 172 254 l 1
 207 250 l 1
 221 246 l 1
 221 430 l 2
 221 450.667 222.333 465 225 473 c 1
 246 518 l 2
 253.333 534.667 264.333 547.667 279 557 c 2
 297 569 l 1
 276 588 l 1
 260.667 598.667 242.333 608 221 616 c 2
 168 637 l 1
 119 651 l 1
 137.667 678.333 175 706.333 231 735 c 0
 305.667 773.667 383.667 793 465 793 c 0
 650.333 793 743 715 743 559 c 2
 743 -217 l 1
178 66 m 0
 219.333 66 240 86.3333 240 127 c 0
 240 167.667 219.333 188 178 188 c 0
 142 188 121 167.667 115 127 c 1
 115 86.3333 136 66 178 66 c 0
336 -240 m 1
 307 -227 l 1
 285 -220.333 263.333 -215.667 242 -213 c 1
 224 -213 212.333 -214.333 207 -217 c 1
 178 -240 l 1
 170 -252 166 -263.333 166 -274 c 0
 166 -308.667 186.333 -326 227 -326 c 1
 248.333 -322.667 271 -313 295 -297 c 0
 322.333 -277.667 336 -258.667 336 -240 c 1
EndSplineSet
EndChar
StartChar: uni0E0F
Encoding: 219 3599
OldEncoding: 3599
Width: 887
Flags: W
Fore
741 -213 m 1
 735.667 -231.667 730.333 -247.333 725 -260 c 0
 700.333 -320.667 653.333 -372 584 -414 c 1
 494 -289 l 1
 399 -416 l 1
 330 -317 l 1
 317 -342 l 2
 309.667 -357.333 299.667 -369 287 -377 c 2
 233 -410 l 1
 197 -418 l 1
 156 -414 l 2
 133.333 -411.333 114.667 -394 100 -362 c 0
 88 -335.333 82 -309 82 -283 c 1
 88 -236 l 1
 107.333 -166 145 -131 201 -131 c 0
 248.333 -131 285 -148.667 311 -184 c 1
 315 -170 l 1
 340 -92 l 2
 348 -66 352 -47 352 -35 c 2
 352 -12 l 1
 434 -12 l 1
 428 -55 l 1
 419.333 -114.333 402.333 -169.667 377 -221 c 2
 369 -238 l 1
 395 -285 l 1
 494 -141 l 1
 594 -297 l 1
 622.667 -281.667 641 -253.667 649 -213 c 1
 649 588 l 2
 649 670 589.667 711 471 711 c 0
 407.667 711 358.667 700.667 324 680 c 2
 299 666 l 1
 313 659 l 1
 377 623 l 2
 403 607.667 422.667 593.333 436 580 c 2
 451 565 l 1
 418 557 l 2
 387.333 549.667 362.5 531.667 343.5 503 c 0
 324.5 474.333 315 444 315 412 c 2
 315 135 l 2
 315 43.6667 270 -2 180 -2 c 0
 152.667 -2 126.333 5.66667 101 21 c 0
 73.6667 37.6667 57 58.6667 51 84 c 1
 47 129 l 1
 47 182.333 71.6667 220.667 121 244 c 1
 147 252 l 1
 174 254 l 1
 209 250 l 1
 223 246 l 1
 223 430 l 2
 223 450.667 224.333 465 227 473 c 1
 248 518 l 2
 255.333 534.667 266.333 547.667 281 557 c 2
 299 569 l 1
 279 588 l 1
 263 598.667 244.333 608 223 616 c 2
 170 637 l 1
 121 651 l 1
 139.667 678.333 177 706.333 233 735 c 0
 307.667 773.667 385.667 793 467 793 c 0
 543 793 605 778.667 653 750 c 0
 711.667 715.333 741 662.667 741 592 c 2
 741 -213 l 1
180 66 m 0
 221.333 66 242 86.3333 242 127 c 0
 242 167.667 221.333 188 180 188 c 0
 144 188 123 167.667 117 127 c 1
 117 86.3333 138 66 180 66 c 0
276 -246 m 1
 262 -231 l 2
 242.667 -212.333 223 -203 203 -203 c 0
 189 -203 177.333 -213.667 168 -235 c 0
 160 -252.333 156 -269 156 -285 c 0
 156 -322.333 168.333 -342.667 193 -346 c 0
 213 -349.333 236 -327.667 262 -281 c 1
 276 -246 l 1
EndSplineSet
EndChar
StartChar: uni0E10
Encoding: 220 3600
OldEncoding: 3600
Width: 707
Flags: W
Fore
647 696 m 1
 623 686 l 1
 567 676 l 1
 536.333 676 500.333 680.667 459 690 c 0
 405.667 702.667 364.667 709 336 709 c 0
 294.667 709 259.667 701.333 231 686 c 1
 199 664 l 1
 301 649 l 2
 373 639 437.333 613.667 494 573 c 0
 544 537 569 488.667 569 428 c 2
 569 127 l 2
 569 86.3333 553.667 53.6667 523 29 c 0
 495 7 460 -4 418 -4 c 0
 379.333 -4 346.667 6.66667 320 28 c 0
 290.667 51.3333 276 81.6667 276 119 c 2
 276 219 l 1
 264 215 l 1
 227 211 l 1
 207 211 189.333 214.333 174 221 c 0
 124.667 243 100 282 100 338 c 1
 104 381 l 1
 110 407 126.667 428 154 444 c 0
 178.667 459.333 205 467 233 467 c 0
 323.667 467 369 421.333 369 330 c 2
 369 143 l 2
 369 99.6667 388 78 426 78 c 0
 445.333 78 459 84 467 96 c 1
 471 106 474.333 122.333 477 145 c 1
 477 418 l 2
 477 458.667 460.667 492.667 428 520 c 0
 386 555.333 300.667 582 172 600 c 0
 114 608 73.6667 610.667 51 608 c 1
 81 664.667 111.833 705.5 143.5 730.5 c 0
 175.167 755.5 221.667 773.333 283 784 c 1
 322 786 l 2
 345.333 787.333 381.833 781.667 431.5 769 c 0
 481.167 756.333 517.667 750 541 750 c 1
 563.667 746.667 586 750 608 760 c 2
 623 768 l 1
 647 696 l 1
567 -301 m 1
 426 -395 l 1
 336 -334 l 1
 231 -395 l 1
 221 -381 l 1
 190 -330 l 1
 160 -365 l 1
 144.667 -377 126.667 -384.333 106 -387 c 1
 73.3333 -387 47.1667 -376.167 27.5 -354.5 c 0
 7.83333 -332.833 -2 -305.333 -2 -272 c 0
 -2 -224.667 20.6667 -190.667 66 -170 c 1
 102 -162 l 1
 136.667 -162 163.333 -171.333 182 -190 c 1
 188 -174 l 1
 199 -123 l 1
 211 -51 l 1
 289 -51 l 1
 289 -68.3333 282.667 -106.667 270 -166 c 0
 266 -186.667 259.333 -205 250 -221 c 1
 236 -254 l 1
 258 -295 l 1
 338 -252 l 1
 426 -307 l 1
 496 -264 l 1
 496 -236 l 1
 461 -242 l 1
 435 -242 412 -231.833 392 -211.5 c 0
 372 -191.167 362 -167.667 362 -141 c 0
 362 -77 395 -45 461 -45 c 1
 494 -49 l 1
 521.333 -57 541 -71.3333 553 -92 c 1
 562.333 -116.667 567 -142.667 567 -170 c 2
 567 -301 l 1
233 276 m 0
 274.333 276 295 296.667 295 338 c 0
 295 378.667 274.333 399 233 399 c 0
 197 399 176 378.667 170 338 c 1
 170 296.667 191 276 233 276 c 0
504 -141 m 0
 504 -115 491 -102 465 -102 c 0
 437.667 -102 424 -115.667 424 -143 c 0
 424 -169 437 -182 463 -182 c 0
 490.333 -182 504 -168.333 504 -141 c 0
143 -260 m 1
 123 -246 l 2
 109 -236 96.6667 -231.667 86 -233 c 1
 72.6667 -237.667 66 -251.333 66 -274 c 0
 66 -302.667 77.3333 -317 100 -317 c 0
 115.333 -317 127 -307.667 135 -289 c 1
 143 -260 l 1
EndSplineSet
EndChar
StartChar: uni0E11
Encoding: 221 3601
OldEncoding: 3601
Width: 1090
Flags: W
Fore
938 0 m 1
 846 0 l 1
 846 633 l 2
 846 663 834.333 680.667 811 686 c 1
 800.333 686 790 683.333 780 678 c 1
 758 653 l 1
 713 580 l 1
 637 440 l 1
 549 256 l 2
 517.667 190.667 501.333 143 500 113 c 1
 494 0 l 1
 395 0 l 1
 395 567 l 1
 422 592 l 1
 438 611.333 447.667 627 451 639 c 1
 451 651 438.667 668.667 414 692 c 1
 393 707 l 1
 295 657 l 1
 205 707 l 1
 158.333 687.667 131 649.333 123 592 c 1
 142.333 600 162 604 182 604 c 1
 233 596 l 1
 282.333 580.667 307 541 307 477 c 0
 307 395 266 354 184 354 c 0
 84.6667 354 35 414.333 35 535 c 0
 35 652.333 86 738.333 188 793 c 1
 295 731 l 1
 403 793 l 1
 436 772 l 2
 476.667 746.667 508.667 713.333 532 672 c 2
 541 657 l 1
 541 614 l 1
 518 586 l 1
 487 555 l 1
 487 313 l 1
 498.333 351.667 514.333 390.667 535 430 c 2
 606 569 l 2
 681.333 715 749 788 809 788 c 0
 841 788 870.5 773.333 897.5 744 c 0
 924.5 714.667 938 683.667 938 651 c 2
 938 0 l 1
184 414 m 0
 228 414 250 435 250 477 c 0
 250 519.667 228 541.667 184 543 c 0
 142 544.333 121 522.333 121 477 c 0
 121 458.333 129 441.333 145 426 c 1
 156.333 418 169.333 414 184 414 c 0
EndSplineSet
EndChar
StartChar: uni0E12
Encoding: 222 3602
OldEncoding: 3602
Width: 1096
Flags: W
Fore
938 133 m 2
 938 66.3333 922.333 26 891 12 c 0
 872.333 4 854.667 -1.33333 838 -4 c 1
 812 -4 787.333 9.66667 764 37 c 0
 749.333 53.6667 731.667 81 711 119 c 0
 681 172.333 663.667 199.667 659 201 c 1
 662 193 l 1
 662 94 l 2
 662 49.3333 642.667 19.3333 604 4 c 1
 580 -2 l 1
 557 -4 l 1
 515.667 -4 482.667 14.6667 458 52 c 0
 436.667 84.6667 426 122.667 426 166 c 0
 426 243.333 454.667 294.333 512 319 c 0
 530 327 549.667 332.667 571 336 c 1
 571 571 l 2
 571 613.667 561.667 644.667 543 664 c 1
 522.333 688 503 703 485 709 c 1
 373 625 l 1
 256 709 l 1
 228 693 207.667 679.333 195 668 c 0
 153.667 630 127 584.667 115 532 c 1
 111 481 l 1
 108.333 454.333 113.667 420.333 127 379 c 0
 130.333 368.333 145.333 333.333 172 274 c 2
 229 147 l 1
 242 182 l 1
 268 238 l 1
 307 315 l 1
 260 317 l 1
 205.333 333.667 178 374 178 438 c 0
 178 474.667 190.833 505.333 216.5 530 c 0
 242.167 554.667 273 567 309 567 c 0
 336.333 567 362.333 559 387 543 c 1
 422.333 514.333 440 480 440 440 c 1
 434 399 l 1
 430 387 401.333 329 348 225 c 1
 324.667 189 307 148 295 102 c 2
 281 47 l 1
 279 0 l 1
 180 0 l 1
 174 39 l 2
 166.667 87 139 163 91 267 c 0
 48.3333 360.333 27 433 27 485 c 0
 27 570.333 51.3333 639.333 100 692 c 0
 132.667 726.667 188.667 760.333 268 793 c 1
 373 715 l 1
 481 795 l 1
 514 780 l 2
 531.333 772.667 554.667 756.333 584 731 c 0
 637.333 685 664 631.667 664 571 c 2
 664 307 l 1
 682 293 l 2
 696.667 281.667 709.667 265.333 721 244 c 2
 770 152 l 2
 792.667 109.333 811.667 88 827 88 c 0
 838.333 88 844 97.6667 844 117 c 2
 844 788 l 1
 938 788 l 1
 938 133 l 2
309 375 m 0
 353 375 375 396.667 375 440 c 0
 375 482.667 353 504.667 309 506 c 0
 272.333 507.333 250.667 485.333 244 440 c 1
 244 396.667 265.667 375 309 375 c 0
571 104 m 2
 571 266 l 1
 541 258 519.333 238.333 506 207 c 1
 500 164 l 1
 500 108 515 78.6667 545 76 c 0
 562.333 76 571 85.3333 571 104 c 2
EndSplineSet
EndChar
StartChar: uni0E13
Encoding: 223 3603
OldEncoding: 3603
Width: 1094
Flags: W
Fore
1096 186 m 0
 1096 59.3333 1050 -4 958 -4 c 0
 879.333 -4 840 35.6667 840 115 c 2
 840 244 l 1
 800 220.667 760.333 185.667 721 139 c 1
 662 53 l 1
 631 0 l 1
 541 0 l 1
 541 592 l 2
 541 671.333 481.333 711 362 711 c 0
 291.333 711 235 696 193 666 c 1
 207 659 l 1
 270 623 l 1
 330 580 l 1
 344 565 l 1
 309 557 l 2
 284.333 551 264 537.333 248 516 c 1
 220.667 488.667 207 454 207 412 c 2
 207 246 l 1
 219 250 l 1
 256 254 l 1
 276 254 293.667 250.667 309 244 c 0
 363 220.667 387.667 181.667 383 127 c 1
 381 102 l 2
 378.333 70.6667 364 45.5 338 26.5 c 0
 312 7.5 282.667 -2 250 -2 c 0
 160 -2 115 43.6667 115 135 c 2
 115 430 l 2
 115 448.667 117.667 464.333 123 477 c 2
 141 520 l 1
 151 534 162 546.333 174 557 c 1
 193 569 l 1
 180 580 l 1
 154 597.333 132.333 609.333 115 616 c 2
 61 637 l 1
 12 651 l 1
 32.6667 678.333 71 706.333 127 735 c 0
 201.667 773.667 278.667 793 358 793 c 0
 433.333 793 495 779.333 543 752 c 0
 603 718 633 666 633 596 c 2
 633 154 l 1
 662 195 l 2
 690 235 724.667 269 766 297 c 0
 771.333 301 783 307.667 801 317 c 2
 836 334 l 1
 836 788 l 1
 928 788 l 1
 928 342 l 1
 1040 342 1096 290 1096 186 c 0
1014 199 m 2
 1009.33 222.333 998.333 238 981 246 c 1
 969 254 951.333 258 928 258 c 1
 928 123 l 2
 928 103.667 931.333 90.6667 938 84 c 1
 973 76 l 1
 1004.33 76 1020 102.667 1020 156 c 1
 1018 178 l 1
 1014 199 l 2
250 66 m 0
 292 66 313 86.3333 313 127 c 0
 313 167.667 292 188 250 188 c 0
 208.667 188 188 167.667 188 127 c 0
 188 86.3333 208.667 66 250 66 c 0
EndSplineSet
EndChar
StartChar: uni0E14
Encoding: 224 3604
OldEncoding: 3604
Width: 821
Flags: W
Fore
672 0 m 1
 578 0 l 1
 578 541 l 2
 578 621.667 533.333 675.333 444 702 c 0
 420 709.333 394.333 713 367 713 c 0
 303.667 713 251 696 209 662 c 0
 160.333 622.667 134.333 572.667 131 512 c 2
 129 475 l 2
 127 439.667 132.333 408.333 145 381 c 0
 149 370.333 164 339.667 190 289 c 1
 240 195 l 1
 258 164 l 1
 274 193 l 1
 295 233 l 1
 338 307 l 1
 302.667 307 272.333 320.833 247 348.5 c 0
 221.667 376.167 209 407.333 209 442 c 0
 209 480.667 221.833 511.833 247.5 535.5 c 0
 273.167 559.167 305.333 571 344 571 c 0
 407.333 571 447.667 546 465 496 c 0
 469 484.667 472.333 466.667 475 442 c 1
 475 406 468.333 375.333 455 350 c 2
 428 301 l 1
 317 117 l 1
 295 66 l 1
 283 0 l 1
 203 0 l 1
 207 55 l 1
 207.667 69.6667 206.333 81.3333 203 90 c 2
 180 143 l 1
 98 307 l 2
 66.6667 369.667 51 440 51 518 c 0
 51 596.667 84 662.333 150 715 c 0
 211.333 763.667 282 788 362 788 c 0
 444 788 514 769 572 731 c 0
 638.667 687.667 672 627 672 549 c 2
 672 0 l 1
344 373 m 0
 389.333 373 412 395.333 412 440 c 0
 412 455.333 405.667 471 393 487 c 0
 382.333 498.333 366 505.333 344 508 c 1
 298.667 508 276 485.333 276 440 c 0
 276 395.333 298.667 373 344 373 c 0
EndSplineSet
EndChar
StartChar: uni0E15
Encoding: 225 3605
OldEncoding: 3605
Width: 862
Flags: W
Fore
713 0 m 1
 621 0 l 1
 618 596 l 1
 618 616.667 609.5 638.667 592.5 662 c 0
 575.5 685.333 557 701.667 537 711 c 1
 430 633 l 1
 319 717 l 1
 215.667 677 161.333 608.667 156 512 c 2
 154 475 l 1
 152 441 157.333 408.333 170 377 c 0
 174 367.667 189.667 337.667 217 287 c 2
 281 170 l 1
 291 143 l 1
 340 236 l 1
 358 272 l 1
 379 307 l 1
 326 313 l 1
 312 319.667 297 330 281 344 c 0
 252.333 369.333 238 402.667 238 444 c 0
 238 482.667 250.833 513.833 276.5 537.5 c 0
 302.167 561.167 334.333 573 373 573 c 0
 410.333 573 441.833 560.833 467.5 536.5 c 0
 493.167 512.167 506 481.333 506 444 c 1
 500 391 l 1
 463 301 l 1
 346 61 l 2
 338 44.3333 334 24 334 0 c 1
 236 0 l 1
 227 61 l 1
 227 80.3333 221 107.667 209 143 c 1
 129 311 l 2
 92.3333 389 74 458.667 74 520 c 0
 74 652.667 162 744.333 338 795 c 1
 428 725 l 1
 528 795 l 1
 554 790.333 576.667 781.333 596 768 c 1
 674 728.667 713 657.667 713 555 c 2
 713 0 l 1
381 369 m 0
 426.333 369 449 391.333 449 436 c 0
 449 451.333 442.667 467 430 483 c 0
 419.333 494.333 403 501.333 381 504 c 1
 334.333 504 311 481.333 311 436 c 0
 311 391.333 334.333 369 381 369 c 0
EndSplineSet
EndChar
StartChar: uni0E16
Encoding: 226 3606
OldEncoding: 3606
Width: 840
Flags: W
Fore
696 0 m 1
 604 0 l 1
 604 559 l 2
 604 660.333 534.333 711 395 711 c 0
 339 711 287.333 700.667 240 680 c 1
 213 666 l 1
 227 659 l 1
 291 623 l 1
 350 580 l 1
 365 565 l 1
 330 557 l 2
 304.667 551 284 537.333 268 516 c 1
 240.667 488.667 227 454 227 412 c 2
 227 246 l 1
 240 250 l 1
 276 254 l 1
 296 254 314 250.667 330 244 c 0
 383.333 220.667 407.667 181.667 403 127 c 1
 401 102 l 2
 398.333 70.6667 384.167 45.5 358.5 26.5 c 0
 332.833 7.5 303.333 -2 270 -2 c 0
 180 -2 135 43.6667 135 135 c 2
 135 430 l 2
 135 448.667 137.667 464.333 143 477 c 2
 162 520 l 1
 171.333 534 182.333 546.333 195 557 c 1
 213 569 l 1
 201 580 l 1
 175 597.333 153 609.333 135 616 c 2
 82 637 l 1
 33 651 l 1
 64.3333 689.667 121 724.667 203 756 c 0
 267 780.667 329.667 793 391 793 c 0
 474.333 793 543.333 775.667 598 741 c 0
 663.333 700.333 696 641 696 563 c 2
 696 0 l 1
270 66 m 0
 312.667 66 334 86.3333 334 127 c 0
 334 167.667 312.667 188 270 188 c 0
 229.333 188 209 167.667 209 127 c 0
 209 86.3333 229.333 66 270 66 c 0
EndSplineSet
EndChar
StartChar: uni0E17
Encoding: 227 3607
OldEncoding: 3607
Width: 924
Flags: W
Fore
776 0 m 1
 684 0 l 1
 682 662 l 1
 682 696 667.667 713 639 713 c 0
 613 713 592.667 701.333 578 678 c 2
 481 530 l 2
 421 438 377.333 337 350 227 c 0
 344 203 338.667 180 334 158 c 1
 330 120.667 328 68 328 0 c 1
 236 0 l 1
 236 543 l 1
 223 539 l 1
 186 535 l 1
 166 535 148.333 538.333 133 545 c 0
 83.6667 567 59 606 59 662 c 1
 63 705 l 1
 69 730.333 85.6667 751.333 113 768 c 0
 137.667 783.333 164.333 791 193 791 c 0
 283 791 328 745 328 653 c 2
 328 399 l 1
 367 477 l 1
 440 618 l 2
 500 733.333 567 791 641 791 c 0
 664.333 791 680.667 788 690 782 c 1
 731 745 l 2
 749 729.667 761.333 708 768 680 c 1
 776 604 l 1
 776 0 l 1
193 600 m 0
 233.667 600 254 620.667 254 662 c 0
 254 702.667 233.667 723 193 723 c 0
 156.333 723 135 702.667 129 662 c 1
 129 620.667 150.333 600 193 600 c 0
EndSplineSet
EndChar
StartChar: uni0E18
Encoding: 228 3608
OldEncoding: 3608
Width: 733
Flags: W
Fore
463 580 m 1
 520.333 544 560.667 501 584 451 c 1
 584 119 l 2
 584 56.3333 545 16.6667 467 0 c 1
 117 0 l 1
 115 88 l 1
 205 88 l 1
 205 582 l 1
 133 592 l 1
 53 594 l 2
 41 594 35 600.667 35 614 c 0
 35 647.333 46.6667 675.333 70 698 c 1
 114.667 756.667 183.333 786 276 786 c 0
 308 786 355.167 779.167 417.5 765.5 c 0
 479.833 751.833 527 745 559 745 c 0
 607 745 644.667 759.333 672 788 c 1
 713 713 l 1
 682 694 l 1
 637 676 l 1
 604 668 l 1
 567 666 l 2
 543.667 664.667 515.667 668 483 676 c 2
 393 698 l 1
 330 711 l 1
 285 715 l 1
 229 713 l 2
 208.333 712.333 187.333 705.333 166 692 c 1
 147 678 l 1
 137 662 l 1
 214.333 662 287.333 651.667 356 631 c 0
 398.667 618.333 434.333 601.333 463 580 c 1
492 127 m 1
 492 426 l 1
 472 468.667 445.333 498 412 514 c 2
 350 543 l 2
 337.333 549 319.667 554.333 297 559 c 1
 297 86 l 1
 453 90 l 2
 461 90 469 94.6667 477 104 c 1
 492 127 l 1
EndSplineSet
EndChar
StartChar: uni0E19
Encoding: 229 3609
OldEncoding: 3609
Width: 893
Flags: W
Fore
719 -6 m 1
 694 -2 l 1
 666 8 l 1
 623.333 30 602 77.3333 602 150 c 2
 602 272 l 1
 578 270 l 1
 534 259.333 480.667 227.333 418 174 c 0
 365.333 129.333 328.333 83.6667 307 37 c 2
 289 -4 l 1
 197 -4 l 1
 197 539 l 1
 184 535 l 1
 147 530 l 1
 127 530 109.333 533.667 94 541 c 0
 44.6667 563 20 601.667 20 657 c 1
 25 700 l 1
 30.3333 726 46.6667 747.333 74 764 c 0
 98.6667 778.667 125.333 786 154 786 c 0
 244 786 289 740.333 289 649 c 2
 289 156 l 1
 326 199 l 2
 364.667 243.667 414.333 281 475 311 c 0
 486.333 317 509 326.667 543 340 c 1
 602 358 l 1
 602 784 l 1
 694 784 l 1
 694 356 l 1
 729 354 l 1
 817.667 330.667 862 269.333 862 170 c 0
 862 120.667 851 80 829 48 c 0
 803 12 766.333 -6 719 -6 c 1
776 184 m 1
 776 233.333 755.667 262 715 270 c 1
 686 272 l 1
 686 152 l 2
 686 100 701 74 731 74 c 0
 762.333 74 778 103.333 778 162 c 1
 776 184 l 1
154 596 m 0
 194.667 596 215 616.333 215 657 c 0
 215 699.667 194.667 721 154 721 c 0
 117.333 721 96 699.667 90 657 c 1
 90 616.333 111.333 596 154 596 c 0
EndSplineSet
EndChar
StartChar: uni0E1A
Encoding: 230 3610
OldEncoding: 3610
Width: 860
Flags: W
Fore
707 119 m 2
 707 84.3333 695.333 55.8333 672 33.5 c 0
 648.667 11.1667 620 -8.67362e-19 586 0 c 2
 88 0 l 1
 88 88 l 1
 186 88 l 1
 186 543 l 1
 174 539 l 1
 139 535 l 1
 121.667 535 105.333 538.333 90 545 c 0
 43.3333 565.667 20 604.667 20 662 c 1
 25 705 l 1
 27 727.667 42 748 70 766 c 0
 95.3333 782.667 120.333 791 145 791 c 0
 231 791 274 745 274 653 c 2
 274 88 l 1
 559 88 l 2
 579 88 595.333 95 608 109 c 0
 614 114.333 617.333 123.667 618 137 c 1
 618 788 l 1
 707 788 l 1
 707 119 l 2
145 600 m 0
 185 600 205 620.667 205 662 c 0
 205 702.667 185 723 145 723 c 0
 113.667 723 94.6667 702.667 88 662 c 1
 88 620.667 107 600 145 600 c 0
EndSplineSet
EndChar
StartChar: uni0E1B
Encoding: 231 3611
OldEncoding: 3611
Width: 850
Flags: W
Fore
711 119 m 2
 711 84.3333 699.333 55.8333 676 33.5 c 0
 652.667 11.1667 624 -8.67362e-19 590 0 c 2
 98 0 l 1
 98 88 l 1
 197 88 l 1
 197 543 l 1
 184 539 l 1
 150 535 l 1
 132 535 115.333 538.333 100 545 c 0
 54 565.667 31 604.667 31 662 c 1
 35 705 l 2
 37 727.667 52 748 80 766 c 0
 105.333 782.667 130.667 791 156 791 c 0
 242 791 285 745 285 653 c 2
 285 88 l 1
 563 88 l 2
 583 88 599.333 95 612 109 c 0
 618 114.333 621.667 123.667 623 137 c 1
 623 1184 l 1
 711 1184 l 1
 711 119 l 2
156 600 m 0
 195.333 600 215 620.667 215 662 c 0
 215 702.667 195.333 723 156 723 c 0
 124 723 104.667 702.667 98 662 c 1
 98 620.667 117.333 600 156 600 c 0
EndSplineSet
EndChar
StartChar: uni0E1C
Encoding: 232 3612
OldEncoding: 3612
Width: 854
Flags: W
Fore
694 0 m 1
 606 0 l 1
 580 65.3333 559 111 543 137 c 0
 533.667 151.667 521.333 168.667 506 188 c 2
 451 258 l 2
 435.667 277.333 419.667 292.333 403 303 c 1
 358 262 l 1
 299 190 l 2
 271.667 157.333 252 126 240 96 c 2
 201 2 l 1
 113 2 l 1
 113 653 l 2
 113 693.667 124.333 726.833 147 752.5 c 0
 169.667 778.167 201.333 791 242 791 c 0
 268.667 791 294 783 318 767 c 0
 344.667 750.333 359.333 729.667 362 705 c 1
 367 672 l 1
 367 657 l 2
 367 604.333 344.333 567 299 545 c 0
 285 538.333 268 535 248 535 c 0
 235.333 535 224.333 536.333 215 539 c 2
 201 543 l 1
 201 174 l 1
 210.333 206 242.333 250.333 297 307 c 2
 348 360 l 1
 403 406 l 1
 457 362 l 1
 508 309 l 2
 534 281.667 556.333 253 575 223 c 2
 606 174 l 1
 606 788 l 1
 694 788 l 1
 694 0 l 1
242 600 m 0
 276 600 295.667 620.667 301 662 c 1
 301 702.667 281.333 723 242 723 c 0
 210 723 190.667 702.667 184 662 c 1
 184 620.667 203.333 600 242 600 c 0
EndSplineSet
EndChar
StartChar: uni0E1D
Encoding: 233 3613
OldEncoding: 3613
Width: 854
Flags: W
Fore
711 0 m 1
 623 0 l 1
 596.333 65.3333 575 111 559 137 c 0
 549.667 151.667 537.333 168.667 522 188 c 2
 467 258 l 2
 451.667 277.333 436 292.333 420 303 c 1
 375 262 l 1
 315 190 l 2
 288.333 157.333 268.667 126 256 96 c 2
 217 2 l 1
 129 2 l 1
 129 653 l 2
 129 693.667 140.5 726.833 163.5 752.5 c 0
 186.5 778.167 218 791 258 791 c 0
 284.667 791 310 783 334 767 c 0
 360.667 750.333 375.667 729.667 379 705 c 1
 383 672 l 1
 383 657 l 2
 383 604.333 360.333 567 315 545 c 0
 301 538.333 284 535 264 535 c 0
 252 535 241 536.333 231 539 c 2
 217 543 l 1
 217 174 l 1
 227 206 259 250.333 313 307 c 2
 365 360 l 1
 420 406 l 1
 473 362 l 1
 524 309 l 2
 550.667 281.667 573.333 253 592 223 c 2
 623 174 l 1
 623 1184 l 1
 711 1184 l 1
 711 0 l 1
258 600 m 0
 292 600 311.667 620.667 317 662 c 1
 317 702.667 297.333 723 258 723 c 0
 226 723 207 702.667 201 662 c 1
 201 620.667 220 600 258 600 c 0
EndSplineSet
EndChar
StartChar: uni0E1E
Encoding: 234 3614
OldEncoding: 3614
Width: 934
Flags: W
Fore
782 0 m 1
 696 0 l 1
 674 90 l 1
 662.667 134.667 641.333 191.333 610 260 c 0
 570.667 347.333 546.333 403.333 537 428 c 0
 529 446.667 517.333 482.333 502 535 c 1
 483 618 l 1
 469 535 l 2
 459 475.667 435.667 409.333 399 336 c 0
 367.667 272 339.667 204.333 315 133 c 0
 301.667 92.3333 290.333 48 281 0 c 1
 190 0 l 1
 190 543 l 1
 178 539 l 1
 143 535 l 1
 125.667 535 109.333 538.333 94 545 c 0
 48 565.667 25 604.667 25 662 c 1
 29 705 l 2
 31 727.667 46 748 74 766 c 0
 99.3333 782.667 124.667 791 150 791 c 0
 236 791 279 745 279 653 c 2
 279 262 l 1
 348 424 l 2
 382 503.333 404 571.667 414 629 c 1
 430 727 l 1
 432 788 l 1
 524 788 l 1
 530 731 l 1
 549 635 l 1
 554.333 605 564 572.333 578 537 c 2
 580 532 l 2
 587.333 514.667 601 483.333 621 438 c 1
 694 262 l 1
 694 788 l 1
 782 788 l 1
 782 0 l 1
150 600 m 0
 189.333 600 209 620.667 209 662 c 0
 209 702.667 189.333 723 150 723 c 0
 118 723 98.6667 702.667 92 662 c 1
 92 620.667 111.333 600 150 600 c 0
EndSplineSet
EndChar
StartChar: uni0E1F
Encoding: 235 3615
OldEncoding: 3615
Width: 934
Flags: W
Fore
778 0 m 1
 692 0 l 1
 670 90 l 1
 658.667 134.667 637.333 191.333 606 260 c 0
 566.667 347.333 542 403.333 532 428 c 0
 524.667 446.667 513.333 482.333 498 535 c 1
 479 618 l 1
 465 535 l 2
 455 475.667 431.667 409.333 395 336 c 0
 363.667 272 335.667 204.333 311 133 c 0
 297.667 92.3333 286 48 276 0 c 1
 186 0 l 1
 186 543 l 1
 174 539 l 1
 139 535 l 1
 121.667 535 105.333 538.333 90 545 c 0
 43.3333 565.667 20 604.667 20 662 c 1
 25 705 l 1
 27 727.667 42 748 70 766 c 0
 95.3333 782.667 120.333 791 145 791 c 0
 231 791 274 745 274 653 c 2
 274 262 l 1
 344 424 l 2
 378 503.333 400 571.667 410 629 c 1
 426 727 l 1
 428 788 l 1
 520 788 l 1
 526 731 l 1
 545 635 l 1
 550.333 605 560 572.333 574 537 c 1
 575 532 l 1
 583 514.667 596.667 483.333 616 438 c 2
 690 262 l 1
 690 1182 l 1
 778 1182 l 1
 778 0 l 1
145 600 m 0
 185 600 205 620.667 205 662 c 0
 205 702.667 185 723 145 723 c 0
 113.667 723 94.6667 702.667 88 662 c 1
 88 620.667 107 600 145 600 c 0
EndSplineSet
EndChar
StartChar: uni0E20
Encoding: 236 3616
OldEncoding: 3616
Width: 952
Flags: W
Fore
799 0 m 1
 707 0 l 1
 707 559 l 2
 707 660.333 637.333 711 498 711 c 0
 422.667 711 361 696 313 666 c 1
 328 659 l 1
 391 623 l 2
 417 607.667 437 593.333 451 580 c 2
 465 565 l 1
 432 557 l 2
 402 549.667 377.5 531.667 358.5 503 c 0
 339.5 474.333 330 444 330 412 c 2
 330 135 l 2
 330 43.6667 285 -2 195 -2 c 0
 167.667 -2 141.333 5.66667 116 21 c 0
 88 37.6667 71.3333 58.6667 66 84 c 1
 61 129 l 1
 61 182.333 85.6667 220.667 135 244 c 1
 162 252 l 1
 188 254 l 1
 223 250 l 1
 238 246 l 1
 238 430 l 2
 238 450.667 239.333 465 242 473 c 1
 262 518 l 2
 269.333 534.667 280.333 547.667 295 557 c 2
 313 569 l 1
 293 588 l 1
 277 598.667 258.667 608 238 616 c 2
 184 637 l 1
 135 651 l 1
 153 676.333 192.667 703.667 254 733 c 0
 335.333 773 415.333 793 494 793 c 0
 576.667 793 645.333 776 700 742 c 0
 766 701.333 799 641.667 799 563 c 2
 799 0 l 1
195 66 m 0
 235.667 66 256 86.3333 256 127 c 0
 256 167.667 235.667 188 195 188 c 0
 159 188 137.667 167.667 131 127 c 1
 131 86.3333 152.333 66 195 66 c 0
EndSplineSet
EndChar
StartChar: uni0E21
Encoding: 237 3617
OldEncoding: 3617
Width: 889
Flags: W
Fore
729 182 m 2
 729 135.333 727.667 105.333 725 92 c 0
 712.333 29.3333 670.667 -2 600 -2 c 0
 561.333 -2 527.333 14.3333 498 47 c 2
 350 209 l 1
 350 111 l 2
 350 79 338.5 51.8333 315.5 29.5 c 0
 292.5 7.16667 265 -4 233 -4 c 0
 187.667 -4 151.667 12.3333 125 45 c 0
 100.333 75 88 113.333 88 160 c 0
 88 192.667 95 222.667 109 250 c 0
 137.667 307.333 187.333 336 258 336 c 1
 258 543 l 1
 246 539 l 1
 209 535 l 1
 189 535 171.333 538.333 156 545 c 0
 106.667 567 82 606 82 662 c 1
 86 705 l 1
 91.3333 730.333 107.667 751.333 135 768 c 0
 160.333 783.333 187 791 215 791 c 0
 305 791 350 745 350 653 c 2
 350 317 l 1
 551 113 l 1
 565.667 100.333 582 92.6667 600 90 c 1
 612 90 621 97 627 111 c 1
 635 166 l 1
 635 788 l 1
 729 788 l 1
 729 182 l 2
215 600 m 0
 255.667 600 276 620.667 276 662 c 0
 276 702.667 255.667 723 215 723 c 0
 179 723 158 702.667 152 662 c 1
 152 620.667 173 600 215 600 c 0
258 127 m 1
 258 252 l 1
 211 246 l 2
 183.667 242 170 212.667 170 158 c 0
 170 102 186.333 74 219 74 c 0
 233 74 243.333 77.3333 250 84 c 1
 252.667 89.3333 255.333 103.667 258 127 c 1
EndSplineSet
EndChar
StartChar: uni0E22
Encoding: 238 3618
OldEncoding: 3618
Width: 831
Flags: W
Fore
207 195 m 2
 207 88 l 1
 518 88 l 2
 560.667 88 582 110.667 582 156 c 2
 582 788 l 1
 674 788 l 1
 674 152 l 2
 674 50.6667 624 -3.46945e-18 524 0 c 2
 115 0 l 1
 115 188 l 1
 121 260 l 1
 123.667 294.667 144 324.667 182 350 c 1
 236 375 l 1
 201.333 379 172.5 392.667 149.5 416 c 0
 126.5 439.333 115 468 115 502 c 2
 115 651 l 2
 115 692.333 127.167 725.5 151.5 750.5 c 0
 175.833 775.5 208.667 788 250 788 c 0
 332 788 375.667 753.333 381 684 c 2
 383 657 l 2
 387 605.667 362.333 567.667 309 543 c 1
 283 535 l 1
 256 532 l 1
 221 537 l 1
 207 541 l 1
 207 498 l 2
 207 475.333 221.333 452 250 428 c 0
 260.667 418.667 283 411.333 317 406 c 2
 365 397 l 1
 365 344 l 1
 328 344 l 1
 302.667 339.333 287.667 336.333 283 335 c 0
 266.333 329.667 254 321 246 309 c 2
 221 274 l 1
 211.667 255.333 207 229 207 195 c 2
250 598 m 0
 292 598 313 618.333 313 659 c 0
 313 700.333 292 721 250 721 c 0
 208.667 721 188 700.333 188 659 c 0
 188 618.333 208.667 598 250 598 c 0
EndSplineSet
EndChar
StartChar: uni0E23
Encoding: 239 3619
OldEncoding: 3619
Width: 670
Flags: W
Fore
647 707 m 1
 598 684 l 1
 551 676 l 1
 528 674 l 2
 507.333 674 465.667 682.667 403 700 c 0
 365 711.333 334.333 717 311 717 c 2
 279 717 l 1
 244 707 l 2
 228 702.333 214.333 694.667 203 684 c 2
 184 668 l 1
 206 666 235.333 660.333 272 651 c 0
 408 616.333 490.667 570.667 520 514 c 0
 534 487.333 541 453.333 541 412 c 2
 541 135 l 2
 541 43.6667 495 -2 403 -2 c 0
 375.667 -2 350 5.33333 326 20 c 0
 298.667 36 282 56.6667 276 82 c 1
 272 117 l 1
 272 131 l 2
 272 184.333 296 222 344 244 c 1
 371 252 l 1
 397 254 l 1
 432 250 l 1
 446 246 l 1
 446 426 l 2
 446 491.333 389.333 540.333 276 573 c 0
 267.333 575.667 206 589.333 92 614 c 1
 77.3333 614 61 617 43 623 c 1
 55 650.333 67.3333 670.667 80 684 c 1
 133.333 755.333 208.333 791 305 791 c 0
 327 791 356.333 786.667 393 778 c 2
 522 750 l 1
 549.333 750 572 755.333 590 766 c 1
 602 776 l 1
 647 707 l 1
403 66 m 0
 445.667 66 467 86.3333 467 127 c 0
 467 167.667 445.667 188 403 188 c 0
 362.333 188 342 167.667 342 127 c 0
 342 86.3333 362.333 66 403 66 c 0
EndSplineSet
EndChar
StartChar: uni0E24
Encoding: 240 3620
OldEncoding: 3620
Width: 815
Flags: W
Fore
682 -287 m 1
 590 -287 l 1
 590 559 l 2
 590 660.333 520.333 711 381 711 c 0
 325 711 273 700.667 225 680 c 1
 199 666 l 1
 213 659 l 1
 276 623 l 1
 336 580 l 1
 350 565 l 1
 315 557 l 2
 290.333 551 270 537.333 254 516 c 1
 226.667 488.667 213 454 213 412 c 2
 213 246 l 1
 225 250 l 1
 262 254 l 1
 282 254 299.667 250.667 315 244 c 0
 369 220.667 393.667 181.667 389 127 c 1
 387 102 l 2
 384.333 70.6667 370 45.5 344 26.5 c 0
 318 7.5 288.667 -2 256 -2 c 0
 166 -2 121 43.6667 121 135 c 2
 121 430 l 2
 121 448.667 123.667 464.333 129 477 c 2
 147 520 l 1
 157 534 168 546.333 180 557 c 1
 199 569 l 1
 186 580 l 1
 160 597.333 138.333 609.333 121 616 c 2
 68 637 l 1
 18 651 l 1
 50 689.667 106.667 724.667 188 756 c 0
 252.667 780.667 315.667 793 377 793 c 0
 459.667 793 528.667 775.667 584 741 c 0
 649.333 700.333 682 641 682 563 c 2
 682 -287 l 1
256 66 m 0
 298 66 319 86.3333 319 127 c 0
 319 167.667 298 188 256 188 c 0
 215.333 188 195 167.667 195 127 c 0
 195 86.3333 215.333 66 256 66 c 0
EndSplineSet
EndChar
StartChar: uni0E25
Encoding: 241 3621
OldEncoding: 3621
Width: 793
Flags: W
Fore
643 0 m 1
 551 0 l 1
 551 84 l 2
 551 100.667 535.333 140.333 504 203 c 0
 475.333 259.667 454 298.333 440 319 c 0
 362 437 300 491.667 254 483 c 1
 224 475 209 451.333 209 412 c 2
 209 246 l 1
 221 250 l 1
 258 254 l 1
 278 254 295.667 250.667 311 244 c 0
 365 220.667 389.667 181.667 385 127 c 1
 383 102 l 1
 380.333 71.3333 366.167 46.3333 340.5 27 c 0
 314.833 7.66667 286 -2 254 -2 c 0
 162.667 -2 117 43.6667 117 135 c 2
 117 408 l 2
 117 440.667 126 471.333 144 500 c 0
 164 532.667 189 551 219 555 c 2
 268 561 l 1
 308 561 346.333 546.667 383 518 c 0
 407 499.333 433.667 468.667 463 426 c 2
 528 330 l 1
 551 287 l 1
 551 547 l 2
 551 655 486.667 709 358 709 c 0
 248 709 174.333 667.333 137 584 c 1
 70 631 l 1
 86 659.667 101 680.667 115 694 c 0
 161 740.667 212.667 769.333 270 780 c 1
 365 788 l 1
 418 788 l 1
 442.667 784 478.667 772.667 526 754 c 1
 604 712.667 643 645 643 551 c 2
 643 0 l 1
254 66 m 0
 294.667 66 315 86.3333 315 127 c 0
 315 167.667 294.667 188 254 188 c 0
 218 188 196.667 167.667 190 127 c 1
 190 86.3333 211.333 66 254 66 c 0
EndSplineSet
EndChar
StartChar: uni0E26
Encoding: 242 3622
OldEncoding: 3622
Width: 891
Flags: W
Fore
745 -287 m 1
 651 -287 l 1
 651 559 l 2
 651 660.333 581.333 711 442 711 c 0
 397.333 711 353 703.333 309 688 c 0
 288.333 680.667 272 673.333 260 666 c 1
 274 659 l 1
 336 623 l 1
 397 580 l 1
 412 565 l 1
 377 557 l 2
 352.333 551 331.667 537.333 315 516 c 1
 289 490 276 455.333 276 412 c 2
 276 135 l 2
 276 43.6667 230.333 -2 139 -2 c 0
 111.667 -2 85.6667 5.33333 61 20 c 0
 34.3333 36 18 56.6667 12 82 c 1
 8 117 l 1
 8 131 l 2
 8 184.333 32 222 80 244 c 1
 106 252 l 1
 133 254 l 1
 168 250 l 1
 182 246 l 1
 182 430 l 2
 182 448.667 184.667 464.333 190 477 c 2
 209 520 l 1
 218.333 534 229.333 546.333 242 557 c 1
 260 569 l 1
 238 588 l 1
 180 618 l 1
 129 637 l 1
 80 651 l 1
 112.667 689.667 170 724.667 252 756 c 0
 316 780.667 378.667 793 440 793 c 0
 523.333 793 592.333 776 647 742 c 0
 712.333 701.333 745 641.667 745 563 c 2
 745 -287 l 1
139 66 m 0
 181.667 66 203 86.3333 203 127 c 0
 203 167.667 181.667 188 139 188 c 0
 98.3333 188 78 167.667 78 127 c 0
 78 86.3333 98.3333 66 139 66 c 0
EndSplineSet
EndChar
StartChar: uni0E27
Encoding: 243 3623
OldEncoding: 3623
Width: 729
Flags: W
Fore
584 135 m 2
 584 43.6667 539 -2 449 -2 c 0
 421.667 -2 395.333 5.66667 370 21 c 0
 342 37.6667 325 58.6667 319 84 c 1
 315 129 l 1
 315 182.333 339.667 220.667 389 244 c 1
 416 252 l 1
 442 254 l 1
 477 250 l 1
 492 246 l 1
 492 551 l 2
 492 659 428.333 713 301 713 c 0
 253 713 210.333 701 173 677 c 0
 133 651.667 106 617 92 573 c 1
 20 606 l 1
 42.6667 664 79.1667 709.667 129.5 743 c 0
 179.833 776.333 236.333 793 299 793 c 0
 376.333 793 441.333 775.333 494 740 c 0
 554 699.333 584 641.667 584 567 c 2
 584 135 l 2
449 66 m 0
 489.667 66 510 86.3333 510 127 c 0
 510 167.667 489.667 188 449 188 c 0
 412.333 188 391 167.667 385 127 c 1
 385 86.3333 406.333 66 449 66 c 0
EndSplineSet
EndChar
StartChar: uni0E28
Encoding: 244 3624
OldEncoding: 3624
Width: 815
Flags: W
Fore
729 799 m 1
 721 770 l 2
 714.333 747.333 703.333 727 688 709 c 2
 653 668 l 1
 635 649 l 1
 645 637 l 1
 662 590 l 1
 668 530 l 1
 668 0 l 1
 575 0 l 1
 573 530 l 1
 573 549.333 570.333 563.667 565 573 c 2
 557 588 l 1
 539 569 l 1
 487 520 l 1
 432 481 l 1
 418 473 l 1
 426 426 l 1
 426 374 402.667 337 356 315 c 0
 338.667 307 319.667 303 299 303 c 0
 282.333 303 271.333 304.333 266 307 c 2
 254 313 l 1
 254 0 l 1
 162 0 l 1
 162 131 l 2
 162 153.667 157 175 147 195 c 2
 80 332 l 2
 48.6667 395.333 33 455.333 33 512 c 0
 33 600.667 66 670.667 132 722 c 0
 192 769.333 267.333 793 358 793 c 0
 428 793 487 780 535 754 c 1
 586 715 l 1
 592 721 l 1
 605.333 739 615.667 756 623 772 c 2
 643 817 l 1
 645 827 l 1
 729 799 l 1
526 655 m 1
 485 688 l 1
 455 703.333 410 711 350 711 c 0
 212 711 135 644 119 510 c 1
 119 426.667 134.667 369.333 166 338 c 1
 166 424 l 2
 166 464 178 496.833 202 522.5 c 0
 226 548.167 257.667 561 297 561 c 0
 321.667 561 343.333 556.333 362 547 c 1
 381 532 l 1
 420 559 l 1
 457 588 l 1
 494 618 l 1
 526 655 l 1
299 371 m 0
 339.667 371 360 391.333 360 432 c 0
 360 474.667 339.667 496 299 496 c 0
 264.333 496 244 474.667 238 432 c 1
 238 391.333 258.333 371 299 371 c 0
EndSplineSet
EndChar
StartChar: uni0E29
Encoding: 245 3625
OldEncoding: 3625
Width: 891
Flags: W
Fore
891 483 m 1
 879 449 l 1
 849 388.333 801 343.667 735 315 c 1
 735 119 l 1
 729 72 l 1
 713 24 674.667 0 614 0 c 2
 109 0 l 1
 109 88 l 1
 207 88 l 1
 207 543 l 1
 195 539 l 1
 160 535 l 1
 142.667 535 126.333 538.333 111 545 c 0
 64.3333 565.667 41 604.667 41 662 c 1
 45 705 l 2
 47 727.667 62 748 90 766 c 0
 116 782.667 141.333 791 166 791 c 0
 252 791 295 745 295 653 c 2
 295 88 l 1
 588 88 l 2
 608 88 625 95 639 109 c 0
 643 113 645.667 122.333 647 137 c 1
 647 297 l 1
 612 291 l 1
 586 289 l 2
 565.333 287 532.333 291 487 301 c 0
 423 315 383.667 345.667 369 393 c 1
 362 440 l 1
 362 474.667 372.333 502.833 393 524.5 c 0
 413.667 546.167 441 557 475 557 c 0
 507.667 557 535 547 557 527 c 0
 579 507 590 481 590 449 c 0
 590 409.667 577.667 381.667 553 365 c 1
 600 362 l 1
 635 369 l 1
 647 375 l 1
 647 788 l 1
 735 788 l 1
 735 399 l 1
 754 414 l 1
 788 453 l 1
 796.667 465 806.333 484.667 817 512 c 1
 821 526 l 1
 891 483 l 1
479 385 m 1
 513 385 530 403.333 530 440 c 0
 530 478.667 511.667 498.667 475 500 c 0
 441 501.333 424 482.667 424 444 c 0
 424 408.667 442.333 389 479 385 c 1
166 600 m 0
 205.333 600 225 620.667 225 662 c 0
 225 702.667 205.333 723 166 723 c 0
 134 723 115 702.667 109 662 c 1
 109 620.667 128 600 166 600 c 0
EndSplineSet
EndChar
StartChar: uni0E2A
Encoding: 246 3626
OldEncoding: 3626
Width: 774
Flags: W
Fore
733 741 m 1
 711 700 l 1
 676 655 l 1
 637 614 l 1
 618 598 l 1
 621 573 l 1
 621 0 l 1
 528 0 l 1
 528 84 l 2
 528 100.667 512.333 140.333 481 203 c 0
 453 259.667 432 298.333 418 319 c 0
 340 437 277.667 491.667 231 483 c 1
 201 475 186 451.333 186 412 c 2
 186 246 l 1
 199 250 l 1
 236 254 l 1
 255.333 254 273 250.667 289 244 c 0
 342.333 220.667 366.667 181.667 362 127 c 1
 360 102 l 1
 358 71.3333 344.167 46.3333 318.5 27 c 0
 292.833 7.66667 263.667 -2 231 -2 c 0
 139.667 -2 94 43.6667 94 135 c 2
 94 408 l 2
 94 441.333 103 472.333 121 501 c 0
 141.667 533.667 167.667 551.667 199 555 c 2
 252 561 l 1
 284.667 561 314 554.333 340 541 c 1
 360 526 l 1
 440 567 l 2
 468 581.667 488.667 595.333 502 608 c 2
 514 621 l 1
 479 668 l 1
 445 695.333 397.333 709 336 709 c 0
 232 709 158.333 667.333 115 584 c 1
 47 631 l 1
 68.3333 669.667 98.3333 703 137 731 c 0
 147 738.333 160 746.667 176 756 c 1
 225.333 777.333 278 788 334 788 c 0
 430.667 788 505 762.333 557 711 c 1
 582 680 l 1
 604 700 l 1
 631 735 l 1
 645 760 l 1
 666 799 l 1
 733 741 l 1
528 287 m 1
 528 547 l 1
 469 508 l 1
 401 475 l 1
 440 426 l 1
 528 287 l 1
231 66 m 0
 272.333 66 293 86.3333 293 127 c 0
 293 167.667 272.333 188 231 188 c 0
 195 188 174 167.667 168 127 c 1
 168 86.3333 189 66 231 66 c 0
EndSplineSet
EndChar
StartChar: uni0E2B
Encoding: 247 3627
OldEncoding: 3627
Width: 870
Flags: W
Fore
586 596 m 1
 592 600 l 2
 620.667 615.333 639.667 640.667 649 676 c 1
 652.333 720.667 631.333 743 586 743 c 0
 562.667 743 544.667 737 532 725 c 1
 525.333 715.667 520.667 702.667 518 686 c 1
 518 662.667 529 640 551 618 c 1
 586 596 l 1
618 465 m 1
 614 484.333 603.333 500.667 586 514 c 1
 551 477 l 1
 479 383 l 1
 422 301 l 2
 365.333 219.667 321.667 119.333 291 0 c 1
 199 0 l 1
 199 543 l 1
 186 539 l 1
 150 535 l 1
 129.333 535 111.333 538.333 96 545 c 0
 47.3333 567 23 606 23 662 c 1
 27 705 l 1
 32.3333 730.333 48.6667 751.333 76 768 c 0
 100.667 783.333 127.333 791 156 791 c 0
 246 791 291 745 291 653 c 2
 291 240 l 1
 326 299 l 2
 352 343.667 381.333 385.333 414 424 c 2
 469 489 l 1
 532 555 l 1
 512 569 l 1
 466.667 593.667 444 633.333 444 688 c 0
 444 722.667 459 751 489 773 c 0
 516.333 793 548 803 584 803 c 0
 657.333 803 703 764.667 721 688 c 1
 726.333 645.333 714 612 684 588 c 2
 643 555 l 1
 672 524 l 1
 692 489 l 1
 709 453 l 1
 717 410 l 1
 719 365 l 1
 719 0 l 1
 627 0 l 1
 627 428 l 1
 618 465 l 1
156 600 m 0
 196.667 600 217 620.667 217 662 c 0
 217 702.667 196.667 723 156 723 c 0
 120 723 98.6667 702.667 92 662 c 1
 92 620.667 113.333 600 156 600 c 0
EndSplineSet
EndChar
StartChar: uni0E2C
Encoding: 248 3628
OldEncoding: 3628
Width: 944
Flags: W
Fore
729 721 m 0
 729 736.333 713 751.667 681 767 c 0
 653 779.667 630 786 612 786 c 0
 582 786 552 778.667 522 764 c 1
 489 735 l 1
 512.333 701 552 684 608 684 c 2
 653 684 l 1
 671 688 684 690.667 692 692 c 0
 716.667 698.667 729 708.333 729 721 c 0
717 143 m 1
 717 625 l 1
 680 612 l 1
 602 608 l 2
 565.333 606 524.333 617 479 641 c 0
 428.333 667.667 403 698.333 403 733 c 1
 409 771 435 802.667 481 828 c 0
 521 849.333 562 860 604 860 c 0
 679.333 860 736.667 835.333 776 786 c 2
 801 756 l 1
 827 784 l 1
 848 811 l 1
 893 879 l 1
 940 823 l 1
 920 786 l 1
 909.333 768 896.333 751 881 735 c 2
 838 692 l 1
 811 672 l 1
 811 0 l 1
 690 0 l 1
 492 446 l 1
 490 441.333 485.667 430.667 479 414 c 0
 459.667 362 439.333 312 418 264 c 2
 299 0 l 1
 186 0 l 1
 186 526 l 1
 176 522 l 1
 147 518 l 1
 131 518 115.333 521.333 100 528 c 0
 54 548.667 31 587.667 31 645 c 1
 35 688 l 1
 37 711.333 52 732 80 750 c 0
 105.333 766 130.667 774 156 774 c 0
 243.333 774 287 728.333 287 637 c 1
 285 174 l 1
 461 582 l 1
 526 582 l 1
 717 143 l 1
156 584 m 0
 195.333 584 215 604.333 215 645 c 1
 209 678 l 1
 198.333 698.667 180.667 709 156 709 c 0
 123.333 709 104 687.667 98 645 c 1
 98 604.333 117.333 584 156 584 c 0
EndSplineSet
EndChar
StartChar: uni0E2D
Encoding: 249 3629
OldEncoding: 3629
Width: 758
Flags: W
Fore
618 123 m 2
 618 95.6667 610 68.3333 594 41 c 1
 573.333 13.6667 544.667 -8.67362e-19 508 0 c 2
 233 0 l 2
 155.667 0 117 43.6667 117 131 c 2
 117 408 l 2
 117 500.667 160 547 246 547 c 0
 272.667 547 298 539.333 322 524 c 0
 348.667 506.667 363.667 485.667 367 461 c 1
 371 428 l 1
 371 414 l 2
 371 359.333 347.667 321 301 299 c 0
 286.333 292.333 270 289 252 289 c 0
 236.667 289 225 290.333 217 293 c 2
 205 297 l 1
 205 160 l 2
 205 112 223.333 88 260 88 c 2
 477 88 l 2
 499 88 513.333 93.3333 520 104 c 1
 528 125 l 1
 530 154 l 1
 530 557 l 2
 530 607.667 513.833 647 481.5 675 c 0
 449.167 703 407.333 717 356 717 c 0
 310 717 268.333 707 231 687 c 0
 187.667 665 159 634 145 594 c 1
 76 637 l 1
 123.333 741 216 793 354 793 c 0
 430.667 793 493 774 541 736 c 0
 592.333 694 618 635.667 618 561 c 2
 618 123 l 2
246 354 m 1
 280 354 299.667 374.667 305 416 c 1
 305 458 285.333 479 246 479 c 0
 228 479 213 473 201 461 c 1
 193.667 451 188.667 436 186 416 c 1
 186 399.333 191 384.333 201 371 c 0
 209 362.333 224 356.667 246 354 c 1
EndSplineSet
EndChar
StartChar: uni0E2E
Encoding: 250 3630
OldEncoding: 3630
Width: 731
Flags: W
Fore
668 756 m 1
 664 742 658.333 731 651 723 c 1
 627 684 l 1
 613 666 597.333 649 580 633 c 1
 586 618 l 1
 590 598 l 1
 590 123 l 2
 590 69.6667 568.667 32 526 10 c 1
 515.333 6 499.667 2.66667 479 0 c 1
 186 0 l 2
 152 0 123.833 13.1667 101.5 39.5 c 0
 79.1667 65.8333 68 96.3333 68 131 c 2
 68 317 l 2
 68 357.667 79.3333 390.833 102 416.5 c 0
 124.667 442.167 156.333 455 197 455 c 0
 269 455 310.667 420 322 350 c 1
 324 322 l 1
 327.333 270 306.667 233.667 262 213 c 0
 242 203.667 222.333 199 203 199 c 0
 190.333 199 179.333 200.333 170 203 c 2
 156 207 l 1
 156 160 l 2
 156 138 161.333 121.667 172 111 c 1
 178.667 95.6667 192.333 88 213 88 c 2
 451 88 l 2
 485 88 502 110 502 154 c 1
 498 588 l 1
 439.333 552.667 362.667 535 268 535 c 0
 226.667 535 179.667 545.667 127 567 c 0
 64.3333 593.667 33 625.333 33 662 c 0
 33 697.333 72.6667 729.333 152 758 c 0
 216 781.333 269.667 793 313 793 c 0
 380.333 793 433.667 782 473 760 c 1
 541 707 l 1
 553 721 l 1
 575 750 l 1
 590 774 l 1
 602 801 l 1
 668 756 l 1
475 659 m 1
 421.667 697.667 368.333 717 315 717 c 0
 291 717 256.333 712 211 702 c 0
 156.333 690.667 129 676.333 129 659 c 0
 129 652.333 150.333 641 193 625 c 1
 240.333 611 281 604 315 604 c 0
 360.333 604 396 611 422 625 c 1
 475 659 l 1
197 264 m 0
 236.333 264 256 284.667 256 326 c 1
 250 358 l 1
 238.667 378.667 221 389 197 389 c 0
 164.333 389 145 368 139 326 c 1
 139 284.667 158.333 264 197 264 c 0
EndSplineSet
EndChar
StartChar: uni0E2F
Encoding: 251 3631
OldEncoding: 3631
Width: 692
Flags: W
Fore
596 193 m 2
 596 131 577.667 83 541 49 c 1
 483 10 l 1
 467 2 448 -2 426 -2 c 1
 387 68 l 1
 421 68 452.333 83 481 113 c 0
 496.333 128.333 504 155.667 504 195 c 2
 504 498 l 1
 462.667 417.333 386 377 274 377 c 0
 207.333 377 151.333 400 106 446 c 0
 60.6667 492 40.3333 548 45 614 c 2
 47 643 l 1
 50.3333 684.333 65.8333 718.833 93.5 746.5 c 0
 121.167 774.167 155.667 788 197 788 c 0
 278.333 788 319 748.667 319 670 c 0
 319 632.667 307.833 601.833 285.5 577.5 c 0
 263.167 553.167 233.667 541 197 541 c 1
 170 545 l 1
 141 555 l 1
 149.667 523.667 155.333 506.667 158 504 c 1
 171.333 480.667 195.667 463.667 231 453 c 1
 272 449 l 1
 346 449 407.667 489.667 457 571 c 0
 488.333 623.667 504 696 504 788 c 1
 508.667 789.333 513.333 790 518 790 c 0
 540 790 558.5 781.833 573.5 765.5 c 0
 588.5 749.167 596 730.333 596 709 c 2
 596 193 l 2
197 604 m 0
 237.667 604 258 624.667 258 666 c 0
 258 708 237.667 729 197 729 c 0
 160.333 729 139 708 133 666 c 1
 133 624.667 154.333 604 197 604 c 0
EndSplineSet
EndChar
StartChar: uni0E30
Encoding: 252 3632
OldEncoding: 3632
Width: 682
Flags: W
Fore
582 631 m 1
 556 589.667 492.333 548.667 391 508 c 1
 336 496 l 1
 272 489 l 1
 210.667 489 160.333 507.667 121 545 c 0
 97.6667 566.333 86 596.333 86 635 c 0
 86 719.667 127 762 209 762 c 0
 243.667 762 274.333 753.333 301 736 c 0
 331 716.667 346 690.333 346 657 c 1
 348 635 l 1
 348 619 346.667 608 344 602 c 2
 330 571 l 1
 383 590 l 2
 408.333 598.667 436.333 614.333 467 637 c 1
 532 698 l 2
 545.333 710.667 562 732.667 582 764 c 1
 582 631 l 1
582 156 m 1
 556 114.667 492.333 73.6667 391 33 c 1
 336 20 l 1
 272 14 l 1
 210.667 14 160.333 32.6667 121 70 c 0
 97.6667 91.3333 86 121.333 86 160 c 0
 86 244.667 127 287 209 287 c 0
 243.667 287 274.333 278.333 301 261 c 0
 331 241.667 346 215.333 346 182 c 1
 348 160 l 1
 348 144 346.667 133 344 127 c 2
 330 96 l 1
 383 115 l 2
 408.333 123.667 436.333 139.333 467 162 c 1
 532 223 l 2
 545.333 235.667 562 257.667 582 289 c 1
 582 156 l 1
219 571 m 0
 261.667 571 283 592.333 283 635 c 0
 283 678.333 261.667 700 219 700 c 0
 177 700 156 678.333 156 635 c 0
 156 592.333 177 571 219 571 c 0
219 96 m 0
 261.667 96 283 117.333 283 160 c 0
 283 203.333 261.667 225 219 225 c 0
 177 225 156 203.333 156 160 c 0
 156 117.333 177 96 219 96 c 0
EndSplineSet
EndChar
StartChar: uni0E31
Encoding: 253 3633
OldEncoding: 3633
Width: 0
Flags: W
Fore
104 1085 m 1
 72 1054.33 21 1025 -49 997 c 0
 -73 987.667 -93 980.333 -109 975 c 1
 -199 956 l 1
 -279 952 l 2
 -323 950 -368 959 -414 979 c 0
 -454 996.333 -482.667 1025 -500 1065 c 0
 -504 1074.33 -507.333 1090.67 -510 1114 c 1
 -510 1188 -471.667 1233 -395 1249 c 1
 -353 1253 -318.333 1243.67 -291 1221 c 0
 -263.667 1198.33 -250 1166 -250 1124 c 2
 -250 1106 l 1
 -254 1084 -260 1067 -268 1055 c 1
 -285 1036 l 1
 -209 1036 l 1
 -185.667 1040 -148.667 1050.33 -98 1067 c 1
 -3.33333 1111.67 64 1166.33 104 1231 c 1
 104 1085 l 1
-379 1055 m 0
 -359.667 1055 -342.667 1061 -328 1073 c 1
 -319.333 1084.33 -313.667 1100.67 -311 1122 c 1
 -311 1137.33 -317.333 1153 -330 1169 c 0
 -340.667 1180.33 -357 1187.33 -379 1190 c 1
 -423.667 1190 -446 1167.33 -446 1122 c 0
 -446 1077.33 -423.667 1055 -379 1055 c 0
EndSplineSet
EndChar
StartChar: uni0E32
Encoding: 254 3634
OldEncoding: 3634
Width: 586
Flags: W
Fore
479 0 m 1
 387 0 l 1
 387 543 l 2
 387 602.333 379.333 643.667 364 667 c 0
 344.667 696.333 307.333 711 252 711 c 0
 201.333 711 159.667 696 127 666 c 0
 110.333 650.667 94 625.333 78 590 c 1
 8 637 l 1
 32 687 56 721.667 80 741 c 0
 120 774.333 178 791 254 791 c 0
 404 791 479 713.667 479 559 c 2
 479 0 l 1
EndSplineSet
EndChar
StartChar: uni0E33
Encoding: 255 3635
OldEncoding: 3635
Width: 586
Flags: W
Fore
-244 903 m 0
 -338 903 -385 950 -385 1044 c 0
 -385 1086.67 -372 1121.33 -346 1148 c 0
 -320 1174.67 -286 1188 -244 1188 c 0
 -201.333 1188 -167 1174.67 -141 1148 c 0
 -115 1121.33 -102 1086.67 -102 1044 c 0
 -102 1002 -115 968 -141 942 c 0
 -167 916 -201.333 903 -244 903 c 0
-244 973 m 1
 -194.667 973 -170 996.667 -170 1044 c 0
 -170 1093.33 -194.667 1118 -244 1118 c 0
 -289.333 1118 -313 1093.33 -315 1044 c 0
 -317 1002 -293.333 978.333 -244 973 c 1
471 0 m 1
 379 0 l 1
 379 543 l 2
 379 602.333 371.333 643.667 356 667 c 0
 336.667 696.333 299.333 711 244 711 c 0
 193.333 711 151.667 696 119 666 c 0
 102.333 650.667 86 625.333 70 590 c 1
 0 637 l 1
 23.3333 687 47.3333 721.667 72 741 c 0
 112 774.333 170 791 246 791 c 0
 396 791 471 713.667 471 559 c 2
 471 0 l 1
EndSplineSet
EndChar
StartChar: uni0E34
Encoding: 256 3636
OldEncoding: 3636
Width: 0
Flags: W
Fore
-150 877 m 1
 -253.333 919 -358.333 940 -465 940 c 0
 -553.667 940 -648.667 921.667 -750 885 c 1
 -750 973.667 -722.333 1045 -667 1099 c 0
 -611.667 1153 -539.667 1180 -451 1180 c 0
 -364.333 1180 -292.5 1151 -235.5 1093 c 0
 -178.5 1035 -150 963 -150 877 c 1
-236 975 m 1
 -275.333 1063.67 -344.667 1108 -444 1108 c 0
 -533.333 1108 -600.333 1067 -645 985 c 1
 -559 1008 l 2
 -543.667 1012 -509.667 1014 -457 1014 c 0
 -395 1014 -338.333 1007 -287 993 c 0
 -274.333 989.667 -257.333 983.667 -236 975 c 1
EndSplineSet
EndChar
StartChar: uni0E35
Encoding: 257 3637
OldEncoding: 3637
Width: 0
Flags: W
Fore
-131 883 m 1
 -235 925 -340 946 -446 946 c 0
 -535.333 946 -630.333 927.667 -731 891 c 1
 -731 975 -702.5 1045.17 -645.5 1101.5 c 0
 -588.5 1157.83 -518 1186 -434 1186 c 0
 -372.667 1186 -322.333 1173 -283 1147 c 0
 -270.333 1139 -257.333 1126 -244 1108 c 1
 -244 1278 l 1
 -152 1278 l 1
 -150 1006 l 1
 -137 954 l 1
 -131 883 l 1
-219 981 m 1
 -254.333 1069.67 -324 1114 -428 1114 c 0
 -516.667 1114 -583 1073 -627 991 c 1
 -547 1010 l 1
 -438 1018 l 1
 -375 1018 l 1
 -350.333 1014.67 -319 1009 -281 1001 c 0
 -269.667 999 -249 992.333 -219 981 c 1
EndSplineSet
EndChar
StartChar: uni0E36
Encoding: 258 3638
OldEncoding: 3638
Width: 0
Flags: W
Fore
-211 1063 m 1
 -182 1020 l 1
 -166 977 l 1
 -154 922 l 1
 -150 881 l 1
 -150 858 l 1
 -232.667 889.333 -308.333 908.333 -377 915 c 0
 -403.667 918.333 -433 920 -465 920 c 0
 -561.667 920 -656 902 -748 866 c 1
 -748 982 -705.667 1065.33 -621 1116 c 0
 -610.333 1122.67 -584.333 1134.33 -543 1151 c 1
 -505 1161.67 -472 1166.33 -444 1165 c 2
 -401 1163 l 1
 -381 1159 l 1
 -385 1190 l 1
 -385 1203.33 -379.667 1219 -369 1237 c 1
 -355 1268.33 -319.333 1287.33 -262 1294 c 1
 -216 1294 -180 1273.67 -154 1233 c 1
 -146.667 1217.67 -141.667 1198.67 -139 1176 c 1
 -139 1120 -163 1082.33 -211 1063 c 1
-262 1114 m 1
 -244.667 1114 -229.667 1120.33 -217 1133 c 1
 -209 1143.67 -203.667 1157.33 -201 1174 c 1
 -201 1214.67 -221.333 1235 -262 1235 c 0
 -296 1235 -316 1214.67 -322 1174 c 1
 -322 1139.33 -302 1119.33 -262 1114 c 1
-236 956 m 1
 -276.667 1043.33 -346 1087 -444 1087 c 0
 -534.667 1087 -601 1047 -643 967 c 1
 -569 985 l 1
 -457 993 l 2
 -419 995.667 -380.667 992.333 -342 983 c 2
 -236 956 l 1
EndSplineSet
EndChar
StartChar: uni0E37
Encoding: 259 3639
OldEncoding: 3639
Width: 0
Flags: W
Fore
-126 872 m 1
 -230 914.667 -335 936 -441 936 c 0
 -530.333 936 -625.333 917.667 -726 881 c 1
 -726 1051 -646 1150.67 -486 1180 c 0
 -464.667 1184 -446.333 1185.33 -431 1184 c 2
 -405 1182 l 1
 -405 1272 l 1
 -316 1272 l 1
 -316 1163 l 1
 -278 1147 l 1
 -245 1116 l 1
 -245 1272 l 1
 -157 1272 l 1
 -157 1004 l 1
 -149 981 l 1
 -136 940 l 1
 -126 872 l 1
-214 971 m 1
 -250.667 1058.33 -320.333 1102 -423 1102 c 0
 -513 1102 -579.333 1061.67 -622 981 c 1
 -548 999 l 1
 -433 1008 l 1
 -370 1008 l 1
 -345.333 1004.67 -314 999 -276 991 c 0
 -264.667 989 -244 982.333 -214 971 c 1
EndSplineSet
EndChar
StartChar: uni0E38
Encoding: 260 3640
OldEncoding: 3640
Width: 0
Flags: W
Fore
-150 -418 m 1
 -252 -418 l 1
 -252 -264 l 1
 -287 -270 l 1
 -301 -270 -314.667 -267.333 -328 -262 c 0
 -374 -243.333 -397 -206.667 -397 -152 c 0
 -397 -82 -354 -47 -268 -47 c 0
 -189.333 -47 -150 -88 -150 -170 c 2
 -150 -418 l 1
-276 -201 m 0
 -261.333 -201 -250 -194.667 -242 -182 c 1
 -231 -156 l 1
 -231 -126 -246 -111 -276 -111 c 0
 -292.667 -111 -304.333 -116.333 -311 -127 c 1
 -322 -156 l 1
 -322 -186 -306.667 -201 -276 -201 c 0
EndSplineSet
EndChar
StartChar: uni0E39
Encoding: 261 3641
OldEncoding: 3641
Width: 0
Flags: W
Fore
-266 -348 m 2
 -258 -348 -252 -346 -248 -342 c 1
 -244 -315 l 1
 -244 -59 l 1
 -158 -59 l 1
 -158 -330 l 2
 -158 -384.667 -173.667 -412 -205 -412 c 2
 -410 -412 l 1
 -410 -264 l 1
 -420 -266 l 1
 -449 -270 l 1
 -463.667 -270 -478 -267.333 -492 -262 c 0
 -534 -245.333 -555 -212 -555 -162 c 1
 -553 -143 l 2
 -546.333 -83 -509.333 -53 -442 -53 c 0
 -363.333 -53 -324.667 -91.3333 -326 -168 c 1
 -328 -348 l 1
 -266 -348 l 2
-446 -207 m 0
 -414.667 -207 -399 -192 -399 -162 c 0
 -399 -132 -414.667 -117 -446 -117 c 0
 -470.667 -117 -486 -132 -492 -162 c 1
 -492 -192 -476.667 -207 -446 -207 c 0
EndSplineSet
EndChar
StartChar: uni0E3A
Encoding: 262 3642
OldEncoding: 3642
Width: 0
Flags: W
Fore
-219 -262 m 0
 -242.333 -262 -262.333 -254 -279 -238 c 1
 -289.667 -222.667 -296.333 -203.333 -299 -180 c 1
 -299 -125.333 -272.333 -98 -219 -98 c 0
 -164.333 -98 -137 -125.333 -137 -180 c 0
 -137 -234.667 -164.333 -262 -219 -262 c 0
EndSplineSet
EndChar
StartChar: uni0E3F
Encoding: 263 3647
OldEncoding: 3647
Width: 842
Flags: W
Fore
344 526 m 1
 344 834 l 1
 207 834 l 1
 207 526 l 1
 344 526 l 1
344 94 m 1
 344 430 l 1
 207 430 l 1
 207 94 l 1
 344 94 l 1
438 430 m 1
 438 94 l 1
 514 94 l 2
 626 94 682 151.333 682 266 c 0
 682 332.667 658 378.333 610 403 c 0
 576 421 523 430 451 430 c 2
 438 430 l 1
438 834 m 1
 438 526 l 1
 461 526 l 2
 509 526 549.667 538 583 562 c 0
 620.333 588.667 639 625.333 639 672 c 0
 639 780 572 834 438 834 c 1
344 1040 m 1
 438 1040 l 1
 438 928 l 1
 502 928 l 2
 554 928 602.333 911.667 647 879 c 0
 705.667 835.667 735 774 735 694 c 0
 735 604 690.667 536.667 602 492 c 1
 659 463 l 2
 735.667 425 774 357.333 774 260 c 0
 774 178 745.333 111 688 59 c 0
 644.667 19.6667 599.667 1.73472e-18 553 0 c 2
 438 0 l 1
 438 -125 l 1
 344 -125 l 1
 344 0 l 1
 113 0 l 1
 113 928 l 1
 344 928 l 1
 344 1040 l 1
EndSplineSet
EndChar
StartChar: uni0E40
Encoding: 264 3648
OldEncoding: 3648
Width: 455
Flags: W
Fore
391 102 m 2
 388.333 70.6667 374 45.5 348 26.5 c 0
 322 7.5 292.667 -2 260 -2 c 0
 170 -2 125 43.6667 125 135 c 2
 125 788 l 1
 217 788 l 1
 217 246 l 1
 229 250 l 1
 266 254 l 1
 286 254 303.667 250.667 319 244 c 0
 373 220.667 397.667 181.667 393 127 c 1
 391 102 l 2
260 66 m 0
 302.667 66 324 86.3333 324 127 c 0
 324 167.667 302.667 188 260 188 c 0
 219.333 188 199 167.667 199 127 c 0
 199 86.3333 219.333 66 260 66 c 0
EndSplineSet
EndChar
StartChar: uni0E41
Encoding: 265 3649
OldEncoding: 3649
Width: 803
Flags: W
Fore
748 102 m 1
 745.333 71.3333 731.167 46.3333 705.5 27 c 0
 679.833 7.66667 650.667 -2 618 -2 c 0
 526.667 -2 481 43.6667 481 135 c 2
 481 788 l 1
 575 788 l 1
 575 246 l 1
 588 250 l 1
 625 254 l 1
 644.333 254 662 250.667 678 244 c 0
 730 222 754 183.667 750 129 c 2
 748 102 l 1
391 102 m 2
 388.333 70.6667 374 45.5 348 26.5 c 0
 322 7.5 292.667 -2 260 -2 c 0
 170 -2 125 43.6667 125 135 c 2
 125 788 l 1
 217 788 l 1
 217 246 l 1
 229 250 l 1
 266 254 l 1
 286 254 303.667 250.667 319 244 c 0
 373 220.667 397.667 181.667 393 127 c 1
 391 102 l 2
618 66 m 0
 659.333 66 680 86.3333 680 127 c 0
 680 167.667 659.333 188 618 188 c 0
 582 188 561 167.667 555 127 c 1
 555 86.3333 576 66 618 66 c 0
260 66 m 0
 302.667 66 324 86.3333 324 127 c 0
 324 167.667 302.667 188 260 188 c 0
 219.333 188 199 167.667 199 127 c 0
 199 86.3333 219.333 66 260 66 c 0
EndSplineSet
EndChar
StartChar: uni0E42
Encoding: 266 3650
OldEncoding: 3650
Width: 553
Flags: W
Fore
471 1286 m 1
 449 1270 l 1
 427 1258.67 400.333 1253 369 1253 c 0
 342.333 1253 315 1258.67 287 1270 c 0
 223 1294.67 178.667 1308.33 154 1311 c 1
 119 1307 l 2
 110.333 1307 97.3333 1301.33 80 1290 c 2
 57 1276 l 1
 106 1257 l 2
 221.333 1214.33 279 1155.67 279 1081 c 2
 279 246 l 1
 291 250 l 1
 328 254 l 1
 347.333 254 365 250.667 381 244 c 0
 434.333 220.667 459 181.667 455 127 c 1
 453 102 l 2
 450.333 70.6667 435.333 45 408 25 c 0
 383.333 7 354.667 -2 322 -2 c 0
 231.333 -2 186 43.6667 186 135 c 2
 186 1067 l 2
 186 1119.67 149.333 1162 76 1194 c 2
 0 1227 l 2
 -38 1243 -64.6667 1251 -80 1251 c 1
 -18.6667 1334.33 59.3333 1376 154 1376 c 0
 183.333 1376 233 1365 303 1343 c 0
 337 1333 361 1329 375 1331 c 2
 422 1339 l 1
 428.667 1341.67 434.667 1346.67 440 1354 c 1
 471 1286 l 1
322 66 m 0
 364 66 385 86.3333 385 127 c 0
 385 167.667 364 188 322 188 c 0
 280.667 188 260 167.667 260 127 c 0
 260 86.3333 280.667 66 322 66 c 0
EndSplineSet
EndChar
StartChar: uni0E43
Encoding: 267 3651
OldEncoding: 3651
Width: 535
Flags: W
Fore
465 102 m 2
 462.333 70.6667 447.333 45 420 25 c 0
 395.333 7 366.667 -2 334 -2 c 0
 244 -2 199 43.6667 199 135 c 2
 199 1225 l 2
 199 1278.33 173.667 1305 123 1305 c 0
 79 1305 53 1283.67 45 1241 c 1
 59 1243 l 1
 95.6667 1243 120.333 1227.33 133 1196 c 0
 137 1185.33 140.333 1166.33 143 1139 c 1
 143 1061 112.333 1022 51 1022 c 0
 -15.6667 1022 -49 1067.67 -49 1159 c 0
 -49 1219 -34.6667 1268 -6 1306 c 0
 26 1348.67 71 1370 129 1370 c 0
 177 1370 216 1356.67 246 1330 c 0
 276 1303.33 291 1266.33 291 1219 c 2
 291 246 l 1
 303 250 l 1
 340 254 l 1
 359.333 254 377 250.667 393 244 c 0
 447 220.667 471.667 181.667 467 127 c 1
 465 102 l 2
49 1079 m 0
 73.6667 1079 86 1095.33 86 1128 c 0
 86 1165.33 73.6667 1184 49 1184 c 0
 24.3333 1184 12 1165.33 12 1128 c 0
 12 1095.33 24.3333 1079 49 1079 c 0
334 66 m 0
 376 66 397 86.3333 397 127 c 0
 397 167.667 376 188 334 188 c 0
 292.667 188 272 167.667 272 127 c 0
 272 86.3333 292.667 66 334 66 c 0
EndSplineSet
EndChar
StartChar: uni0E44
Encoding: 268 3652
OldEncoding: 3652
Width: 600
Flags: W
Fore
514 102 m 1
 511.333 70 497.5 44.6667 472.5 26 c 0
 447.5 7.33333 418.333 -2 385 -2 c 0
 295 -2 250 43.6667 250 135 c 2
 250 1249 l 2
 250 1281.67 245.333 1298 236 1298 c 0
 227.333 1298 219 1286 211 1262 c 1
 150 985 l 2
 138 931.667 112.667 905 74 905 c 0
 22.6667 905 -5.33333 933 -10 989 c 1
 -29 1210 l 1
 -33 1258 -47.3333 1286.67 -72 1296 c 1
 -92 1300 l 1
 -92 1376 l 1
 -46 1381.33 -8.66667 1367 20 1333 c 0
 36.6667 1313.67 46.3333 1287 49 1253 c 1
 72 973 l 1
 147 1300 l 1
 159 1350.67 192.667 1376 248 1376 c 0
 310.667 1376 342 1336.33 342 1257 c 2
 342 246 l 1
 354 250 l 1
 391 254 l 1
 410.333 254 428 250.667 444 244 c 0
 496 222 520 183.667 516 129 c 2
 514 102 l 1
385 66 m 0
 425.667 66 446 86.3333 446 127 c 0
 446 167.667 425.667 188 385 188 c 0
 349 188 328 167.667 322 127 c 1
 322 86.3333 343 66 385 66 c 0
EndSplineSet
EndChar
StartChar: uni0E45
Encoding: 269 3653
OldEncoding: 3653
Width: 295
Flags: W
Fore
217 -291 m 1
 125 -291 l 1
 125 532 l 2
 125 586.667 120.333 626.333 111 651 c 0
 94.3333 693.667 64 715 20 715 c 0
 -26 715 -59.6667 708 -81 694 c 0
 -105 679.333 -123.667 650.667 -137 608 c 1
 -201 643 l 1
 -180.333 739.667 -108 788 16 788 c 0
 105.333 788 164.333 759.333 193 702 c 0
 209 669.333 217 607.333 217 516 c 2
 217 -291 l 1
EndSplineSet
EndChar
StartChar: uni0E46
Encoding: 270 3654
OldEncoding: 3654
Width: 756
Flags: W
Fore
672 -78 m 2
 672 -189.333 612 -267 492 -311 c 0
 472.667 -318.333 454 -323.333 436 -326 c 1
 393 -258 l 1
 424 -250 l 1
 476 -230.667 513 -210.667 535 -190 c 0
 563.667 -163.333 578 -126 578 -78 c 2
 578 590 l 2
 578 633.333 567.667 662.667 547 678 c 1
 506 700 l 2
 496.667 704 488 706 480 706 c 0
 476 706 472.333 705.667 469 705 c 1
 375 649 l 1
 289 698 l 2
 286.333 700 283.333 701 280 701 c 0
 270.667 701 258 695.333 242 684 c 1
 209.333 657.333 190.667 622.667 186 580 c 1
 188 551 l 1
 207 563 l 1
 223 569.667 243.333 574.667 268 578 c 1
 291 575 l 1
 321.667 575 347.333 561.167 368 533.5 c 0
 388.667 505.833 399 476 399 444 c 0
 399 422.667 393.667 403 383 385 c 1
 369 356.333 343 336.667 305 326 c 0
 295.667 323.333 284 322 270 322 c 0
 199.333 322 147.667 360.667 115 438 c 1
 103.667 476.667 98 513 98 547 c 0
 98 670.333 159 750.667 281 788 c 1
 375 723 l 1
 465 788 l 1
 484.333 788 502.667 784.667 520 778 c 1
 548 772.667 570.667 764 588 752 c 0
 644 710.667 672 663.333 672 610 c 2
 672 -78 l 2
268 383 m 0
 313.333 383 336 405 336 449 c 0
 336 493.667 313.333 516 268 516 c 0
 230 516 208.333 493.667 203 449 c 1
 203 405 224.667 383 268 383 c 0
EndSplineSet
EndChar
StartChar: uni0E47
Encoding: 271 3655
OldEncoding: 3655
Width: 0
Flags: W
Fore
-287 1153 m 2
 -322 1153 l 1
 -340 1155 l 1
 -442 1167 l 1
 -485 1169 l 2
 -510.333 1170.33 -531.667 1167 -549 1159 c 1
 -583 1151 -602.667 1123 -608 1075 c 1
 -600 1028 l 1
 -575.333 1063.33 -542 1081 -500 1081 c 0
 -452.667 1081 -408.333 1062 -367 1024 c 1
 -355.667 1072 -324.667 1096 -274 1096 c 0
 -244 1096 -219.833 1085.5 -201.5 1064.5 c 0
 -183.167 1043.5 -174 1017.67 -174 987 c 0
 -174 959.667 -183.833 937.167 -203.5 919.5 c 0
 -223.167 901.833 -246.667 893 -274 893 c 1
 -309 899 l 2
 -330.333 903 -349 911.333 -365 924 c 2
 -416 965 l 1
 -451 989 l 1
 -460.333 993 -474 996.333 -492 999 c 1
 -528 993 l 2
 -555.333 988.333 -569 956.333 -569 897 c 2
 -569 887 l 1
 -639 911.667 -679.333 954 -690 1014 c 1
 -694 1065 l 2
 -696.667 1098.33 -688.167 1131.5 -668.5 1164.5 c 0
 -648.833 1197.5 -623.333 1219 -592 1229 c 1
 -532 1241 l 1
 -483 1243 l 1
 -446 1243 l 1
 -272 1225 l 1
 -213.333 1225 -184 1251 -184 1303 c 1
 -86 1309 l 1
 -86 1205 -153 1153 -287 1153 c 2
-238 993 m 1
 -238 1016.33 -249.333 1028 -272 1028 c 0
 -294 1028 -305 1016.33 -305 993 c 0
 -305 969.667 -294 958 -272 958 c 0
 -260 958 -251.333 961.667 -246 969 c 1
 -238 993 l 1
EndSplineSet
EndChar
StartChar: uni0E48
Encoding: 272 3656
OldEncoding: 3656
Width: 0
Flags: W
Fore
-152 1325 m 1
 -240 1325 l 1
 -240 1575 l 1
 -152 1575 l 1
 -152 1325 l 1
EndSplineSet
EndChar
StartChar: uni0E49
Encoding: 273 3657
OldEncoding: 3657
Width: 0
Flags: W
Fore
23 1475 m 1
 -23 1417.67 -75.6667 1375.33 -135 1348 c 0
 -151 1340.67 -181 1331 -225 1319 c 1
 -309 1311 l 1
 -346 1311 l 1
 -381 1315 l 1
 -361.667 1328.33 -346 1343.33 -334 1360 c 1
 -322 1380 l 1
 -313 1405 l 1
 -319 1404.33 -324.667 1404 -330 1404 c 0
 -359.333 1404 -383.667 1413.5 -403 1432.5 c 0
 -422.333 1451.5 -432 1475.67 -432 1505 c 0
 -432 1573.67 -401.333 1608 -340 1608 c 1
 -319 1610 l 1
 -260.333 1610 -225 1577.67 -213 1513 c 1
 -213 1480.33 -219 1448.33 -231 1417 c 1
 -256 1374 l 1
 -228 1380.67 -201.333 1391 -176 1405 c 0
 -122.667 1433.67 -73.6667 1472.67 -29 1522 c 0
 -9.66667 1542.67 7.66667 1569.33 23 1602 c 1
 23 1475 l 1
-319 1456 m 0
 -286.333 1456 -270 1471.67 -270 1503 c 0
 -270 1534.33 -287.333 1553 -322 1559 c 1
 -354.667 1559 -371.667 1541.67 -373 1507 c 0
 -374.333 1473 -356.333 1456 -319 1456 c 0
EndSplineSet
EndChar
StartChar: uni0E4A
Encoding: 274 3658
OldEncoding: 3658
Width: 0
Flags: W
Fore
104 1528 m 1
 98.6667 1486 82.1667 1446.83 54.5 1410.5 c 0
 26.8333 1374.17 -6.33333 1348.33 -45 1333 c 0
 -80.3333 1319.67 -122.667 1313 -172 1313 c 1
 -137 1356 l 1
 -125 1376 -117 1399.67 -113 1427 c 1
 -113 1477 l 1
 -118.333 1508.33 -135.333 1526 -164 1530 c 0
 -182 1532.67 -199 1529.33 -215 1520 c 0
 -225.667 1515.33 -234 1508.33 -240 1499 c 1
 -263.333 1526.33 -292 1536 -326 1528 c 0
 -360 1520 -377 1493.33 -377 1448 c 1
 -360.333 1461.33 -340.333 1468 -317 1468 c 0
 -295.667 1468 -277.833 1459.67 -263.5 1443 c 0
 -249.167 1426.33 -242 1406.67 -242 1384 c 0
 -242 1332.67 -272.667 1307 -334 1307 c 0
 -368.667 1307 -396 1322 -416 1352 c 0
 -432 1376.67 -440 1407.33 -440 1444 c 0
 -440 1482.67 -432 1515.67 -416 1543 c 0
 -396 1575 -368 1591 -332 1591 c 1
 -294.667 1595 -264.667 1579.33 -242 1544 c 1
 -222.667 1575.33 -192 1591 -150 1591 c 0
 -120.667 1591 -95.8333 1581.83 -75.5 1563.5 c 0
 -55.1667 1545.17 -45 1521.67 -45 1493 c 0
 -45 1434.33 -55.3333 1391.33 -76 1364 c 1
 -44.6667 1376 -15.3333 1405.33 12 1452 c 0
 25.3333 1474 33 1496 35 1518 c 2
 41 1583 l 1
 104 1528 l 1
-324 1350 m 0
 -300.667 1350 -289 1362 -289 1386 c 0
 -289 1410.67 -301.333 1423 -326 1423 c 0
 -348.667 1423 -360 1410.67 -360 1386 c 0
 -360 1362 -348 1350 -324 1350 c 0
EndSplineSet
EndChar
StartChar: uni0E4B
Encoding: 275 3659
OldEncoding: 3659
Width: 0
Flags: W
Fore
-43 1405 m 1
 -150 1405 l 1
 -150 1303 l 1
 -233 1303 l 1
 -233 1405 l 1
 -346 1405 l 1
 -346 1489 l 1
 -233 1489 l 1
 -233 1597 l 1
 -150 1597 l 1
 -150 1489 l 1
 -43 1489 l 1
 -43 1405 l 1
EndSplineSet
EndChar
StartChar: uni0E4C
Encoding: 276 3660
OldEncoding: 3660
Width: 0
Flags: W
Fore
47 1597 m 1
 39 1550 l 1
 31 1525.33 12 1504.33 -18 1487 c 1
 -44 1474.33 -88.6667 1464.67 -152 1458 c 1
 -232 1458 -283 1440.33 -305 1405 c 1
 -313 1380 l 1
 -295.667 1394 -274 1401 -248 1401 c 0
 -218 1401 -193.333 1391.5 -174 1372.5 c 0
 -154.667 1353.5 -145 1328.67 -145 1298 c 0
 -145 1268 -155.333 1242.5 -176 1221.5 c 0
 -196.667 1200.5 -222 1190 -252 1190 c 0
 -292.667 1190 -326.667 1205.17 -354 1235.5 c 0
 -381.333 1265.83 -395 1301.67 -395 1343 c 1
 -389 1384 l 1
 -365.667 1473.33 -283.667 1518 -143 1518 c 0
 -101 1518 -71.6667 1530 -55 1554 c 1
 -41 1597 l 1
 47 1597 l 1
-254 1243 m 0
 -218.667 1243 -201 1260.67 -201 1296 c 0
 -201 1332 -219.333 1350.67 -256 1352 c 0
 -292.667 1353.33 -311 1335.33 -311 1298 c 0
 -311 1261.33 -292 1243 -254 1243 c 0
EndSplineSet
EndChar
StartChar: uni0E4D
Encoding: 277 3661
OldEncoding: 3661
Width: 0
Flags: W
Fore
-227 846 m 0
 -267 846 -299.5 858.5 -324.5 883.5 c 0
 -349.5 908.5 -362 941 -362 981 c 0
 -362 1022.33 -349.833 1055.5 -325.5 1080.5 c 0
 -301.167 1105.5 -268.333 1118 -227 1118 c 0
 -186.333 1118 -153.333 1105.5 -128 1080.5 c 0
 -102.667 1055.5 -90 1022.33 -90 981 c 0
 -90 939.667 -102.667 906.833 -128 882.5 c 0
 -153.333 858.167 -186.333 846 -227 846 c 0
-227 907 m 0
 -177 907 -152 931.667 -152 981 c 0
 -152 1031.67 -177 1057 -227 1057 c 0
 -276.333 1057 -301 1031.67 -301 981 c 0
 -301 931.667 -276.333 907 -227 907 c 0
EndSplineSet
EndChar
StartChar: uni0E4E
Encoding: 278 3662
OldEncoding: 3662
Width: 0
Flags: W
Fore
-43 1024 m 1
 -79.6667 992.667 -134.333 977 -207 977 c 0
 -301 977 -348 1011 -348 1079 c 0
 -348 1111.67 -337 1139.67 -315 1163 c 0
 -276.333 1205.67 -220.333 1227 -147 1227 c 0
 -171.667 1227 -193.667 1235.33 -213 1252 c 0
 -232.333 1268.67 -242 1289 -242 1313 c 1
 -229.333 1369 -171.333 1405 -68 1421 c 1
 -20 1423 l 2
 24 1425 56.6667 1419.67 78 1407 c 1
 27 1368 l 1
 6 1372 l 1
 -27 1378 l 1
 -68 1372 l 1
 -110 1360 -133.667 1337 -139 1303 c 1
 -139 1282.33 -129.667 1266.33 -111 1255 c 1
 -80 1243 l 1
 -43 1239 l 1
 -63 1192 l 1
 -176.333 1192 -233 1158 -233 1090 c 0
 -233 1051.33 -210.667 1032 -166 1032 c 0
 -132 1032 -105.333 1041.67 -86 1061 c 1
 -43 1024 l 1
EndSplineSet
EndChar
StartChar: uni0E4F
Encoding: 279 3663
OldEncoding: 3663
Width: 801
Flags: W
Fore
414 0 m 0
 323.333 0 249 28.5 191 85.5 c 0
 133 142.5 104 216.333 104 307 c 0
 104 399 132.667 473.5 190 530.5 c 0
 247.333 587.5 322 616 414 616 c 0
 504 616 577.667 587.167 635 529.5 c 0
 692.333 471.833 721 397.667 721 307 c 0
 721 215 692.667 140.833 636 84.5 c 0
 579.333 28.1667 505.333 1.73472e-18 414 0 c 0
414 41 m 0
 492 41 555.5 65.8333 604.5 115.5 c 0
 653.5 165.167 678 229 678 307 c 0
 678 385.667 653.5 449.667 604.5 499 c 0
 555.5 548.333 492 573 414 573 c 0
 336.667 573 272.833 547.833 222.5 497.5 c 0
 172.167 447.167 147 383.667 147 307 c 0
 147 228.333 171.667 164.333 221 115 c 0
 270.333 65.6667 334.667 41 414 41 c 0
414 133 m 0
 362.667 133 320.5 149.333 287.5 182 c 0
 254.5 214.667 238 256.333 238 307 c 0
 238 359 254.333 401.333 287 434 c 0
 319.667 466.667 362 483 414 483 c 0
 464.667 483 506.667 466.333 540 433 c 0
 573.333 399.667 590 357.667 590 307 c 0
 590 255 573.667 213 541 181 c 0
 508.333 149 466 133 414 133 c 0
412 174 m 0
 451.333 174 483.333 186 508 210 c 0
 532.667 234 545 265.667 545 305 c 0
 545 345 532.667 376.833 508 400.5 c 0
 483.333 424.167 451.333 436 412 436 c 0
 373.333 436 341.833 423.833 317.5 399.5 c 0
 293.167 375.167 281 343.667 281 305 c 0
 281 265.667 292.833 234 316.5 210 c 0
 340.167 186 372 174 412 174 c 0
EndSplineSet
EndChar
StartChar: uni0E50
Encoding: 280 3664
OldEncoding: 3664
Width: 817
Flags: W
Fore
735 279 m 0
 735 188.333 705 118 645 68 c 0
 588.333 21.3333 514 -2 422 -2 c 0
 331.333 -2 257.667 22 201 70 c 0
 139.667 121.333 109 191 109 279 c 0
 109 366.333 139.667 435 201 485 c 0
 257.667 531.667 331.333 555 422 555 c 0
 512.667 555 586.333 532 643 486 c 0
 704.333 436.667 735 367.667 735 279 c 0
641 279 m 0
 641 343 620.333 393.667 579 431 c 0
 539.667 465.667 487.333 483 422 483 c 0
 355.333 483 302.667 466 264 432 c 0
 223.333 395.333 203 344.333 203 279 c 0
 203 215.667 224 165.333 266 128 c 0
 306 93.3333 358 76 422 76 c 0
 486.667 76 539.333 93.8333 580 129.5 c 0
 620.667 165.167 641 215 641 279 c 0
EndSplineSet
EndChar
StartChar: uni0E51
Encoding: 281 3665
OldEncoding: 3665
Width: 817
Flags: W
Fore
762 264 m 0
 762 188 747 117 717 51 c 0
 683 -23 634.333 -75.3333 571 -106 c 1
 520 -41 l 1
 618.667 7 668 107.333 668 260 c 0
 668 326 644 379.667 596 421 c 0
 551.333 459.667 495.333 479 428 479 c 0
 364 479 310.667 462.667 268 430 c 0
 222 394 199 345 199 283 c 0
 199 183 234.333 118 305 88 c 1
 350 80 l 1
 376 80 397.333 85.3333 414 96 c 1
 426 106 l 1
 367.333 100.667 323 122.667 293 172 c 1
 286.333 188.667 281.667 207.667 279 229 c 1
 279 317.667 321.333 362 406 362 c 0
 506.667 362 557 307.667 557 199 c 0
 557 139.667 537.667 91.3333 499 54 c 0
 460.333 16.6667 411.333 -2 352 -2 c 0
 188 -2 106 93.6667 106 285 c 0
 106 369.667 139 436.667 205 486 c 0
 264.333 530.667 338 553 426 553 c 0
 522 553 600.333 529.333 661 482 c 0
 728.333 430 762 357.333 762 264 c 0
422 174 m 0
 458.667 174 477 192.333 477 229 c 0
 477 269 456 289.667 414 291 c 0
 376.667 291.667 358 273.333 358 236 c 0
 358 194.667 379.333 174 422 174 c 0
EndSplineSet
EndChar
StartChar: uni0E52
Encoding: 282 3666
OldEncoding: 3666
Width: 817
Flags: W
Fore
797 74 m 1
 784.333 24.6667 747.333 1.73472e-18 686 0 c 2
 184 0 l 2
 112 0 76 43 76 129 c 2
 76 682 l 2
 76 715.333 52.6667 733.667 6 737 c 2
 -23 739 l 1
 -23 819 l 1
 31 815 l 2
 88.3333 810.333 128.667 788.667 152 750 c 1
 164 733.333 170 712 170 686 c 2
 170 150 l 2
 170 102 190.333 78 231 78 c 2
 666 80 l 2
 693.333 80 707 104.667 707 154 c 2
 707 395 l 2
 707 449.667 687 477 647 477 c 0
 621 477 600.667 460.667 586 428 c 1
 573 379 l 1
 508 379 l 1
 508 394.333 501 412 487 432 c 0
 467 462 442 477 412 477 c 0
 373.333 477 348 456 336 414 c 1
 360 416 l 2
 382 417.333 404.667 410.333 428 395 c 0
 460.667 373.667 477 339.667 477 293 c 0
 477 267 471.667 245 461 227 c 1
 444.333 190.333 408.667 172 354 172 c 0
 310 172 275.667 190 251 226 c 0
 229.667 257.333 219 296 219 342 c 0
 219 394.667 234.333 442.333 265 485 c 0
 298.333 531.667 340.333 555 391 555 c 0
 439 555 478.667 542.667 510 518 c 1
 541 481 l 1
 553 506 l 1
 573.667 538.667 608.333 555 657 555 c 0
 701.667 555 736.5 540.5 761.5 511.5 c 0
 786.5 482.5 799 445.667 799 401 c 1
 797 74 l 1
354 240 m 0
 390 240 408 257.667 408 293 c 0
 408 329.667 390 348 354 348 c 0
 318.667 348 301 329.667 301 293 c 0
 301 257.667 318.667 240 354 240 c 0
EndSplineSet
EndChar
StartChar: uni0E53
Encoding: 283 3667
OldEncoding: 3667
Width: 817
Flags: W
Fore
825 0 m 1
 735 0 l 1
 735 352 l 2
 735 434 705 475 645 475 c 0
 611.667 475 585 462.333 565 437 c 0
 545 411.667 535 382 535 348 c 2
 535 0 l 1
 442 0 l 1
 442 350 l 2
 442 388.667 428 419.333 400 442 c 0
 373.333 462.667 340.333 473 301 473 c 0
 242.333 473 203.333 434 184 356 c 1
 178 283 l 1
 182 238 l 1
 211 250 l 1
 244 254 l 1
 287 248 l 2
 312.333 244 333.333 227.667 350 199 c 0
 364 175 371 148.333 371 119 c 0
 371 81.6667 358.667 51.8333 334 29.5 c 0
 309.333 7.16667 278.667 -4 242 -4 c 1
 211 0 l 1
 123.667 20.6667 80 108 80 262 c 0
 80 342.667 96.3333 409.333 129 462 c 0
 168.333 524 226.333 555 303 555 c 0
 362.333 555 411.667 538 451 504 c 0
 463.667 492.667 476.333 475.667 489 453 c 1
 511 521 561.667 555 641 555 c 0
 695.667 555 740 538 774 504 c 0
 808 470 825 425.667 825 371 c 2
 825 0 l 1
242 68 m 1
 276 68 295.667 87 301 125 c 1
 301 164.333 281.333 184 242 184 c 0
 208 184 188 164.333 182 125 c 1
 182 111 187 97.3333 197 84 c 1
 205 76 220 70.6667 242 68 c 1
EndSplineSet
EndChar
StartChar: uni0E54
Encoding: 284 3668
OldEncoding: 3668
Width: 817
Flags: W
Fore
938 829 m 1
 938 778.333 924.667 724 898 666 c 0
 870 606 836.333 561.333 797 532 c 0
 742.333 492.667 672 474.333 586 477 c 2
 446 481 l 1
 381 479 l 2
 359.667 478.333 341.333 475 326 469 c 1
 216.667 441.667 162 376 162 272 c 0
 162 218.667 174.667 173.667 200 137 c 0
 229.333 96.3333 270 76 322 76 c 1
 418 90 l 1
 461 92 l 1
 483 92 l 2
 467.667 92 439.667 104.333 399 129 c 0
 347 161 315.667 202 305 252 c 1
 303 276 l 1
 300.333 312.667 311 344.167 335 370.5 c 0
 359 396.833 389.333 410 426 410 c 0
 466.667 410 500.333 398.167 527 374.5 c 0
 553.667 350.833 567 319 567 279 c 1
 565 260 l 2
 561 223.333 539.333 196 500 178 c 1
 518 162 l 2
 534 148 560.667 137.667 598 131 c 2
 727 109 l 1
 780 88 l 1
 821 63 l 1
 774 -8 l 1
 700 23 l 1
 664.667 32.3333 634.667 37 610 37 c 0
 583.333 37 548 33 504 25 c 0
 401.333 5.66667 339 -4 317 -4 c 0
 248.333 -4 191.667 17.6667 147 61 c 0
 91 116.333 63 184 63 264 c 0
 63 360 98.6667 435.667 170 491 c 0
 236 541.667 318 565.667 416 563 c 2
 494 561 l 1
 530 561 l 2
 542.667 561 557 559.667 573 557 c 1
 625 557 667.333 563 700 575 c 0
 726 585 750.667 606.333 774 639 c 0
 824.667 710.333 850 784.667 850 862 c 1
 938 829 l 1
440 229 m 0
 468.667 229 486 247 492 283 c 1
 492 322.333 472 342 432 342 c 0
 396.667 342 379 325 379 291 c 0
 379 249.667 399.333 229 440 229 c 0
EndSplineSet
EndChar
StartChar: uni0E55
Encoding: 285 3669
OldEncoding: 3669
Width: 817
Flags: W
Fore
870 887 m 1
 866 848.333 856.667 814.667 842 786 c 0
 839.333 778.667 829.667 760.333 813 731 c 1
 795 709 l 1
 811 680 l 1
 821.667 655.333 827 632 827 610 c 1
 821 569 l 1
 810.333 524.333 781 495 733 481 c 0
 693.667 469.667 658.333 465 627 467 c 2
 414 479 l 1
 369 477 l 1
 322 469 l 2
 272.667 460.333 232.333 437.833 201 401.5 c 0
 169.667 365.167 154 322 154 272 c 0
 154 216.667 166.667 171.333 192 136 c 0
 220.667 96 261.667 76 315 76 c 1
 412 90 l 1
 453 92 l 1
 475 92 l 2
 446.333 92 408.667 111.333 362 150 c 0
 328 178 307 212 299 252 c 1
 297 279 l 2
 293 333.667 314.667 373.667 362 399 c 0
 375.333 406.333 393.333 410 416 410 c 0
 511.333 410 559 367.667 559 283 c 1
 557 260 l 2
 553.667 222.667 532 195.333 492 178 c 1
 510 162 l 2
 526 148 552.667 137.667 590 131 c 2
 721 109 l 2
 727.667 107.667 745.333 99.3333 774 84 c 2
 813 63 l 1
 766 -8 l 1
 692 23 l 1
 656.667 32.3333 626.667 37 602 37 c 0
 569.333 37 520.667 30.1667 456 16.5 c 0
 391.333 2.83333 342.333 -4 309 -4 c 0
 234.333 -4 173.333 22.3333 126 75 c 0
 80 125.667 57 188.667 57 264 c 0
 57 360 92 435.333 162 490 c 0
 227.333 542 308.667 565.667 406 561 c 2
 616 551 l 2
 691.333 547 729 564.667 729 604 c 1
 727 618 l 1
 725 635 l 1
 690 612 l 1
 657.333 597.333 627.333 590 600 590 c 0
 546.667 590 507 605.667 481 637 c 0
 463.667 659 455 681.667 455 705 c 0
 455 756.333 485 792.333 545 813 c 1
 575 819 l 1
 604 821 l 2
 638.667 823.667 675.667 815 715 795 c 1
 735 780 l 1
 748 797 l 1
 772 850 l 1
 778.667 873.333 782 896.667 782 920 c 1
 870 887 l 1
690 713 m 1
 674 734.333 647.333 745 610 745 c 0
 565.333 745 543 733 543 709 c 0
 543 696.333 549 686 561 678 c 1
 608 670 l 1
 642 670 669.333 684.333 690 713 c 1
432 229 m 1
 466.667 229 484.333 246.333 485 281 c 0
 487 321.667 466.667 342 424 342 c 0
 390 342 373 325 373 291 c 0
 373 274.333 377.667 259.333 387 246 c 1
 395 237.333 410 231.667 432 229 c 1
EndSplineSet
EndChar
StartChar: uni0E56
Encoding: 286 3670
OldEncoding: 3670
Width: 817
Flags: W
Fore
748 313 m 1
 750 274 l 2
 754 194 729.167 128.333 675.5 77 c 0
 621.833 25.6667 554.333 1.73472e-18 473 0 c 0
 407.667 0 351.667 13 305 39 c 0
 246.333 71.6667 217 118 217 178 c 0
 217 216.667 227.667 248.833 249 274.5 c 0
 270.333 300.167 300 313 338 313 c 0
 380.667 313 414.5 300.5 439.5 275.5 c 0
 464.5 250.5 477 216.667 477 174 c 0
 477 148 469 124.667 453 104 c 1
 426 82 l 1
 459 80 l 2
 516.333 76 566 97.6667 608 145 c 0
 640.667 182.333 657 229 657 285 c 0
 657 329 645.667 367 623 399 c 0
 583.667 453.667 529.667 481 461 481 c 1
 401 475 l 1
 330.333 459 280 417.333 250 350 c 1
 223 350 l 1
 217 481 l 1
 214.333 533.667 198 598 168 674 c 1
 131 745 l 2
 121 764.333 103.333 789.667 78 821 c 1
 158 870 l 1
 203.333 813.333 235.333 756 254 698 c 2
 276 629 l 1
 288.667 591 295 552.667 295 514 c 1
 338.333 542 394.333 557.667 463 561 c 1
 463 561 476 561 502 561 c 0
 570 561 627 537 673 489 c 0
 719 441 744 382.333 748 313 c 1
348 244 m 1
 307.333 244 287 223.333 287 182 c 0
 287 145.333 306 127 344 127 c 0
 385.333 127 406 147.333 406 188 c 0
 406 220 386.667 238.667 348 244 c 1
EndSplineSet
EndChar
StartChar: uni0E57
Encoding: 287 3671
OldEncoding: 3671
Width: 817
Flags: W
Fore
952 805 m 1
 890.667 743.667 860 676.667 860 604 c 2
 860 508 l 2
 860 404.667 856 331 848 287 c 0
 812 94.3333 689.667 -2 481 -2 c 1
 522 72 l 2
 546.667 116.667 563.667 161 573 205 c 1
 588 272 l 1
 596 354 l 1
 596 438.667 569.333 481 516 481 c 0
 478 481 450 457.333 432 410 c 1
 420 336 l 1
 344 336 l 1
 344 359.333 340 383.333 332 408 c 0
 315.333 456.667 284.667 481 240 481 c 0
 173.333 481 129.667 428.667 109 324 c 0
 105 306 103.333 288.667 104 272 c 1
 106 233 l 1
 113 215 l 1
 129 239.667 159.667 252 205 252 c 0
 239 252 267.667 239.167 291 213.5 c 0
 314.333 187.833 326 157.667 326 123 c 0
 326 73.6667 303.333 34.6667 258 6 c 1
 241.333 -2 221 -6 197 -6 c 0
 151 -6 115.333 7 90 33 c 0
 69.3333 53.6667 50 90 32 142 c 0
 20 178 14 220 14 268 c 0
 14 379.333 51 464 125 522 c 0
 154.333 545.333 192.667 557 240 557 c 0
 300 557 346.333 527.667 379 469 c 1
 413 527.667 462.667 557 528 557 c 0
 630.667 557 682 476.333 682 315 c 0
 682 239 658.667 164 612 90 c 1
 653 117 l 2
 695.667 144.333 728 196.667 750 274 c 1
 752.667 293.333 758 322.667 766 362 c 1
 770 451 l 1
 770 567 l 2
 770 647 787.667 711.333 823 760 c 2
 856 805 l 1
 952 805 l 1
199 68 m 1
 234.333 68 252 86.3333 252 123 c 0
 252 158.333 233 178 195 182 c 1
 157.667 182 139 163.667 139 127 c 0
 139 93 159 73.3333 199 68 c 1
EndSplineSet
EndChar
StartChar: uni0E58
Encoding: 288 3672
OldEncoding: 3672
Width: 817
Flags: W
Fore
858 815 m 1
 862 774 l 1
 866 711 l 1
 870.667 646.333 859 591.667 831 547 c 0
 793 485 725 456.333 627 461 c 2
 489 467 l 1
 375 475 l 2
 317 479 270 467.333 234 440 c 0
 196 411.333 175.333 368.333 172 311 c 1
 170 272 l 2
 168 234.667 177 201.333 197 172 c 1
 201 162.667 210.333 154.333 225 147 c 1
 238 207 l 1
 254 246.333 279.667 266 315 266 c 0
 331.667 266 396.667 221 510 131 c 0
 554.667 95.6667 599 78 643 78 c 0
 651 78 658.667 84 666 96 c 1
 670 113 l 1
 648 111.667 624.667 113.667 600 119 c 1
 544 137.667 516 177.333 516 238 c 0
 516 274.667 528 305 552 329 c 0
 576 353 606.333 365 643 365 c 0
 739.667 365 788 310.333 788 201 c 0
 788 148.333 777.333 103.333 756 66 c 0
 730 20.6667 692.333 -2 643 -2 c 0
 592.333 -2 540.333 17 487 55 c 2
 326 172 l 1
 310.667 168 303.667 150.333 305 119 c 2
 307 72 l 1
 317 35 l 1
 336 -2 l 1
 216 -2 134.667 62 92 190 c 0
 84 215.333 80 243.333 80 274 c 0
 80 345.333 104 408 152 462 c 0
 200 516 259.333 545 330 549 c 2
 369 551 l 1
 395 553 l 1
 614 541 l 2
 694.667 536.333 744.667 563.667 764 623 c 0
 772 648.333 776 679.667 776 717 c 2
 776 766 l 1
 773.333 774 772 779.333 772 782 c 0
 772 796 770 807 766 815 c 1
 858 815 l 1
651 182 m 0
 688.333 182 707 200.667 707 238 c 0
 707 273.333 688.333 291.667 651 293 c 0
 619.667 294.333 600.667 276 594 238 c 1
 594 200.667 613 182 651 182 c 0
EndSplineSet
EndChar
StartChar: uni0E59
Encoding: 289 3673
OldEncoding: 3673
Width: 817
Flags: W
Fore
788 645 m 1
 797.333 508.333 768.667 430.667 702 412 c 1
 670.667 407.333 636 417.333 598 442 c 0
 581.333 453.333 569.667 458.333 563 457 c 1
 555 453 550.333 445.333 549 434 c 0
 549 412 560.667 381.333 584 342 c 2
 629 266 l 1
 766 41 l 1
 690 0 l 1
 649 66 l 1
 547 236 l 1
 515 288 478.667 343.667 438 403 c 1
 397.333 452.333 353.667 477 307 477 c 0
 225 477 184 398.667 184 242 c 0
 184 200 193.667 162.333 213 129 c 0
 235.667 89.6667 266.333 70 305 70 c 0
 335 70 357.667 79.3333 373 98 c 1
 381 113 l 1
 346 106 l 1
 331.333 106 319.667 107.667 311 111 c 1
 283 131 l 2
 258.333 148.333 246 179.667 246 225 c 0
 246 260.333 255.833 290 275.5 314 c 0
 295.167 338 322 350 356 350 c 0
 435.333 350 475 299.667 475 199 c 0
 475 143 462 96.3333 436 59 c 0
 406.667 17 365 -4 311 -4 c 0
 235.667 -4 178.333 26.6667 139 88 c 0
 106.333 139.333 90 205 90 285 c 0
 90 359.667 107 421.667 141 471 c 0
 180.333 528.333 235.667 557 307 557 c 0
 381 557 437 527 475 467 c 1
 475 519 492 549 526 557 c 0
 542.667 561 567.333 553 600 533 c 0
 636 512.333 660.667 502 674 502 c 1
 682 504.667 688 516.333 692 537 c 1
 696 610 l 1
 696 662 l 2
 696 696 692.667 731.333 686 768 c 1
 686 784.667 682.667 803.667 676 825 c 1
 772 825 l 1
 782 735 l 1
 788 645 l 1
356 172 m 1
 371.333 172 383 178 391 190 c 1
 401 223 l 1
 401 260.333 385.333 279 354 279 c 0
 325.333 279 311 260.333 311 223 c 0
 311 204.333 316.667 190 328 180 c 1
 356 172 l 1
EndSplineSet
EndChar
StartChar: uni0E5A
Encoding: 290 3674
OldEncoding: 3674
Width: 836
Flags: W
Fore
197 758 m 0
 163.667 758.667 142.333 736.667 133 692 c 1
 133 654.667 154.333 633 197 627 c 1
 217 627 233.333 633 246 645 c 1
 254 657.667 259.333 673.333 262 692 c 1
 262 734.667 240.333 756.667 197 758 c 0
551 772 m 1
 598 801 l 2
 609.333 807.667 623.667 812.333 641 815 c 1
 689 815 724.667 799.333 748 768 c 0
 754.667 758.667 760.667 743 766 721 c 1
 770 682 l 1
 770 190 l 2
 770 100 728.333 39.3333 645 8 c 1
 600 -4 l 1
 559 68 l 1
 586 74 l 2
 598 76.6667 608 81.3333 616 88 c 2
 651 117 l 2
 662.333 127.667 669.333 140 672 154 c 1
 672 676 l 2
 672 692 669.333 703 664 709 c 0
 655.333 721 640 727 618 727 c 0
 594 727 575.667 716.667 563 696 c 1
 563 201 l 2
 563 146.333 547.667 99.6667 517 61 c 0
 483.667 19 440.333 -2 387 -2 c 1
 346 70 l 1
 377.333 70 408 85 438 115 c 0
 457.333 133.667 467 163 467 203 c 2
 467 516 l 1
 443.667 470.667 419.333 439 394 421 c 0
 365.333 401 327 391 279 391 c 0
 201 391 140.667 418.333 98 473 c 0
 60 522.333 41 587.333 41 668 c 1
 45 709.333 62 744.833 92 774.5 c 0
 122 804.167 157.667 819 199 819 c 0
 220.333 819 236.667 816.333 248 811 c 1
 300 799 326 760.667 326 696 c 0
 326 658.667 314.333 627.167 291 601.5 c 0
 267.667 575.833 237.667 563 201 563 c 0
 179 563 158.333 568 139 578 c 1
 145 553 l 1
 158 520 l 1
 166 505.333 175.333 494.333 186 487 c 1
 233 471 l 1
 274 467 l 1
 302.667 467 328.667 476.667 352 496 c 1
 385 532 l 1
 420 592 l 2
 432 613.333 440.667 639.333 446 670 c 1
 455 780 l 1
 459 804.667 474 817 500 817 c 0
 513.333 817 523.333 814.333 530 809 c 1
 543 791 l 1
 551 772 l 1
EndSplineSet
EndChar
StartChar: uni0E5B
Encoding: 291 3675
OldEncoding: 3675
Width: 1477
Flags: W
Fore
1456 381 m 1
 1456 326 l 1
 1163 319 l 1
 1151 322.333 1138.67 328 1126 336 c 1
 1104 356 l 1
 1094 373 l 1
 1079 391 l 1
 1010 172 l 1
 946 391 l 1
 870 121 l 1
 797 399 l 1
 745 133 l 1
 711 133 l 1
 633 465 l 1
 617.667 399.667 602.667 347 588 307 c 0
 562 237.667 538.667 190 518 164 c 0
 464.667 96.6667 396.333 63 313 63 c 0
 228.333 63 160 99.3333 108 172 c 0
 62 236.667 39 313 39 401 c 0
 39 483.667 58.6667 557 98 621 c 0
 144 694.333 205.667 731 283 731 c 0
 351.667 731 405.333 706.667 444 658 c 0
 480 613.333 498 555.667 498 485 c 0
 498 423.667 484.333 370 457 324 c 0
 424.333 269.333 379.333 242 322 242 c 0
 280.667 242 245.667 260.333 217 297 c 1
 193.667 335 182 369.667 182 401 c 0
 182 427 190.5 451.333 207.5 474 c 0
 224.5 496.667 245.333 508 270 508 c 0
 295.333 508 316.333 496.667 333 474 c 0
 349.667 451.333 358 427 358 401 c 0
 358 363 344.333 333 317 311 c 1
 344.333 311 370.333 327.333 395 360 c 1
 417 400 428 442.333 428 487 c 0
 428 601.667 379.667 659 283 659 c 0
 229.667 659 186 627.667 152 565 c 0
 123.333 511.667 109 456.333 109 399 c 0
 109 333 126 274.333 160 223 c 0
 198.667 164.333 249.667 135 313 135 c 0
 394.333 135 456 181.333 498 274 c 0
 512.667 308 540 395.667 580 537 c 1
 618 676 l 1
 651 676 l 1
 723 365 l 1
 774 618 l 1
 809 618 l 1
 872 367 l 1
 942 616 l 1
 1012 387 l 1
 1063 557 l 1
 1120 451 l 2
 1142.67 408.333 1165.33 385 1188 381 c 1
 1272 379 l 1
 1456 381 l 1
270 444 m 1
 262 438.667 256.667 433.333 254 428 c 1
 246 399 l 1
 246 374.333 254 360.667 270 358 c 1
 277.333 360.667 282.333 364.333 285 369 c 1
 293 401 l 1
 293 412.333 291 422.333 287 431 c 0
 283 439.667 277.333 444 270 444 c 1
EndSplineSet
EndChar
StartChar: endash
Encoding: 293 8211
OldEncoding: 8211
Width: 733
Flags: W
Fore
698 344 m 1
 55 344 l 1
 55 436 l 1
 698 436 l 1
 698 344 l 1
EndSplineSet
EndChar
StartChar: emdash
Encoding: 294 8212
OldEncoding: 8212
Width: 948
Flags: W
Fore
911 344 m 1
 55 344 l 1
 55 436 l 1
 911 436 l 1
 911 344 l 1
EndSplineSet
EndChar
StartChar: quoteleft
Encoding: 295 8216
OldEncoding: 8216
Width: 358
Flags: W
Fore
225 907 m 1
 181.667 899 151.667 870.333 135 821 c 1
 129 786 l 1
 154 791 l 1
 180 791 201.833 781.833 219.5 763.5 c 0
 237.167 745.167 246 722.667 246 696 c 0
 246 651.333 227.333 621.333 190 606 c 0
 180 602 164.333 598.667 143 596 c 1
 106.333 596 77 613 55 647 c 1
 45.6667 666.333 41 691 41 721 c 0
 41 852.333 102.333 932.333 225 961 c 1
 225 907 l 1
EndSplineSet
EndChar
StartChar: quoteright
Encoding: 296 8217
OldEncoding: 8217
Width: 373
Flags: W
Fore
272 924 m 1
 282 902 287 878 287 852 c 0
 287 818 281.333 784.667 270 752 c 0
 256 708.667 222 669.667 168 635 c 0
 150.667 623.667 128 614.667 100 608 c 1
 100 662 l 1
 122 666 146 683 172 713 c 1
 178.667 722.333 185.667 737.333 193 758 c 1
 197 782 l 1
 172 778 l 1
 144.667 778 122.5 787.167 105.5 805.5 c 0
 88.5 823.833 80 846.667 80 874 c 0
 80 922.667 97 952.333 131 963 c 2
 158 971 l 1
 184 973 l 2
 217.333 975.667 246.667 959.333 272 924 c 1
EndSplineSet
EndChar
StartChar: quotesinglbase
Encoding: 297 8218
OldEncoding: 8218
Width: 297
Flags: W
Fore
81 0 m 1
 81 136 l 1
 207 136 l 1
 207 29 l 2
 207 -77.6667 171 -146.333 99 -177 c 1
 70 -131 l 1
 118 -110.333 142 -66.6667 142 0 c 1
 81 0 l 1
EndSplineSet
EndChar
StartChar: quotedblleft
Encoding: 298 8220
OldEncoding: 8220
Width: 647
Flags: W
Fore
555 903 m 1
 545.667 900.333 534.667 895 522 887 c 1
 487 854 l 1
 477 840.667 469 822.333 463 799 c 2
 459 782 l 1
 485 786 l 1
 511.667 786 533.833 777.167 551.5 759.5 c 0
 569.167 741.833 578 720 578 694 c 0
 578 648 560.667 618 526 604 c 0
 506 596 487.667 592 471 592 c 0
 451.667 592 434 596 418 604 c 1
 385.333 628.667 369 665.667 369 715 c 0
 369 773.667 385.833 825.167 419.5 869.5 c 0
 453.167 913.833 498.333 942.667 555 956 c 1
 555 903 l 1
248 907 m 1
 238 904.333 227 899 215 891 c 1
 180 858 l 1
 170 845.333 162 827 156 803 c 2
 152 786 l 1
 176 791 l 1
 203.333 791 225.833 781.833 243.5 763.5 c 0
 261.167 745.167 270 722 270 694 c 0
 270 652 253 622.667 219 606 c 1
 166 596 l 1
 129.333 596 100 613 78 647 c 1
 70 663.667 66 687.667 66 719 c 0
 66 849.667 126.667 930.333 248 961 c 1
 248 907 l 1
EndSplineSet
EndChar
StartChar: quotedblright
Encoding: 299 8221
OldEncoding: 8221
Width: 711
Flags: W
Fore
590 920 m 1
 600.667 898 606 872.667 606 844 c 0
 606 714 544.667 634 422 604 c 1
 422 657 l 1
 444 661.667 468 679 494 709 c 1
 500.667 718.333 507.333 733.333 514 754 c 1
 518 778 l 1
 494 774 l 1
 467.333 774 444.833 783.5 426.5 802.5 c 0
 408.167 821.5 399 844 399 870 c 0
 399 914.667 414.667 943.333 446 956 c 0
 458.667 961.333 478 965.667 504 969 c 1
 540.667 969 569.333 952.667 590 920 c 1
287 924 m 1
 296.333 902 301 878 301 852 c 0
 301 818 295.667 786.667 285 758 c 0
 255 678.667 198.333 628.667 115 608 c 1
 115 662 l 1
 124.333 664.667 135 670 147 678 c 1
 182 709 l 1
 192 719.667 200.333 738.667 207 766 c 2
 211 782 l 1
 186 778 l 1
 160 778 137.833 787.5 119.5 806.5 c 0
 101.167 825.5 92 848 92 874 c 0
 92 916.667 109 946.333 143 963 c 1
 154.333 967 173 970.333 199 973 c 1
 234.333 973 263.667 956.667 287 924 c 1
EndSplineSet
EndChar
StartChar: quotedblbase
Encoding: 300 8222
OldEncoding: 8222
Width: 445
Flags: W
Fore
57 0 m 1
 57 136 l 1
 183 136 l 1
 183 29 l 2
 183 -77.6667 147 -146.333 75 -177 c 1
 46 -131 l 1
 94 -110.333 118 -66.6667 118 0 c 1
 57 0 l 1
259 0 m 1
 259 136 l 1
 385 136 l 1
 385 29 l 2
 385 -76.3333 349 -145 277 -177 c 1
 249 -131 l 1
 296.333 -110.333 320 -66.6667 320 0 c 1
 259 0 l 1
EndSplineSet
EndChar
StartChar: dagger
Encoding: 301 8224
OldEncoding: 8224
Width: 743
Flags: W
Fore
308 -226 m 1
 308 565 l 1
 48 565 l 1
 48 670 l 1
 308 670 l 1
 308 935 l 1
 426 935 l 1
 426 670 l 1
 688 670 l 1
 688 565 l 1
 426 565 l 1
 426 -226 l 1
 308 -226 l 1
EndSplineSet
EndChar
StartChar: daggerdbl
Encoding: 302 8225
OldEncoding: 8225
Width: 743
Flags: W
Fore
310 -226 m 1
 310 16 l 1
 48 16 l 1
 48 121 l 1
 310 121 l 1
 310 594 l 1
 48 594 l 1
 48 699 l 1
 310 699 l 1
 310 944 l 1
 428 944 l 1
 428 699 l 1
 691 699 l 1
 691 594 l 1
 428 594 l 1
 428 121 l 1
 691 121 l 1
 691 16 l 1
 428 16 l 1
 428 -226 l 1
 310 -226 l 1
EndSplineSet
EndChar
StartChar: bullet
Encoding: 303 8226
OldEncoding: 8226
Width: 707
Flags: W
Fore
362 131 m 0
 298 131 244.833 152.167 202.5 194.5 c 0
 160.167 236.833 139 290 139 354 c 0
 139 421.333 159.5 475.833 200.5 517.5 c 0
 241.5 559.167 295.333 580 362 580 c 0
 429.333 580 483.5 559.167 524.5 517.5 c 0
 565.5 475.833 586 421.333 586 354 c 0
 586 287.333 565.5 233.5 524.5 192.5 c 0
 483.5 151.5 429.333 131 362 131 c 0
EndSplineSet
EndChar
StartChar: ellipsis
Encoding: 304 8230
OldEncoding: 8230
Width: 762
Flags: W
Fore
653 0 m 0
 607.667 0 581.667 26 575 78 c 1
 575 131.333 601 158 653 158 c 0
 705 158 731 131.333 731 78 c 0
 731 26 705 0 653 0 c 0
401 0 m 0
 355.667 0 330 26 324 78 c 1
 324 131.333 349.667 158 401 158 c 0
 453 158 479 131.333 479 78 c 0
 479 26 453 0 401 0 c 0
152 0 m 0
 106 0 80 26 74 78 c 1
 74 131.333 100 158 152 158 c 0
 203.333 158 229 131.333 229 78 c 0
 229 26 203.333 0 152 0 c 0
EndSplineSet
EndChar
StartChar: perthousand
Encoding: 305 8240
OldEncoding: 8240
Width: 1337
Flags: W
Fore
209 -35 m 1
 601 973 l 1
 687 973 l 1
 295 -35 l 1
 209 -35 l 1
24 717 m 0
 24 882.333 86.3333 965 211 965 c 0
 336.333 965 399 883.333 399 720 c 0
 399 548 336.667 462 212 462 c 0
 86.6667 462 24 547 24 717 c 0
121 712 m 0
 121 600 152.333 544 215 544 c 0
 273 544 302 600.333 302 713 c 0
 302 827 272 884 212 884 c 0
 151.333 884 121 826.667 121 712 c 0
498 219 m 0
 498 384.333 560 467 684 467 c 0
 810 467 873 385.333 873 222 c 0
 873 50.6667 810.667 -35 686 -35 c 0
 560.667 -35 498 49.6667 498 219 c 0
595 214 m 0
 595 102 626.333 46 689 46 c 0
 747 46 776 102.333 776 215 c 0
 776 329 746 386 686 386 c 0
 625.333 386 595 328.667 595 214 c 0
938 219 m 0
 938 384.333 1000.33 467 1125 467 c 0
 1250.33 467 1313 385.333 1313 222 c 0
 1313 50.6667 1250.67 -35 1126 -35 c 0
 1000.67 -35 938 49.6667 938 219 c 0
1035 214 m 0
 1035 102 1066.33 46 1129 46 c 0
 1187 46 1216 102.333 1216 215 c 0
 1216 329 1186 386 1126 386 c 0
 1065.33 386 1035 328.667 1035 214 c 0
EndSplineSet
EndChar
StartChar: guilsinglleft
Encoding: 306 8249
OldEncoding: 8249
Width: 445
Flags: W
Fore
190 344 m 1
 363 47 l 1
 266 47 l 1
 60 344 l 1
 266 642 l 1
 363 642 l 1
 190 344 l 1
EndSplineSet
EndChar
StartChar: guilsinglright
Encoding: 307 8250
OldEncoding: 8250
Width: 445
Flags: W
Fore
256 346 m 1
 83 642 l 1
 180 642 l 1
 379 350 l 1
 180 47 l 1
 83 47 l 1
 256 346 l 1
EndSplineSet
EndChar
StartChar: trademark
Encoding: 308 8482
OldEncoding: 8482
Width: 1337
Flags: W
Fore
319 425 m 1
 319 878 l 1
 147 878 l 1
 147 957 l 1
 582 957 l 1
 582 878 l 1
 408 878 l 1
 408 425 l 1
 319 425 l 1
641 425 m 1
 641 957 l 1
 771 957 l 1
 906 532 l 1
 1036 957 l 1
 1164 957 l 1
 1164 425 l 1
 1083 425 l 1
 1083 871 l 1
 946 425 l 1
 865 425 l 1
 723 878 l 1
 723 425 l 1
 641 425 l 1
EndSplineSet
EndChar
StartChar: uniF700
Encoding: 311 63232
OldEncoding: 63232
Width: 709
Flags: W
Fore
649 696 m 1
 625 686 l 1
 569 676 l 1
 538.333 676 502.333 680.667 461 690 c 0
 407.667 702.667 366.667 709 338 709 c 0
 296.667 709 261.667 701.333 233 686 c 1
 201 664 l 1
 303 649 l 2
 375 639 439.333 613.667 496 573 c 0
 546 537 571 488.667 571 428 c 2
 571 127 l 2
 571 86.3333 555.667 53.6667 525 29 c 0
 497 7 462 -4 420 -4 c 0
 381.333 -4 348.667 6.66667 322 28 c 0
 293.333 51.3333 279 81.6667 279 119 c 2
 279 219 l 1
 266 215 l 1
 229 211 l 1
 209 211 191.333 214.333 176 221 c 0
 126.667 243 102 282 102 338 c 1
 106 381 l 1
 112 407 128.667 428 156 444 c 0
 180.667 459.333 207.333 467 236 467 c 0
 326 467 371 421.333 371 330 c 2
 371 143 l 2
 371 99.6667 390 78 428 78 c 0
 447.333 78 461 84 469 96 c 1
 473 106 476.333 122.333 479 145 c 1
 479 418 l 2
 479 490 428 539.667 326 567 c 0
 279.333 579.667 232 589.333 184 596 c 0
 116 605.333 72.3333 609.333 53 608 c 1
 83 664.667 113.833 705.5 145.5 730.5 c 0
 177.167 755.5 223.667 773.333 285 784 c 1
 324 786 l 2
 347.333 787.333 383.833 781.667 433.5 769 c 0
 483.167 756.333 519.667 750 543 750 c 1
 566.333 746.667 588.667 750 610 760 c 2
 625 768 l 1
 649 696 l 1
236 276 m 0
 276.667 276 297 296.667 297 338 c 0
 297 378.667 276.667 399 236 399 c 0
 199.333 399 178 378.667 172 338 c 1
 172 296.667 193.333 276 236 276 c 0
EndSplineSet
EndChar
StartChar: uniF701
Encoding: 312 63233
OldEncoding: 63233
Width: 0
Flags: W
Fore
-279 872 m 1
 -365 904 -440 923.333 -504 930 c 0
 -529.333 932.667 -559.333 934 -594 934 c 0
 -690.667 934 -785 916.333 -877 881 c 1
 -877 967 -849 1037.67 -793 1093 c 0
 -737 1148.33 -666 1176 -580 1176 c 0
 -493.333 1176 -421.5 1147 -364.5 1089 c 0
 -307.5 1031 -279 958.667 -279 872 c 1
-365 971 m 1
 -401.667 1058.33 -471 1102 -573 1102 c 0
 -663.667 1102 -730 1061.67 -772 981 c 1
 -698 999 l 1
 -586 1008 l 2
 -548 1010.67 -509.667 1007 -471 997 c 2
 -365 971 l 1
EndSplineSet
EndChar
StartChar: uniF702
Encoding: 313 63234
OldEncoding: 63234
Width: 0
Flags: W
Fore
-262 870 m 1
 -366 912.667 -471.333 934 -578 934 c 0
 -666.667 934 -761.333 915.667 -862 879 c 1
 -862 962.333 -833.5 1032.33 -776.5 1089 c 0
 -719.5 1145.67 -649 1174 -565 1174 c 0
 -503.667 1174 -453.333 1161 -414 1135 c 0
 -402 1127 -389 1114 -375 1096 c 1
 -375 1264 l 1
 -283 1264 l 1
 -281 993 l 1
 -268 942 l 1
 -262 870 l 1
-350 969 m 1
 -387.333 1056.33 -457 1100 -559 1100 c 0
 -649 1100 -715.333 1059.67 -758 979 c 1
 -678 997 l 1
 -569 1006 l 1
 -506 1006 l 1
 -481.333 1002.67 -450 997 -412 989 c 0
 -400.667 987 -380 980.333 -350 969 c 1
EndSplineSet
EndChar
StartChar: uniF703
Encoding: 314 63235
OldEncoding: 63235
Width: 0
Flags: W
Fore
-281 1130 m 1
 -290.333 1103.33 -310.667 1082.33 -342 1067 c 1
 -315 1026 l 1
 -297 977 l 1
 -285 918 l 1
 -283 862 l 1
 -383.667 904.667 -488.667 926 -598 926 c 0
 -688 926 -782.333 907.333 -881 870 c 1
 -881 986 -838.667 1069.33 -754 1120 c 0
 -743.333 1126.67 -717.333 1138.33 -676 1155 c 1
 -638 1165.67 -605.333 1170.33 -578 1169 c 2
 -535 1167 l 1
 -514 1163 l 1
 -518 1194 l 1
 -518 1226 -505.667 1251.33 -481 1270 c 0
 -456.333 1288.67 -427.667 1298 -395 1298 c 0
 -369.667 1298 -348 1292.67 -330 1282 c 0
 -290 1258.67 -270 1224.67 -270 1180 c 0
 -270 1162 -273.667 1145.33 -281 1130 c 1
-393 1118 m 0
 -353.667 1118 -334 1138.67 -334 1180 c 0
 -334 1220.67 -353.667 1241 -393 1241 c 0
 -434.333 1241 -455 1220.67 -455 1180 c 0
 -455 1138.67 -434.333 1118 -393 1118 c 0
-369 961 m 1
 -404.333 1049.67 -474 1094 -578 1094 c 0
 -666.667 1094 -732.667 1053 -776 971 c 1
 -696 989 l 1
 -590 997 l 1
 -535 997 l 2
 -504.333 997 -467.333 991.667 -424 981 c 0
 -413.333 978.333 -395 971.667 -369 961 c 1
EndSplineSet
EndChar
StartChar: uniF704
Encoding: 315 63236
OldEncoding: 63236
Width: 0
Flags: W
Fore
-256 872 m 1
 -360 914.667 -465 936 -571 936 c 0
 -660.333 936 -755.333 917.667 -856 881 c 1
 -856 1051 -776 1150.67 -616 1180 c 0
 -594.667 1184 -576.333 1185.33 -561 1184 c 2
 -535 1182 l 1
 -535 1272 l 1
 -446 1272 l 1
 -446 1163 l 1
 -408 1147 l 1
 -375 1116 l 1
 -375 1272 l 1
 -287 1272 l 1
 -287 1004 l 1
 -279 981 l 1
 -266 940 l 1
 -256 872 l 1
-344 971 m 1
 -380.667 1058.33 -450.333 1102 -553 1102 c 0
 -643 1102 -709.333 1061.67 -752 981 c 1
 -678 999 l 1
 -563 1008 l 1
 -500 1008 l 1
 -475.333 1004.67 -444 999 -406 991 c 0
 -394.667 989 -374 982.333 -344 971 c 1
EndSplineSet
EndChar
StartChar: uniF705
Encoding: 316 63237
OldEncoding: 63237
Width: 0
Flags: W
Fore
-330 889 m 1
 -422 889 l 1
 -422 1186 l 1
 -330 1186 l 1
 -330 889 l 1
EndSplineSet
EndChar
StartChar: uniF706
Encoding: 317 63238
OldEncoding: 63238
Width: 0
Flags: W
Fore
-246 1063 m 1
 -282.667 1011 -338.667 966.667 -414 930 c 1
 -502 899 l 1
 -588 891 l 1
 -659 897 l 1
 -635 915 l 1
 -614 940 l 1
 -596 969 l 1
 -588 989 l 1
 -621 989 l 2
 -643.667 989 -666.667 1000.67 -690 1024 c 0
 -705.333 1039.33 -713 1061.33 -713 1090 c 0
 -713 1155.33 -689 1191.33 -641 1198 c 2
 -596 1204 l 1
 -567.333 1204 -542 1194.67 -520 1176 c 0
 -498 1157.33 -487 1134 -487 1106 c 0
 -487 1064.67 -494.667 1029.67 -510 1001 c 2
 -532 958 l 1
 -406 982.667 -310.667 1060 -246 1190 c 1
 -246 1063 l 1
-602 1038 m 0
 -565.333 1036.67 -547 1055.33 -547 1094 c 0
 -547 1132 -565.333 1151 -602 1151 c 0
 -640 1151 -659 1132 -659 1094 c 0
 -659 1058 -640 1039.33 -602 1038 c 0
EndSplineSet
EndChar
StartChar: uniF707
Encoding: 318 63239
OldEncoding: 63239
Width: 0
Flags: W
Fore
-236 1114 m 1
 -241.333 1052 -271.333 998 -326 952 c 0
 -373.333 912.667 -437.333 893 -518 893 c 1
 -492 909.667 -471.667 949.333 -457 1012 c 1
 -457 1076 -474.667 1111.33 -510 1118 c 1
 -546.667 1120.67 -573.333 1109 -590 1083 c 1
 -596.667 1093 -610 1101.33 -630 1108 c 0
 -650 1114.67 -666 1116.67 -678 1114 c 0
 -713.333 1106.67 -731 1079.33 -731 1032 c 1
 -713 1044 l 1
 -668 1053 l 1
 -646 1053 -627.833 1044.5 -613.5 1027.5 c 0
 -599.167 1010.5 -592 991 -592 969 c 0
 -592 914.333 -623.333 887 -686 887 c 0
 -722 887 -750 902.333 -770 933 c 0
 -786.667 959.667 -795 992 -795 1030 c 0
 -795 1121.33 -758 1172 -684 1182 c 1
 -640 1182 -609.333 1164.67 -592 1130 c 1
 -570 1164.67 -538.667 1182 -498 1182 c 0
 -470 1182 -444.833 1171.67 -422.5 1151 c 0
 -400.167 1130.33 -389 1106.33 -389 1079 c 0
 -389 1017.67 -399.333 973.333 -420 946 c 1
 -378.667 966.667 -348 997.333 -328 1038 c 1
 -307 1098 l 1
 -299 1171 l 1
 -236 1114 l 1
-676 930 m 0
 -663.333 930 -651.667 936 -641 948 c 1
 -637 954.667 -635 962.333 -635 971 c 0
 -635 998.333 -648.667 1012 -676 1012 c 0
 -690.667 1012 -701 1006.33 -707 995 c 1
 -715 971 l 1
 -715 943.667 -702 930 -676 930 c 0
EndSplineSet
EndChar
StartChar: uniF708
Encoding: 319 63240
OldEncoding: 63240
Width: 0
Flags: W
Fore
-285 1006 m 1
 -393 1006 l 1
 -393 891 l 1
 -487 891 l 1
 -487 1006 l 1
 -598 1006 l 1
 -598 1094 l 1
 -487 1094 l 1
 -487 1214 l 1
 -393 1214 l 1
 -393 1094 l 1
 -285 1094 l 1
 -285 1006 l 1
EndSplineSet
EndChar
StartChar: uniF709
Encoding: 320 63241
OldEncoding: 63241
Width: 0
Flags: W
Fore
-186 1298 m 1
 -188.667 1279.33 -192.333 1263.67 -197 1251 c 0
 -207.667 1226.33 -227.333 1205.33 -256 1188 c 1
 -282 1175.33 -325.667 1165.67 -387 1159 c 1
 -473.667 1159 -523.667 1144 -537 1114 c 2
 -551 1081 l 1
 -535.667 1096.33 -513 1104 -483 1104 c 0
 -454.333 1104 -430.167 1094.17 -410.5 1074.5 c 0
 -390.833 1054.83 -381 1030.33 -381 1001 c 0
 -381 969.667 -391.167 943.833 -411.5 923.5 c 0
 -431.833 903.167 -457.667 893 -489 893 c 0
 -552.333 893 -596.333 923 -621 983 c 0
 -627.667 999.667 -631 1019.33 -631 1042 c 1
 -625 1085 l 1
 -601.667 1174.33 -519.667 1219 -379 1219 c 0
 -335 1219 -305.667 1231 -291 1255 c 1
 -279 1298 l 1
 -186 1298 l 1
-492 944 m 0
 -454.667 942.667 -436 961 -436 999 c 0
 -436 1036.33 -455.333 1055 -494 1055 c 0
 -529.333 1055 -547 1036.33 -547 999 c 0
 -547 963.667 -528.667 945.333 -492 944 c 0
EndSplineSet
EndChar
StartChar: uniF70A
Encoding: 321 63242
OldEncoding: 63242
Width: 0
Flags: W
Fore
-160 889 m 1
 -252 889 l 1
 -252 1186 l 1
 -160 1186 l 1
 -160 889 l 1
EndSplineSet
EndChar
StartChar: uniF70B
Encoding: 322 63243
OldEncoding: 63243
Width: 0
Flags: W
Fore
4 1096 m 1
 2.66667 1082.67 -15.6667 1060 -51 1028 c 0
 -135 952.667 -234.667 915 -350 915 c 0
 -400.667 915 -446.333 924 -487 942 c 1
 -473.667 948.667 -465.667 954 -463 958 c 1
 -430 989 l 1
 -397 1030 l 2
 -393 1035.33 -387 1047.67 -379 1067 c 1
 -416.333 1063 -448.167 1071.67 -474.5 1093 c 0
 -500.833 1114.33 -514 1144 -514 1182 c 0
 -514 1248.67 -487.333 1286.67 -434 1296 c 2
 -399 1303 l 1
 -385 1303 l 2
 -351.667 1303 -323.5 1293 -300.5 1273 c 0
 -277.5 1253 -266 1226.67 -266 1194 c 0
 -266 1127.33 -289.333 1059.67 -336 991 c 1
 -269.333 991 -199 1017.67 -125 1071 c 1
 -97.6667 1095.67 -71.6667 1121.67 -47 1149 c 1
 -27.6667 1175 -10.6667 1204.33 4 1237 c 1
 4 1096 l 1
-389 1122 m 0
 -349.667 1122 -330 1142.67 -330 1184 c 0
 -330 1224.67 -349.667 1245 -389 1245 c 0
 -430.333 1245 -451 1224.67 -451 1184 c 0
 -451 1142.67 -430.333 1122 -389 1122 c 0
EndSplineSet
EndChar
StartChar: uniF70C
Encoding: 323 63244
OldEncoding: 63244
Width: 0
Flags: W
Fore
33 1110 m 1
 27.6667 1069.33 10.1667 1029.5 -19.5 990.5 c 0
 -49.1667 951.5 -82.6667 924.833 -120 910.5 c 0
 -157.333 896.167 -201.333 889 -252 889 c 1
 -235.333 899 -220.667 917.333 -208 944 c 0
 -196 968.667 -190 991.333 -190 1012 c 0
 -190 1074.67 -208 1108.67 -244 1114 c 0
 -250 1114.67 -255.667 1115 -261 1115 c 0
 -287.667 1115 -308.667 1103.67 -324 1081 c 1
 -325.333 1082.33 -326.667 1083 -328 1083 c 0
 -360.667 1105 -388.667 1114 -412 1110 c 0
 -447.333 1103.33 -465 1076.67 -465 1030 c 1
 -445.667 1042.67 -424.333 1049 -401 1049 c 0
 -379.667 1049 -361.833 1040.5 -347.5 1023.5 c 0
 -333.167 1006.5 -326 987 -326 965 c 0
 -326 910.333 -357.333 883 -420 883 c 0
 -456 883 -484 898.667 -504 930 c 0
 -520 956 -528 988.667 -528 1028 c 2
 -528 1055 l 2
 -528 1061.67 -525.333 1073.33 -520 1090 c 1
 -508 1148.67 -472.667 1178 -414 1178 c 0
 -375.333 1178 -346 1161.33 -326 1128 c 1
 -305.333 1161.33 -273 1178 -229 1178 c 0
 -201.667 1178 -177.333 1166.33 -156 1143 c 0
 -136.667 1122.33 -125 1097.67 -121 1069 c 1
 -121 1033.67 -125 1004.33 -133 981 c 1
 -154 942 l 1
 -112.667 962.667 -81.6667 994 -61 1036 c 1
 -41 1096 l 1
 -33 1167 l 1
 33 1110 l 1
-410 1006 m 0
 -431.333 1006 -445 992.333 -451 965 c 1
 -451 939 -438 926 -412 926 c 0
 -399.333 926 -387.667 932 -377 944 c 1
 -373 950.667 -371 958.333 -371 967 c 0
 -371 993 -384 1006 -410 1006 c 0
EndSplineSet
EndChar
StartChar: uniF70D
Encoding: 324 63245
OldEncoding: 63245
Width: 0
Flags: W
Fore
-47 1079 m 1
 -49 997 l 1
 -156 999 l 1
 -156 893 l 1
 -240 893 l 1
 -240 999 l 1
 -348 997 l 1
 -346 1077 l 1
 -238 1079 l 1
 -238 1192 l 1
 -156 1192 l 1
 -154 1079 l 1
 -47 1079 l 1
EndSplineSet
EndChar
StartChar: uniF70E
Encoding: 325 63246
OldEncoding: 63246
Width: 0
Flags: W
Fore
86 1343 m 1
 80 1309 l 2
 67.3333 1237 -4.33333 1196.67 -135 1188 c 0
 -176.333 1185.33 -199.667 1184 -205 1184 c 0
 -261.667 1174 -295.667 1154.67 -307 1126 c 2
 -317 1102 l 1
 -295 1116 l 1
 -281 1122.67 -263.333 1126 -242 1126 c 0
 -192.667 1126 -157.667 1103.67 -137 1059 c 0
 -131.667 1047 -129 1031.33 -129 1012 c 0
 -129 977.333 -140.167 948.5 -162.5 925.5 c 0
 -184.833 902.5 -213.333 891 -248 891 c 0
 -294 891 -332.167 907.167 -362.5 939.5 c 0
 -392.833 971.833 -408 1011 -408 1057 c 1
 -399 1106 l 1
 -370.333 1205.33 -279.667 1255 -127 1255 c 0
 -76.3333 1255 -43.6667 1268.67 -29 1296 c 1
 -14 1343 l 1
 86 1343 l 1
-250 948 m 0
 -230.667 948 -215.667 953.667 -205 965 c 1
 -198.333 975.667 -193.333 990.667 -190 1010 c 1
 -190 1050.67 -210.667 1071 -252 1071 c 0
 -292.667 1071 -313 1050.67 -313 1010 c 0
 -313 968.667 -292 948 -250 948 c 0
EndSplineSet
EndChar
StartChar: uniF70F
Encoding: 326 63247
OldEncoding: 63247
Width: 1069
Flags: W
Fore
930 113 m 2
 930 79.6667 920 52.5 900 31.5 c 0
 880 10.5 853.667 0 821 0 c 2
 471 0 l 1
 471 88 l 1
 528 88 l 1
 528 594 l 2
 528 672 468 711 348 711 c 0
 300 711 256.333 704 217 690 c 1
 172 670 l 1
 205 655 l 2
 227.667 645.667 248 634.333 266 621 c 2
 326 578 l 1
 340 565 l 1
 305 557 l 2
 280.333 551 260 537.333 244 516 c 1
 216.667 488.667 203 454 203 412 c 2
 203 246 l 1
 215 250 l 1
 252 254 l 1
 271.333 254 289 250.667 305 244 c 0
 359 220.667 383.667 181.667 379 127 c 1
 377 102 l 2
 374.333 70.6667 359.333 45 332 25 c 0
 307.333 7 278.667 -2 246 -2 c 0
 156 -2 111 43.6667 111 135 c 2
 111 430 l 2
 111 448.667 113.667 464.333 119 477 c 2
 137 520 l 1
 147 534 158 546.333 170 557 c 1
 188 569 l 1
 176 580 l 1
 150 597.333 128.333 609.333 111 616 c 2
 57 637 l 1
 8 651 l 1
 30 680.333 65.6667 708.333 115 735 c 0
 184.333 773.667 260.667 793 344 793 c 0
 418 793 479.667 779.333 529 752 c 0
 590.333 718 621 666.667 621 598 c 2
 621 88 l 1
 788 88 l 2
 821.333 88 838 109.333 838 152 c 2
 838 788 l 1
 930 788 l 1
 930 113 l 2
252 63 m 0
 292.667 63 313 83.6667 313 125 c 0
 313 165.667 292.667 186 252 186 c 0
 216 186 194.667 165.667 188 125 c 1
 188 83.6667 209.333 63 252 63 c 0
EndSplineSet
EndChar
StartChar: uniF710
Encoding: 327 63248
OldEncoding: 63248
Width: 0
Flags: W
Fore
-27 1061 m 1
 -94.3333 999 -181.667 958 -289 938 c 0
 -325.667 931.333 -365.333 928 -408 928 c 0
 -518 928 -591.667 964.667 -629 1038 c 1
 -633 1049.33 -636.333 1066.67 -639 1090 c 1
 -639 1128.67 -627.667 1160.83 -605 1186.5 c 0
 -582.333 1212.17 -552 1225 -514 1225 c 0
 -477.333 1225 -445.667 1213.67 -419 1191 c 0
 -389.667 1167 -376.333 1137.33 -379 1102 c 1
 -381 1071 l 1
 -391 1042 l 1
 -414 1012 l 1
 -338 1012 l 1
 -325.333 1013.33 -307 1016.67 -283 1022 c 0
 -270.333 1024.67 -250.333 1032 -223 1044 c 0
 -177 1065.33 -132 1095.67 -88 1135 c 0
 -57.3333 1162.33 -37 1185.33 -27 1204 c 1
 -27 1061 l 1
-504 1163 m 0
 -548.667 1163 -571 1141.33 -571 1098 c 0
 -571 1055.33 -549.333 1034 -506 1034 c 0
 -485.333 1034 -469 1040.33 -457 1053 c 0
 -448.333 1063.67 -442.667 1079.33 -440 1100 c 1
 -440 1142 -461.333 1163 -504 1163 c 0
EndSplineSet
EndChar
StartChar: uniF711
Encoding: 328 63249
OldEncoding: 63249
Width: 0
Flags: W
Fore
-442 872 m 0
 -482 872 -514.667 885 -540 911 c 0
 -565.333 937 -578 970 -578 1010 c 0
 -578 1050.67 -565.667 1083.67 -541 1109 c 0
 -516.333 1134.33 -483.333 1147 -442 1147 c 0
 -402.667 1147 -370 1134 -344 1108 c 0
 -318 1082 -305 1049.33 -305 1010 c 0
 -305 918 -350.667 872 -442 872 c 0
-442 936 m 0
 -392 936 -367 960.667 -367 1010 c 0
 -367 1058.67 -392 1083 -442 1083 c 0
 -490 1083 -514.667 1058.67 -516 1010 c 0
 -516.667 989.333 -509.667 971.833 -495 957.5 c 0
 -480.333 943.167 -462.667 936 -442 936 c 0
EndSplineSet
EndChar
StartChar: uniF712
Encoding: 329 63250
OldEncoding: 63250
Width: 0
Flags: W
Fore
-260 1296 m 1
 -268 1255 l 1
 -288.667 1193.67 -337.333 1158.33 -414 1149 c 1
 -492 1155 l 1
 -575 1163 l 1
 -606 1165 l 2
 -625.333 1166.33 -643 1163 -659 1155 c 1
 -697.667 1144.33 -717 1115.67 -717 1069 c 1
 -709 1022 l 1
 -692.333 1046.67 -669.667 1063 -641 1071 c 1
 -606 1075 l 1
 -555.333 1075 -510.333 1055.33 -471 1016 c 1
 -456.333 1050 -427 1069.67 -383 1075 c 1
 -324.333 1075 -295 1038.33 -295 965 c 0
 -295 932.333 -313.333 909 -350 895 c 0
 -363.333 889.667 -377 887.667 -391 889 c 2
 -422 891 l 2
 -432 891.667 -468 916.333 -530 965 c 0
 -556.667 985 -580.667 995 -602 995 c 1
 -633 989 l 1
 -663 979.667 -678 947 -678 891 c 2
 -678 881 l 1
 -760 909.667 -801 961.333 -801 1036 c 1
 -803 1057 l 1
 -803 1092.33 -794 1125.67 -776 1157 c 0
 -756 1191 -730 1213 -698 1223 c 1
 -639 1235 l 1
 -598 1237 l 2
 -583.333 1237.67 -561.333 1236.33 -532 1233 c 2
 -446 1223 l 1
 -419.333 1223 -398.333 1230.33 -383 1245 c 0
 -375 1253 -366.667 1270 -358 1296 c 1
 -358 1305 l 1
 -260 1305 l 1
 -260 1296 l 1
-350 983 m 0
 -350 1007.67 -362.333 1020 -387 1020 c 0
 -410.333 1020 -422 1007.67 -422 983 c 0
 -422 958.333 -410.333 946 -387 946 c 0
 -362.333 946 -350 958.333 -350 983 c 0
EndSplineSet
EndChar
StartChar: uniF713
Encoding: 330 63251
OldEncoding: 63251
Width: 0
Flags: W
Fore
-287 1333 m 1
 -379 1333 l 1
 -379 1567 l 1
 -287 1567 l 1
 -287 1333 l 1
EndSplineSet
EndChar
StartChar: uniF714
Encoding: 331 63252
OldEncoding: 63252
Width: 0
Flags: W
Fore
-115 1487 m 1
 -136.333 1457.67 -155.333 1435 -172 1419 c 0
 -196 1397 -230 1376.67 -274 1358 c 0
 -342 1329.33 -398.667 1317 -444 1321 c 2
 -516 1327 l 1
 -501.333 1336.33 -486.333 1350.67 -471 1370 c 1
 -449 1417 l 1
 -484.333 1413 -516.333 1424.67 -545 1452 c 1
 -559.667 1470 -567 1492 -567 1518 c 0
 -567 1572 -537 1606 -477 1620 c 0
 -470.333 1620.67 -464 1621 -458 1621 c 0
 -427.333 1621 -401.667 1612.33 -381 1595 c 1
 -364.333 1579 -353.333 1555.33 -348 1524 c 1
 -348 1492.67 -354.333 1461.33 -367 1430 c 1
 -391 1389 l 1
 -308.333 1405 -234 1452 -168 1530 c 0
 -144.667 1557.33 -127 1584 -115 1610 c 1
 -115 1487 l 1
-455 1466 m 0
 -422.333 1466 -406 1482.67 -406 1516 c 0
 -406 1547.33 -423 1565.67 -457 1571 c 1
 -484.333 1571 -501.333 1552.67 -508 1516 c 1
 -508 1482.67 -490.333 1466 -455 1466 c 0
EndSplineSet
EndChar
StartChar: uniF715
Encoding: 332 63253
OldEncoding: 63253
Width: 0
Flags: W
Fore
-501 1487 m 1
 -486.333 1499 -466 1505 -440 1505 c 0
 -384 1505 -356 1476.33 -356 1419 c 0
 -356 1393.67 -365.833 1373.33 -385.5 1358 c 0
 -405.167 1342.67 -428 1335 -454 1335 c 0
 -490 1335 -518.667 1351 -540 1383 c 0
 -559.333 1411.67 -569 1444.67 -569 1482 c 0
 -569 1587.33 -530 1640 -452 1640 c 0
 -408 1640 -376 1623 -356 1589 c 1
 -334.667 1623 -301.667 1640 -257 1640 c 0
 -226.333 1640 -200 1629 -178 1607 c 0
 -156 1585 -145 1558.67 -145 1528 c 0
 -145 1490 -155.667 1446 -177 1396 c 1
 -93.6667 1440.67 -52 1518.67 -52 1630 c 1
 16 1571 l 1
 4.66667 1495 -31.3333 1435.67 -92 1393 c 0
 -136.667 1360.33 -199.333 1343 -280 1341 c 1
 -237.333 1383.67 -216 1424.67 -216 1464 c 0
 -216 1538 -234.667 1575 -272 1575 c 0
 -311.333 1575 -339.333 1560.33 -356 1531 c 1
 -374 1557.67 -404 1571 -446 1571 c 0
 -471.333 1571 -489.333 1559 -500 1535 c 0
 -502 1529.67 -503 1522.33 -503 1513 c 0
 -503 1505.67 -502.333 1497 -501 1487 c 1
-446 1466 m 0
 -473.333 1466 -487 1451.67 -487 1423 c 0
 -487 1393 -472.667 1378 -444 1378 c 0
 -415.333 1378 -401 1392.33 -401 1421 c 0
 -401 1451 -416 1466 -446 1466 c 0
EndSplineSet
EndChar
StartChar: uniF716
Encoding: 333 63254
OldEncoding: 63254
Width: 0
Flags: W
Fore
-283 1671 m 1
 -283 1544 l 1
 -169 1544 l 1
 -169 1453 l 1
 -283 1453 l 1
 -283 1333 l 1
 -380 1333 l 1
 -380 1453 l 1
 -495 1453 l 1
 -495 1544 l 1
 -380 1544 l 1
 -380 1671 l 1
 -283 1671 l 1
EndSplineSet
EndChar
StartChar: uniF717
Encoding: 334 63255
OldEncoding: 63255
Width: 0
Flags: W
Fore
-135 1595 m 1
 -139 1565 -144 1546.67 -150 1540 c 1
 -159.333 1522 -175 1506.33 -197 1493 c 0
 -213 1485 -251.667 1477.33 -313 1470 c 1
 -392.333 1470 -441 1451 -459 1413 c 1
 -463 1401 l 1
 -443.667 1411.67 -423 1418.33 -401 1421 c 1
 -375 1421 -353.167 1411.83 -335.5 1393.5 c 0
 -317.833 1375.17 -309 1353 -309 1327 c 0
 -309 1261.67 -341.333 1229 -406 1229 c 0
 -443.333 1229 -473.667 1243 -497 1271 c 0
 -520.333 1299 -532 1332 -532 1370 c 1
 -528 1405 l 1
 -505.333 1485.67 -431.667 1526 -307 1526 c 0
 -267.667 1526 -241 1537.67 -227 1561 c 1
 -217 1595 l 1
 -135 1595 l 1
-408 1276 m 0
 -374.667 1276 -358 1292.33 -358 1325 c 0
 -358 1359 -375.333 1376 -410 1376 c 0
 -442.667 1376 -459 1359.67 -459 1327 c 0
 -459 1293 -442 1276 -408 1276 c 0
EndSplineSet
EndChar
StartChar: uniF718
Encoding: 335 63256
OldEncoding: 63256
Width: 0
Flags: W
Fore
-152 -809 m 1
 -227 -809 l 1
 -227 -629 l 1
 -240 -631 l 1
 -270 -635 l 1
 -284.667 -635 -300.333 -631.667 -317 -625 c 0
 -358.333 -608.333 -379 -576 -379 -528 c 1
 -375 -489 l 1
 -372.333 -467.667 -358.667 -449.667 -334 -435 c 0
 -312.667 -422.333 -290 -416 -266 -416 c 0
 -190 -416 -152 -454.667 -152 -532 c 2
 -152 -809 l 1
-266 -580 m 0
 -230.667 -580 -213 -562 -213 -526 c 0
 -213 -490.667 -230.667 -473 -266 -473 c 0
 -301.333 -473 -319 -490.667 -319 -526 c 0
 -319 -562 -301.333 -580 -266 -580 c 0
EndSplineSet
EndChar
